<svg width="1980" height="896" viewBox="0 0 1980 896" fill="none" xmlns="http://www.w3.org/2000/svg">
<path d="M1772.83 170.705L1783.2 178.143L1793.57 170.705L1786.13 181.076L1793.57 191.447L1783.2 184.009L1772.83 191.447L1780.26 181.076L1772.83 170.705Z" fill="url(#paint0_angular_3_15278)"/>
<g filter="url(#filter0_dii_3_15278)">
<path d="M40.0006 31.0004C40.0006 31.0004 430.003 120.666 991.003 120.666C1549 120.666 1960 31.0004 1960 31.0004V763.5C1960 763.5 1549 670.166 991.003 670.166C430.003 670.166 40.0006 763.5 40.0006 763.5V31.0004Z" fill="url(#paint1_linear_3_15278)" shape-rendering="crispEdges"/>
</g>
<rect x="1553.88" y="280.185" width="80.5364" height="80.5364" transform="rotate(-45 1553.88 280.185)" stroke="url(#paint2_linear_3_15278)" stroke-width="4"/>
<rect x="934.669" y="547.972" width="33.4294" height="33.4294" transform="rotate(-45 934.669 547.972)" fill="url(#paint3_linear_3_15278)"/>
<rect x="934.669" y="547.972" width="33.4294" height="33.4294" transform="rotate(-45 934.669 547.972)" stroke="url(#paint4_linear_3_15278)"/>
<rect x="1626.67" y="817.305" width="33.4294" height="33.4294" transform="rotate(-45 1626.67 817.305)" fill="url(#paint5_linear_3_15278)"/>
<rect x="1626.67" y="817.305" width="33.4294" height="33.4294" transform="rotate(-45 1626.67 817.305)" stroke="url(#paint6_linear_3_15278)"/>
<g filter="url(#filter1_i_3_15278)">
<path d="M161.419 264.083L40.3546 292.733L40.3546 235.433L161.419 264.083Z" fill="url(#paint7_linear_3_15278)"/>
</g>
<rect x="1072.16" y="464.11" width="80.5364" height="80.5364" transform="rotate(-45 1072.16 464.11)" stroke="url(#paint8_linear_3_15278)" stroke-width="4"/>
<path d="M703.334 263.667C703.334 299.713 673.523 329.001 636.667 329.001C599.811 329.001 570.001 299.713 570.001 263.667C570.001 227.621 599.811 198.334 636.667 198.334C673.523 198.334 703.334 227.621 703.334 263.667Z" stroke="url(#paint9_linear_3_15278)" stroke-width="4"/>
<path fill-rule="evenodd" clip-rule="evenodd" d="M1789.33 399C1791.54 399 1793.33 397.21 1793.33 395C1793.33 392.791 1791.54 391 1789.33 391C1787.13 391 1785.33 392.791 1785.33 395C1785.33 397.21 1787.13 399 1789.33 399ZM1842.67 399C1844.88 399 1846.67 397.21 1846.67 395C1846.67 392.791 1844.88 391 1842.67 391C1840.46 391 1838.67 392.791 1838.67 395C1838.67 397.21 1840.46 399 1842.67 399ZM1900 395C1900 397.21 1898.21 399 1896 399C1893.79 399 1892 397.21 1892 395C1892 392.791 1893.79 391 1896 391C1898.21 391 1900 392.791 1900 395ZM1949.33 399C1951.54 399 1953.33 397.21 1953.33 395C1953.33 392.791 1951.54 391 1949.33 391C1947.13 391 1945.33 392.791 1945.33 395C1945.33 397.21 1947.13 399 1949.33 399ZM1793.33 449.667C1793.33 451.876 1791.54 453.667 1789.33 453.667C1787.13 453.667 1785.33 451.876 1785.33 449.667C1785.33 447.458 1787.13 445.667 1789.33 445.667C1791.54 445.667 1793.33 447.458 1793.33 449.667ZM1842.67 453.667C1844.88 453.667 1846.67 451.876 1846.67 449.667C1846.67 447.458 1844.88 445.667 1842.67 445.667C1840.46 445.667 1838.67 447.458 1838.67 449.667C1838.67 451.876 1840.46 453.667 1842.67 453.667ZM1900 449.667C1900 451.876 1898.21 453.667 1896 453.667C1893.79 453.667 1892 451.876 1892 449.667C1892 447.458 1893.79 445.667 1896 445.667C1898.21 445.667 1900 447.458 1900 449.667ZM1949.33 453.667C1951.54 453.667 1953.33 451.876 1953.33 449.667C1953.33 447.458 1951.54 445.667 1949.33 445.667C1947.13 445.667 1945.33 447.458 1945.33 449.667C1945.33 451.876 1947.13 453.667 1949.33 453.667ZM1793.33 504.334C1793.33 506.543 1791.54 508.334 1789.33 508.334C1787.13 508.334 1785.33 506.543 1785.33 504.334C1785.33 502.125 1787.13 500.334 1789.33 500.334C1791.54 500.334 1793.33 502.125 1793.33 504.334ZM1842.67 508.334C1844.88 508.334 1846.67 506.543 1846.67 504.334C1846.67 502.125 1844.88 500.334 1842.67 500.334C1840.46 500.334 1838.67 502.125 1838.67 504.334C1838.67 506.543 1840.46 508.334 1842.67 508.334ZM1900 504.334C1900 506.543 1898.21 508.334 1896 508.334C1893.79 508.334 1892 506.543 1892 504.334C1892 502.125 1893.79 500.334 1896 500.334C1898.21 500.334 1900 502.125 1900 504.334ZM1949.33 508.334C1951.54 508.334 1953.33 506.543 1953.33 504.334C1953.33 502.125 1951.54 500.334 1949.33 500.334C1947.13 500.334 1945.33 502.125 1945.33 504.334C1945.33 506.543 1947.13 508.334 1949.33 508.334ZM1793.33 556.334C1793.33 558.543 1791.54 560.334 1789.33 560.334C1787.13 560.334 1785.33 558.543 1785.33 556.334C1785.33 554.125 1787.13 552.334 1789.33 552.334C1791.54 552.334 1793.33 554.125 1793.33 556.334ZM1842.67 560.334C1844.88 560.334 1846.67 558.543 1846.67 556.334C1846.67 554.125 1844.88 552.334 1842.67 552.334C1840.46 552.334 1838.67 554.125 1838.67 556.334C1838.67 558.543 1840.46 560.334 1842.67 560.334ZM1900 556.334C1900 558.543 1898.21 560.334 1896 560.334C1893.79 560.334 1892 558.543 1892 556.334C1892 554.125 1893.79 552.334 1896 552.334C1898.21 552.334 1900 554.125 1900 556.334ZM1949.33 560.334C1951.54 560.334 1953.33 558.543 1953.33 556.334C1953.33 554.125 1951.54 552.334 1949.33 552.334C1947.13 552.334 1945.33 554.125 1945.33 556.334C1945.33 558.543 1947.13 560.334 1949.33 560.334ZM1793.33 611C1793.33 613.21 1791.54 615 1789.33 615C1787.13 615 1785.33 613.21 1785.33 611C1785.33 608.791 1787.13 607 1789.33 607C1791.54 607 1793.33 608.791 1793.33 611ZM1842.67 615C1844.88 615 1846.67 613.21 1846.67 611C1846.67 608.791 1844.88 607 1842.67 607C1840.46 607 1838.67 608.791 1838.67 611C1838.67 613.21 1840.46 615 1842.67 615ZM1900 611C1900 613.21 1898.21 615 1896 615C1893.79 615 1892 613.21 1892 611C1892 608.791 1893.79 607 1896 607C1898.21 607 1900 608.791 1900 611ZM1949.33 615C1951.54 615 1953.33 613.21 1953.33 611C1953.33 608.791 1951.54 607 1949.33 607C1947.13 607 1945.33 608.791 1945.33 611C1945.33 613.21 1947.13 615 1949.33 615ZM1793.33 665.667C1793.33 667.876 1791.54 669.667 1789.33 669.667C1787.13 669.667 1785.33 667.876 1785.33 665.667C1785.33 663.458 1787.13 661.667 1789.33 661.667C1791.54 661.667 1793.33 663.458 1793.33 665.667ZM1842.67 669.667C1844.88 669.667 1846.67 667.876 1846.67 665.667C1846.67 663.458 1844.88 661.667 1842.67 661.667C1840.46 661.667 1838.67 663.458 1838.67 665.667C1838.67 667.876 1840.46 669.667 1842.67 669.667ZM1900 665.667C1900 667.876 1898.21 669.667 1896 669.667C1893.79 669.667 1892 667.876 1892 665.667C1892 663.458 1893.79 661.667 1896 661.667C1898.21 661.667 1900 663.458 1900 665.667ZM1949.33 669.667C1951.54 669.667 1953.33 667.876 1953.33 665.667C1953.33 663.458 1951.54 661.667 1949.33 661.667C1947.13 661.667 1945.33 663.458 1945.33 665.667C1945.33 667.876 1947.13 669.667 1949.33 669.667Z" fill="url(#paint10_linear_3_15278)"/>
<g filter="url(#filter2_d_3_15278)">
<path d="M1792.52 179.815L1806.08 189.537L1819.63 179.815L1809.91 193.371L1819.63 206.928L1806.08 197.206L1792.52 206.928L1802.24 193.371L1792.52 179.815Z" fill="url(#paint11_linear_3_15278)"/>
</g>
<path d="M1085.81 681.892L1103.24 694.391L1120.67 681.892L1108.17 699.321L1120.67 716.751L1103.24 704.251L1085.81 716.751L1098.31 699.321L1085.81 681.892Z" fill="url(#paint12_linear_3_15278)"/>
<path fill-rule="evenodd" clip-rule="evenodd" d="M60.0006 392.334C62.2097 392.334 64.0006 390.543 64.0006 388.334C64.0006 386.125 62.2097 384.334 60.0006 384.334C57.7915 384.334 56.0006 386.125 56.0006 388.334C56.0006 390.543 57.7915 392.334 60.0006 392.334ZM113.335 392.334C115.544 392.334 117.335 390.543 117.335 388.334C117.335 386.125 115.544 384.334 113.335 384.334C111.125 384.334 109.335 386.125 109.335 388.334C109.335 390.543 111.125 392.334 113.335 392.334ZM64.0006 443C64.0006 445.21 62.2097 447 60.0006 447C57.7915 447 56.0006 445.21 56.0006 443C56.0006 440.791 57.7915 439 60.0006 439C62.2097 439 64.0006 440.791 64.0006 443ZM113.335 447C115.544 447 117.335 445.21 117.335 443C117.335 440.791 115.544 439 113.335 439C111.125 439 109.335 440.791 109.335 443C109.335 445.21 111.125 447 113.335 447ZM64.0006 497.667C64.0006 499.876 62.2097 501.667 60.0006 501.667C57.7915 501.667 56.0006 499.876 56.0006 497.667C56.0006 495.458 57.7915 493.667 60.0006 493.667C62.2097 493.667 64.0006 495.458 64.0006 497.667ZM113.335 501.667C115.544 501.667 117.335 499.876 117.335 497.667C117.335 495.458 115.544 493.667 113.335 493.667C111.125 493.667 109.335 495.458 109.335 497.667C109.335 499.876 111.125 501.667 113.335 501.667ZM64.0006 549.667C64.0006 551.876 62.2097 553.667 60.0006 553.667C57.7915 553.667 56.0006 551.876 56.0006 549.667C56.0006 547.458 57.7915 545.667 60.0006 545.667C62.2097 545.667 64.0006 547.458 64.0006 549.667ZM113.335 553.667C115.544 553.667 117.335 551.876 117.335 549.667C117.335 547.458 115.544 545.667 113.335 545.667C111.125 545.667 109.335 547.458 109.335 549.667C109.335 551.876 111.125 553.667 113.335 553.667ZM64.0006 604.334C64.0006 606.543 62.2097 608.334 60.0006 608.334C57.7915 608.334 56.0006 606.543 56.0006 604.334C56.0006 602.125 57.7915 600.334 60.0006 600.334C62.2097 600.334 64.0006 602.125 64.0006 604.334ZM113.335 608.334C115.544 608.334 117.335 606.543 117.335 604.334C117.335 602.125 115.544 600.334 113.335 600.334C111.125 600.334 109.335 602.125 109.335 604.334C109.335 606.543 111.125 608.334 113.335 608.334ZM64.0006 659C64.0006 661.209 62.2097 663 60.0006 663C57.7915 663 56.0006 661.209 56.0006 659C56.0006 656.791 57.7915 655 60.0006 655C62.2097 655 64.0006 656.791 64.0006 659ZM113.335 663C115.544 663 117.335 661.21 117.335 659C117.335 656.791 115.544 655 113.335 655C111.125 655 109.335 656.791 109.335 659C109.335 661.21 111.125 663 113.335 663Z" fill="url(#paint13_linear_3_15278)"/>
<defs>
<filter id="filter0_dii_3_15278" x="20.0006" y="15.0004" width="1960" height="772.5" filterUnits="userSpaceOnUse" color-interpolation-filters="sRGB">
<feFlood flood-opacity="0" result="BackgroundImageFix"/>
<feColorMatrix in="SourceAlpha" type="matrix" values="0 0 0 0 0 0 0 0 0 0 0 0 0 0 0 0 0 0 127 0" result="hardAlpha"/>
<feOffset dy="4"/>
<feGaussianBlur stdDeviation="10"/>
<feComposite in2="hardAlpha" operator="out"/>
<feColorMatrix type="matrix" values="0 0 0 0 0 0 0 0 0 0 0 0 0 0 0 0 0 0 0.15 0"/>
<feBlend mode="normal" in2="BackgroundImageFix" result="effect1_dropShadow_3_15278"/>
<feBlend mode="normal" in="SourceGraphic" in2="effect1_dropShadow_3_15278" result="shape"/>
<feColorMatrix in="SourceAlpha" type="matrix" values="0 0 0 0 0 0 0 0 0 0 0 0 0 0 0 0 0 0 127 0" result="hardAlpha"/>
<feOffset dy="5.33333"/>
<feGaussianBlur stdDeviation="2.66667"/>
<feComposite in2="hardAlpha" operator="arithmetic" k2="-1" k3="1"/>
<feColorMatrix type="matrix" values="0 0 0 0 0.823529 0 0 0 0 0.823529 0 0 0 0 0.823529 0 0 0 0.25 0"/>
<feBlend mode="normal" in2="shape" result="effect2_innerShadow_3_15278"/>
<feColorMatrix in="SourceAlpha" type="matrix" values="0 0 0 0 0 0 0 0 0 0 0 0 0 0 0 0 0 0 127 0" result="hardAlpha"/>
<feOffset dy="6"/>
<feGaussianBlur stdDeviation="5"/>
<feComposite in2="hardAlpha" operator="arithmetic" k2="-1" k3="1"/>
<feColorMatrix type="matrix" values="0 0 0 0 0.825 0 0 0 0 0.825 0 0 0 0 0.825 0 0 0 0.25 0"/>
<feBlend mode="normal" in2="effect2_innerShadow_3_15278" result="effect3_innerShadow_3_15278"/>
</filter>
<filter id="filter1_i_3_15278" x="40.3546" y="235.433" width="121.064" height="62.6335" filterUnits="userSpaceOnUse" color-interpolation-filters="sRGB">
<feFlood flood-opacity="0" result="BackgroundImageFix"/>
<feBlend mode="normal" in="SourceGraphic" in2="BackgroundImageFix" result="shape"/>
<feColorMatrix in="SourceAlpha" type="matrix" values="0 0 0 0 0 0 0 0 0 0 0 0 0 0 0 0 0 0 127 0" result="hardAlpha"/>
<feOffset dy="5.33333"/>
<feGaussianBlur stdDeviation="2.66667"/>
<feComposite in2="hardAlpha" operator="arithmetic" k2="-1" k3="1"/>
<feColorMatrix type="matrix" values="0 0 0 0 1 0 0 0 0 1 0 0 0 0 1 0 0 0 0.25 0"/>
<feBlend mode="normal" in2="shape" result="effect1_innerShadow_3_15278"/>
</filter>
<filter id="filter2_d_3_15278" x="1787.19" y="179.815" width="37.7793" height="37.7794" filterUnits="userSpaceOnUse" color-interpolation-filters="sRGB">
<feFlood flood-opacity="0" result="BackgroundImageFix"/>
<feColorMatrix in="SourceAlpha" type="matrix" values="0 0 0 0 0 0 0 0 0 0 0 0 0 0 0 0 0 0 127 0" result="hardAlpha"/>
<feOffset dy="5.33333"/>
<feGaussianBlur stdDeviation="2.66667"/>
<feComposite in2="hardAlpha" operator="out"/>
<feColorMatrix type="matrix" values="0 0 0 0 0 0 0 0 0 0 0 0 0 0 0 0 0 0 0.25 0"/>
<feBlend mode="normal" in2="BackgroundImageFix" result="effect1_dropShadow_3_15278"/>
<feBlend mode="normal" in="SourceGraphic" in2="effect1_dropShadow_3_15278" result="shape"/>
</filter>
<radialGradient id="paint0_angular_3_15278" cx="0" cy="0" r="1" gradientUnits="userSpaceOnUse" gradientTransform="translate(1783.2 181.076) rotate(45) scale(14.6667)">
<stop stop-color="#F9560F" stop-opacity="0.33"/>
<stop offset="1" stop-color="white"/>
</radialGradient>
<linearGradient id="paint1_linear_3_15278" x1="40.0006" y1="460.875" x2="1960.46" y2="418.911" gradientUnits="userSpaceOnUse">
<stop offset="0.515625" stop-color="#2D3436" stop-opacity="0.9"/>
<stop offset="1" stop-color="#2D3436"/>
</linearGradient>
<linearGradient id="paint2_linear_3_15278" x1="1551.76" y1="326.68" x2="1635.59" y2="326.744" gradientUnits="userSpaceOnUse">
<stop stop-color="#ECA363"/>
<stop offset="1" stop-color="#E05E80"/>
</linearGradient>
<linearGradient id="paint3_linear_3_15278" x1="934.946" y1="566.358" x2="968.098" y2="566.383" gradientUnits="userSpaceOnUse">
<stop stop-color="#ECA363"/>
<stop offset="1" stop-color="#E05E80"/>
</linearGradient>
<linearGradient id="paint4_linear_3_15278" x1="934.946" y1="566.358" x2="968.098" y2="566.383" gradientUnits="userSpaceOnUse">
<stop stop-color="#ECA363"/>
<stop offset="1" stop-color="#E05E80"/>
</linearGradient>
<linearGradient id="paint5_linear_3_15278" x1="1626.95" y1="835.691" x2="1660.1" y2="835.716" gradientUnits="userSpaceOnUse">
<stop stop-color="#ECA363"/>
<stop offset="1" stop-color="#E05E80"/>
</linearGradient>
<linearGradient id="paint6_linear_3_15278" x1="1626.95" y1="835.691" x2="1660.1" y2="835.716" gradientUnits="userSpaceOnUse">
<stop stop-color="#ECA363"/>
<stop offset="1" stop-color="#E05E80"/>
</linearGradient>
<linearGradient id="paint7_linear_3_15278" x1="72.6384" y1="231.549" x2="72.6177" y2="297.165" gradientUnits="userSpaceOnUse">
<stop stop-color="#ECA363"/>
<stop offset="1" stop-color="#E05E80"/>
</linearGradient>
<linearGradient id="paint8_linear_3_15278" x1="1070.04" y1="510.605" x2="1153.87" y2="510.669" gradientUnits="userSpaceOnUse">
<stop stop-color="#ECA363"/>
<stop offset="1" stop-color="#E05E80"/>
</linearGradient>
<linearGradient id="paint9_linear_3_15278" x1="569.139" y1="270.401" x2="705.335" y2="270.507" gradientUnits="userSpaceOnUse">
<stop stop-color="#ECA363"/>
<stop offset="1" stop-color="#E05E80"/>
</linearGradient>
<linearGradient id="paint10_linear_3_15278" x1="1801.33" y1="477.129" x2="1909.3" y2="580.244" gradientUnits="userSpaceOnUse">
<stop stop-color="#ECA363" stop-opacity="0"/>
<stop offset="1" stop-color="#E05E80"/>
</linearGradient>
<linearGradient id="paint11_linear_3_15278" x1="1794.1" y1="208.059" x2="1821.01" y2="181.191" gradientUnits="userSpaceOnUse">
<stop stop-color="#ECA363"/>
<stop offset="1" stop-color="#E05E80"/>
</linearGradient>
<linearGradient id="paint12_linear_3_15278" x1="1087.84" y1="718.205" x2="1122.44" y2="683.661" gradientUnits="userSpaceOnUse">
<stop stop-color="#ECA363"/>
<stop offset="1" stop-color="#E05E80"/>
</linearGradient>
<linearGradient id="paint13_linear_3_15278" x1="56.5089" y1="537.6" x2="117.335" y2="537.611" gradientUnits="userSpaceOnUse">
<stop stop-color="#ECA363"/>
<stop offset="1" stop-color="#E05E80"/>
</linearGradient>
</defs>
</svg>
