<svg width="63" height="225" viewBox="0 0 63 225" fill="none" xmlns="http://www.w3.org/2000/svg">
<path fill-rule="evenodd" clip-rule="evenodd" d="M4.99707 8.3335C7.20621 8.3335 8.99707 6.54263 8.99707 4.3335C8.99707 2.12436 7.20621 0.333496 4.99707 0.333496C2.78793 0.333496 0.99707 2.12436 0.99707 4.3335C0.99707 6.54263 2.78793 8.3335 4.99707 8.3335ZM58.3311 8.3335C60.5402 8.3335 62.3311 6.54263 62.3311 4.3335C62.3311 2.12436 60.5402 0.333496 58.3311 0.333496C56.1219 0.333496 54.3311 2.12436 54.3311 4.3335C54.3311 6.54263 56.1219 8.3335 58.3311 8.3335ZM8.99707 59C8.99707 61.2091 7.20621 63 4.99707 63C2.78793 63 0.99707 61.2091 0.99707 59C0.99707 56.7909 2.78793 55 4.99707 55C7.20621 55 8.99707 56.7909 8.99707 59ZM58.3311 63C60.5402 63 62.3311 61.2091 62.3311 59C62.3311 56.7909 60.5402 55 58.3311 55C56.1219 55 54.3311 56.7909 54.3311 59C54.3311 61.2091 56.1219 63 58.3311 63ZM8.99707 113.667C8.99707 115.876 7.20621 117.667 4.99707 117.667C2.78793 117.667 0.99707 115.876 0.99707 113.667C0.99707 111.458 2.78793 109.667 4.99707 109.667C7.20621 109.667 8.99707 111.458 8.99707 113.667ZM58.3311 117.667C60.5402 117.667 62.3311 115.876 62.3311 113.667C62.3311 111.458 60.5402 109.667 58.3311 109.667C56.1219 109.667 54.3311 111.458 54.3311 113.667C54.3311 115.876 56.1219 117.667 58.3311 117.667ZM8.99707 165.667C8.99707 167.876 7.20621 169.667 4.99707 169.667C2.78793 169.667 0.99707 167.876 0.99707 165.667C0.99707 163.457 2.78793 161.667 4.99707 161.667C7.20621 161.667 8.99707 163.457 8.99707 165.667ZM58.3311 169.667C60.5402 169.667 62.3311 167.876 62.3311 165.667C62.3311 163.457 60.5402 161.667 58.3311 161.667C56.1219 161.667 54.3311 163.457 54.3311 165.667C54.3311 167.876 56.1219 169.667 58.3311 169.667ZM8.99707 220.333C8.99707 222.543 7.20621 224.333 4.99707 224.333C2.78793 224.333 0.99707 222.543 0.99707 220.333C0.99707 218.124 2.78793 216.333 4.99707 216.333C7.20621 216.333 8.99707 218.124 8.99707 220.333ZM58.3311 224.333C60.5402 224.333 62.3311 222.543 62.3311 220.333C62.3311 218.124 60.5402 216.333 58.3311 216.333C56.1219 216.333 54.3311 218.124 54.3311 220.333C54.3311 222.543 56.1219 224.333 58.3311 224.333Z" fill="url(#paint0_linear_853_59007)"/>
<defs>
<linearGradient id="paint0_linear_853_59007" x1="1.50536" y1="123.533" x2="62.3315" y2="123.546" gradientUnits="userSpaceOnUse">
<stop stop-color="#ECA363"/>
<stop offset="1" stop-color="#E05E80"/>
</linearGradient>
</defs>
</svg>
