<svg width="17" height="27" viewBox="0 0 17 27" fill="none" xmlns="http://www.w3.org/2000/svg">
<path d="M13.9576 26.0796C14.5533 26.6553 15.5029 26.6391 16.0786 26.0434C16.6543 25.4477 16.6381 24.4981 16.0424 23.9224L13.9576 26.0796ZM3 13.4041L1.98293 12.3015L0.815249 13.3787L1.95761 14.4827L3 13.4041ZM16.0171 3.43684C16.626 2.87513 16.6642 1.92616 16.1025 1.31724C15.5408 0.708332 14.5918 0.670067 13.9829 1.23178L16.0171 3.43684ZM16.0424 23.9224L4.04239 12.3255L1.95761 14.4827L13.9576 26.0796L16.0424 23.9224ZM4.01707 14.5066L16.0171 3.43684L13.9829 1.23178L1.98293 12.3015L4.01707 14.5066Z" fill="#7F8699"/>
</svg>
