<svg xmlns="http://www.w3.org/2000/svg" xmlns:xlink="http://www.w3.org/1999/xlink" width="1148" height="1200" viewBox="0 0 1148 1200">
  <defs>
    <clipPath id="clip-path">
      <rect x="-39" y="105" width="225" height="229" fill="none"/>
    </clipPath>
    <clipPath id="clip-path-2">
      <rect x="30" y="24" width="110" height="108" fill="none"/>
    </clipPath>
    <clipPath id="clip-path-3">
      <rect x="105" y="-10" width="406" height="322" fill="none"/>
    </clipPath>
  </defs>
  <g id="loginImg6" transform="translate(-104 -105)">
    <g id="Scroll_Group_5" data-name="Scroll Group 5" transform="translate(1066 0)" clip-path="url(#clip-path)" style="isolation: isolate">
      <path id="Path_25" data-name="Path 25" d="M1323.5,130A127.5,127.5,0,1,1,1196,2.5,127.5,127.5,0,0,1,1323.5,130Z" transform="translate(-1066 0)" fill="none" stroke="#f9560f" stroke-width="5" opacity="0.5"/>
    </g>
    <g id="Scroll_Group_6" data-name="Scroll Group 6" transform="translate(74 81)" clip-path="url(#clip-path-2)" style="isolation: isolate">
      <path id="Path_26" data-name="Path 26" d="M178.5,134.5a51,51,0,1,1-51-51A51,51,0,0,1,178.5,134.5Z" transform="translate(-74 -81)" fill="none" stroke="#707070" stroke-width="5" opacity="0.5"/>
    </g>
    <path id="Path_27" data-name="Path 27" d="M301,1148.75c0,86.02-67.381,155.75-150.5,155.75a145.7,145.7,0,0,1-59.858-12.806C37.306,1267.743,0,1212.757,0,1148.75,0,1062.73,67.381,993,150.5,993S301,1062.73,301,1148.75Z" transform="translate(104)" fill="#fff"/>
    <g id="Scroll_Group_7" data-name="Scroll Group 7" transform="translate(0 993)" clip-path="url(#clip-path-3)" style="isolation: isolate">
      <path id="Path_28" data-name="Path 28" d="M402.5,1195.5c0,110.46-89.543,200-200,200a199.828,199.828,0,0,1-200-200c0-110.46,89.543-200,200-200S402.5,1085.04,402.5,1195.5Z" transform="translate(0 -993)" fill="none" stroke="rgba(249,86,15,0.5)" stroke-width="5"/>
    </g>
    <path id="Path_29" data-name="Path 29" d="M1110.5,1064a25.5,25.5,0,1,1-25.5-25.5A25.5,25.5,0,0,1,1110.5,1064Z" fill="#fff" stroke="#707070" stroke-width="5" opacity="0.5"/>
    <path id="Path_30" data-name="Path 30" d="M438.023,875.441a4.2,4.2,0,0,1-1.64,3.528,7.118,7.118,0,0,1-4.453,1.265,11.145,11.145,0,0,1-4.688-.785v-1.922a12.265,12.265,0,0,0,2.3.7,12.08,12.08,0,0,0,2.461.258,5,5,0,0,0,3-.75,2.5,2.5,0,0,0,1.008-2.109,2.636,2.636,0,0,0-.363-1.453,3.23,3.23,0,0,0-1.2-1.055,16.493,16.493,0,0,0-2.543-1.09A8.19,8.19,0,0,1,428.484,870a4.5,4.5,0,0,1-1.019-3.059,3.8,3.8,0,0,1,1.488-3.152,6.187,6.187,0,0,1,3.938-1.172,11.6,11.6,0,0,1,4.7.938l-.621,1.734a10.615,10.615,0,0,0-4.125-.891,3.994,3.994,0,0,0-2.473.68,2.24,2.24,0,0,0-.891,1.887,2.925,2.925,0,0,0,.329,1.465,3.171,3.171,0,0,0,1.1,1.043,14.45,14.45,0,0,0,2.391,1.043,9.376,9.376,0,0,1,3.7,2.062A4.041,4.041,0,0,1,438.023,875.441Zm7.36,3.188a7,7,0,0,0,1-.07,7.455,7.455,0,0,0,.762-.164v1.488a3.5,3.5,0,0,1-.938.246,6.543,6.543,0,0,1-1.1.1q-3.727,0-3.727-3.925v-7.641h-1.84v-.938l1.84-.808.82-2.742h1.125v2.976h3.727v1.512H443.32v7.559a2.6,2.6,0,0,0,.551,1.781A1.917,1.917,0,0,0,445.383,878.629ZM457.617,880l-.387-1.828h-.093a5.451,5.451,0,0,1-1.922,1.64,5.858,5.858,0,0,1-2.379.422,4.311,4.311,0,0,1-3-.984,3.6,3.6,0,0,1-1.078-2.8q0-3.891,6.222-4.078l2.18-.07v-.8a3.217,3.217,0,0,0-.656-2.227,2.644,2.644,0,0,0-2.074-.726,8.475,8.475,0,0,0-3.633.984l-.6-1.488a9.19,9.19,0,0,1,2.074-.809,9.1,9.1,0,0,1,2.274-.293,4.866,4.866,0,0,1,3.4,1.02,4.239,4.239,0,0,1,1.114,3.269V880Zm-4.394-1.371a3.925,3.925,0,0,0,2.847-1,3.671,3.671,0,0,0,1.043-2.789v-1.16l-1.945.082a7.05,7.05,0,0,0-3.352.726,2.164,2.164,0,0,0-1.019,1.981,2.012,2.012,0,0,0,.633,1.6A2.674,2.674,0,0,0,453.223,878.629Zm7.816-11.473h2.086l2.813,7.324a27.768,27.768,0,0,1,1.148,3.622h.094q.152-.6.632-2.04T471,867.156h2.086l-5.52,14.625a7.206,7.206,0,0,1-1.921,3.071,4.04,4.04,0,0,1-2.684.914,7.815,7.815,0,0,1-1.758-.2v-1.558a6.77,6.77,0,0,0,1.442.14,2.971,2.971,0,0,0,2.859-2.25l.715-1.828Zm25.5,13.078a5.508,5.508,0,0,1-4.324-1.711,7.1,7.1,0,0,1-1.524-4.863,7.3,7.3,0,0,1,1.547-4.98,5.609,5.609,0,0,1,4.43-1.758,8.777,8.777,0,0,1,1.852.2,6.1,6.1,0,0,1,1.453.469l-.6,1.652a8.787,8.787,0,0,0-1.406-.422,6.087,6.087,0,0,0-1.348-.175q-3.914,0-3.914,4.992a5.972,5.972,0,0,0,.949,3.633,3.341,3.341,0,0,0,2.836,1.265,8.652,8.652,0,0,0,3.293-.691v1.722A7.007,7.007,0,0,1,486.539,880.234Zm17.391-6.668a7.114,7.114,0,0,1-1.582,4.911,5.584,5.584,0,0,1-4.371,1.757,5.79,5.79,0,0,1-3.059-.808,5.34,5.34,0,0,1-2.063-2.321,8.087,8.087,0,0,1-.726-3.539,7.05,7.05,0,0,1,1.57-4.886,5.545,5.545,0,0,1,4.36-1.758,5.417,5.417,0,0,1,4.277,1.793A7.038,7.038,0,0,1,503.93,873.566Zm-9.785,0a6.1,6.1,0,0,0,.984,3.75,3.907,3.907,0,0,0,5.789.012,6.065,6.065,0,0,0,1-3.762,5.913,5.913,0,0,0-1-3.714,3.956,3.956,0,0,0-5.8-.024A6.037,6.037,0,0,0,494.145,873.566Zm22,6.434v-8.309a3.353,3.353,0,0,0-.715-2.343,2.912,2.912,0,0,0-2.238-.774,3.7,3.7,0,0,0-2.954,1.09,5.5,5.5,0,0,0-.937,3.6V880h-1.945V867.156h1.582l.316,1.758h.094a3.931,3.931,0,0,1,1.676-1.465,5.4,5.4,0,0,1,2.4-.527,4.861,4.861,0,0,1,3.492,1.125,4.742,4.742,0,0,1,1.172,3.574V880Zm14.742,0v-8.309a3.348,3.348,0,0,0-.715-2.343,2.912,2.912,0,0,0-2.238-.774,3.693,3.693,0,0,0-2.953,1.09,5.5,5.5,0,0,0-.938,3.6V880h-1.945V867.156h1.582l.316,1.758h.094a3.931,3.931,0,0,1,1.676-1.465,5.4,5.4,0,0,1,2.4-.527,4.861,4.861,0,0,1,3.492,1.125,4.738,4.738,0,0,1,1.172,3.574V880Zm11.379.234a5.919,5.919,0,0,1-4.5-1.734,6.728,6.728,0,0,1-1.641-4.816,7.464,7.464,0,0,1,1.524-4.934,5.1,5.1,0,0,1,4.113-1.828,4.833,4.833,0,0,1,3.82,1.594,6.059,6.059,0,0,1,1.406,4.183v1.231h-8.847a5.111,5.111,0,0,0,1.136,3.433,3.97,3.97,0,0,0,3.059,1.172,10.351,10.351,0,0,0,4.1-.867V879.4a9.954,9.954,0,0,1-1.957.633A10.558,10.558,0,0,1,542.262,880.234Zm-.528-11.683a3.194,3.194,0,0,0-2.472,1.008,4.656,4.656,0,0,0-1.078,2.789H544.9a4.254,4.254,0,0,0-.82-2.813A2.88,2.88,0,0,0,541.734,868.551Zm13.711,11.683a5.509,5.509,0,0,1-4.324-1.711,7.1,7.1,0,0,1-1.523-4.863,7.294,7.294,0,0,1,1.547-4.98,5.607,5.607,0,0,1,4.429-1.758,8.771,8.771,0,0,1,1.852.2,6.1,6.1,0,0,1,1.453.469l-.6,1.652a8.757,8.757,0,0,0-1.406-.422,6.087,6.087,0,0,0-1.348-.175q-3.913,0-3.914,4.992a5.978,5.978,0,0,0,.949,3.633,3.341,3.341,0,0,0,2.836,1.265,8.648,8.648,0,0,0,3.293-.691v1.722A7.007,7.007,0,0,1,555.445,880.234Zm10.453-1.6a7.024,7.024,0,0,0,1-.07,7.368,7.368,0,0,0,.761-.164v1.488a3.487,3.487,0,0,1-.937.246,6.563,6.563,0,0,1-1.1.1q-3.726,0-3.726-3.925v-7.641h-1.84v-.938l1.84-.808.82-2.742h1.125v2.976h3.726v1.512h-3.726v7.559a2.6,2.6,0,0,0,.551,1.781A1.916,1.916,0,0,0,565.9,878.629Zm9.762,1.6a5.922,5.922,0,0,1-4.5-1.734,6.727,6.727,0,0,1-1.64-4.816,7.463,7.463,0,0,1,1.523-4.934,5.1,5.1,0,0,1,4.113-1.828,4.835,4.835,0,0,1,3.821,1.594,6.064,6.064,0,0,1,1.406,4.183v1.231h-8.848a5.106,5.106,0,0,0,1.137,3.433,3.967,3.967,0,0,0,3.058,1.172,10.351,10.351,0,0,0,4.1-.867V879.4a9.93,9.93,0,0,1-1.957.633A10.552,10.552,0,0,1,575.66,880.234Zm-.527-11.683a3.2,3.2,0,0,0-2.473,1.008,4.663,4.663,0,0,0-1.078,2.789H578.3a4.259,4.259,0,0,0-.82-2.813A2.881,2.881,0,0,0,575.133,868.551Zm17.32,9.726h-.1a4.572,4.572,0,0,1-4.032,1.957,4.785,4.785,0,0,1-3.925-1.722,7.607,7.607,0,0,1-1.4-4.9,7.713,7.713,0,0,1,1.406-4.933,4.734,4.734,0,0,1,3.914-1.758,4.67,4.67,0,0,1,4.008,1.9h.153l-.082-.925-.047-.9v-5.226h1.945V880h-1.582Zm-3.891.328a3.531,3.531,0,0,0,2.883-1.078,5.472,5.472,0,0,0,.9-3.5v-.41a6.385,6.385,0,0,0-.914-3.89,3.423,3.423,0,0,0-2.9-1.172,2.986,2.986,0,0,0-2.625,1.336,6.615,6.615,0,0,0-.9,3.75,6.339,6.339,0,0,0,.9,3.715A3.055,3.055,0,0,0,588.562,878.6Zm26.59,1.4-2.355-7.535q-.223-.691-.832-3.141h-.094q-.468,2.051-.82,3.164L608.625,880h-2.25l-3.5-12.844h2.039q1.242,4.84,1.887,7.371a29.684,29.684,0,0,1,.75,3.411h.094q.129-.669.41-1.723t.5-1.688l2.355-7.371h2.11l2.3,7.371a24.776,24.776,0,0,1,.891,3.387h.094a12.971,12.971,0,0,1,.246-1.3q.211-.879,2.449-9.457h2.016L617.461,880Zm10.137,0h-1.945V867.156h1.945Zm-2.109-16.324a1.27,1.27,0,0,1,.328-.973,1.134,1.134,0,0,1,.82-.316,1.147,1.147,0,0,1,.809.316,1.271,1.271,0,0,1,.34.973,1.311,1.311,0,0,1-.34.984,1.147,1.147,0,0,1-.809.317,1.135,1.135,0,0,1-.82-.317A1.336,1.336,0,0,1,623.18,863.676Zm10.382,14.953a7.024,7.024,0,0,0,1-.07,7.368,7.368,0,0,0,.761-.164v1.488a3.487,3.487,0,0,1-.937.246,6.554,6.554,0,0,1-1.1.1q-3.726,0-3.726-3.925v-7.641h-1.84v-.938l1.84-.808.82-2.742H631.5v2.976h3.727v1.512H631.5v7.559a2.6,2.6,0,0,0,.551,1.781A1.916,1.916,0,0,0,633.562,878.629ZM646.688,880v-8.309a3.353,3.353,0,0,0-.715-2.343,2.913,2.913,0,0,0-2.239-.774,3.683,3.683,0,0,0-2.964,1.1,5.6,5.6,0,0,0-.926,3.609V880H637.9V861.766h1.946v5.519a12.116,12.116,0,0,1-.094,1.653h.117a3.938,3.938,0,0,1,1.629-1.454,5.309,5.309,0,0,1,2.426-.539,4.916,4.916,0,0,1,3.527,1.125,4.679,4.679,0,0,1,1.184,3.551V880Zm18.164.234a5.655,5.655,0,0,1-2.3-.457,4.364,4.364,0,0,1-1.735-1.429h-.14a17.364,17.364,0,0,1,.14,2.132v5.286h-1.945v-18.61h1.582l.27,1.758h.093a4.514,4.514,0,0,1,1.746-1.523,5.3,5.3,0,0,1,2.286-.469,4.73,4.73,0,0,1,3.937,1.746,9.273,9.273,0,0,1-.023,9.82A4.747,4.747,0,0,1,664.852,880.234Zm-.282-11.66a3.448,3.448,0,0,0-2.847,1.09,5.611,5.611,0,0,0-.9,3.469v.433a6.451,6.451,0,0,0,.9,3.879,3.437,3.437,0,0,0,2.894,1.16,3,3,0,0,0,2.6-1.347,6.361,6.361,0,0,0,.949-3.715,6.1,6.1,0,0,0-.949-3.68A3.084,3.084,0,0,0,664.57,868.574Zm20.11,4.992a7.114,7.114,0,0,1-1.582,4.911,5.584,5.584,0,0,1-4.371,1.757,5.79,5.79,0,0,1-3.059-.808A5.34,5.34,0,0,1,673.6,877.1a8.087,8.087,0,0,1-.726-3.539,7.05,7.05,0,0,1,1.57-4.886,5.545,5.545,0,0,1,4.36-1.758,5.417,5.417,0,0,1,4.277,1.793A7.038,7.038,0,0,1,684.68,873.566Zm-9.785,0a6.1,6.1,0,0,0,.984,3.75,3.907,3.907,0,0,0,5.789.012,6.065,6.065,0,0,0,1-3.762,5.914,5.914,0,0,0-1-3.714,3.956,3.956,0,0,0-5.8-.024A6.037,6.037,0,0,0,674.9,873.566Zm17.355,5.063a7,7,0,0,0,1-.07,7.456,7.456,0,0,0,.762-.164v1.488a3.5,3.5,0,0,1-.938.246,6.543,6.543,0,0,1-1.1.1q-3.727,0-3.727-3.925v-7.641H686.4v-.938l1.84-.808.82-2.742h1.126v2.976h3.726v1.512h-3.726v7.559a2.6,2.6,0,0,0,.55,1.781A1.917,1.917,0,0,0,692.25,878.629Zm9.762,1.6a5.919,5.919,0,0,1-4.5-1.734,6.728,6.728,0,0,1-1.641-4.816,7.464,7.464,0,0,1,1.524-4.934,5.1,5.1,0,0,1,4.113-1.828,4.833,4.833,0,0,1,3.82,1.594,6.059,6.059,0,0,1,1.406,4.183v1.231h-8.847a5.111,5.111,0,0,0,1.136,3.433,3.97,3.97,0,0,0,3.059,1.172,10.351,10.351,0,0,0,4.1-.867V879.4a9.954,9.954,0,0,1-1.957.633A10.558,10.558,0,0,1,702.012,880.234Zm-.528-11.683a3.194,3.194,0,0,0-2.472,1.008,4.656,4.656,0,0,0-1.078,2.789h6.714a4.254,4.254,0,0,0-.82-2.813A2.88,2.88,0,0,0,701.484,868.551ZM718.852,880v-8.309a3.353,3.353,0,0,0-.715-2.343,2.913,2.913,0,0,0-2.239-.774,3.694,3.694,0,0,0-2.953,1.09,5.5,5.5,0,0,0-.937,3.6V880h-1.946V867.156h1.583l.316,1.758h.094a3.935,3.935,0,0,1,1.675-1.465,5.405,5.405,0,0,1,2.4-.527,4.861,4.861,0,0,1,3.492,1.125,4.742,4.742,0,0,1,1.172,3.574V880Zm10.1-1.371a7,7,0,0,0,1-.07,7.394,7.394,0,0,0,.762-.164v1.488a3.486,3.486,0,0,1-.938.246,6.543,6.543,0,0,1-1.1.1q-3.726,0-3.727-3.925v-7.641H723.1v-.938l1.84-.808.821-2.742h1.125v2.976h3.726v1.512h-3.726v7.559a2.6,2.6,0,0,0,.55,1.781A1.918,1.918,0,0,0,728.953,878.629ZM735.234,880h-1.945V867.156h1.945Zm-2.109-16.324a1.27,1.27,0,0,1,.328-.973,1.134,1.134,0,0,1,.82-.316,1.146,1.146,0,0,1,.809.316,1.267,1.267,0,0,1,.34.973,1.307,1.307,0,0,1-.34.984,1.147,1.147,0,0,1-.809.317,1.135,1.135,0,0,1-.82-.317A1.336,1.336,0,0,1,733.125,863.676ZM747.258,880l-.387-1.828h-.094a5.434,5.434,0,0,1-1.922,1.64,5.849,5.849,0,0,1-2.378.422,4.311,4.311,0,0,1-3-.984,3.6,3.6,0,0,1-1.079-2.8q0-3.891,6.223-4.078l2.18-.07v-.8a3.218,3.218,0,0,0-.656-2.227,2.647,2.647,0,0,0-2.075-.726,8.475,8.475,0,0,0-3.632.984l-.6-1.488a9.19,9.19,0,0,1,2.074-.809,9.1,9.1,0,0,1,2.274-.293,4.866,4.866,0,0,1,3.4,1.02,4.242,4.242,0,0,1,1.113,3.269V880Zm-4.4-1.371a3.929,3.929,0,0,0,2.848-1,3.675,3.675,0,0,0,1.043-2.789v-1.16l-1.945.082a7.05,7.05,0,0,0-3.352.726,2.162,2.162,0,0,0-1.019,1.981,2.011,2.011,0,0,0,.632,1.6A2.677,2.677,0,0,0,742.863,878.629Zm11.8,1.371h-1.945V861.766h1.945Zm15.492.234a5.508,5.508,0,0,1-4.324-1.711,7.1,7.1,0,0,1-1.523-4.863,7.3,7.3,0,0,1,1.546-4.98,5.611,5.611,0,0,1,4.43-1.758,8.771,8.771,0,0,1,1.852.2,6.1,6.1,0,0,1,1.453.469l-.6,1.652a8.787,8.787,0,0,0-1.406-.422,6.087,6.087,0,0,0-1.348-.175q-3.913,0-3.914,4.992a5.978,5.978,0,0,0,.949,3.633,3.341,3.341,0,0,0,2.836,1.265,8.648,8.648,0,0,0,3.293-.691v1.722A7.006,7.006,0,0,1,770.156,880.234Zm8.133-13.078v8.332a3.351,3.351,0,0,0,.715,2.344,2.91,2.91,0,0,0,2.238.773,3.637,3.637,0,0,0,2.942-1.1,5.532,5.532,0,0,0,.937-3.6v-6.75h1.945V880h-1.6l-.281-1.723h-.106a3.86,3.86,0,0,1-1.664,1.453,5.534,5.534,0,0,1-2.414.5,4.936,4.936,0,0,1-3.516-1.113,4.755,4.755,0,0,1-1.16-3.562v-8.4Zm21.2,9.34a3.218,3.218,0,0,1-1.336,2.766,6.28,6.28,0,0,1-3.75.972,8.153,8.153,0,0,1-3.984-.808v-1.805a9.59,9.59,0,0,0,1.98.738,8.354,8.354,0,0,0,2.051.27,4.677,4.677,0,0,0,2.344-.481,1.621,1.621,0,0,0,.82-1.488,1.585,1.585,0,0,0-.656-1.277,9.915,9.915,0,0,0-2.531-1.266,14.311,14.311,0,0,1-2.555-1.16,3.615,3.615,0,0,1-1.125-1.137,2.987,2.987,0,0,1-.363-1.511,2.869,2.869,0,0,1,1.277-2.473,5.928,5.928,0,0,1,3.5-.914,10.247,10.247,0,0,1,4.055.844l-.692,1.582a9.292,9.292,0,0,0-3.5-.8,4.029,4.029,0,0,0-2.085.433,1.342,1.342,0,0,0-.7,1.2,1.482,1.482,0,0,0,.258.879,2.682,2.682,0,0,0,.856.691,18.843,18.843,0,0,0,2.25.949,8.343,8.343,0,0,1,3.082,1.676A2.945,2.945,0,0,1,799.488,876.5Zm7.324,2.133a7.024,7.024,0,0,0,1-.07,7.368,7.368,0,0,0,.761-.164v1.488a3.487,3.487,0,0,1-.937.246,6.554,6.554,0,0,1-1.1.1q-3.726,0-3.726-3.925v-7.641h-1.84v-.938l1.84-.808.82-2.742h1.125v2.976h3.727v1.512H804.75v7.559a2.6,2.6,0,0,0,.551,1.781A1.916,1.916,0,0,0,806.812,878.629Zm15.422-5.063a7.109,7.109,0,0,1-1.582,4.911,5.581,5.581,0,0,1-4.371,1.757,5.787,5.787,0,0,1-3.058-.808,5.34,5.34,0,0,1-2.063-2.321,8.088,8.088,0,0,1-.726-3.539A7.05,7.05,0,0,1,812,868.68a5.544,5.544,0,0,1,4.359-1.758,5.418,5.418,0,0,1,4.278,1.793A7.038,7.038,0,0,1,822.234,873.566Zm-9.785,0a6.09,6.09,0,0,0,.985,3.75,3.907,3.907,0,0,0,5.789.012,6.065,6.065,0,0,0,1-3.762,5.913,5.913,0,0,0-1-3.714,3.956,3.956,0,0,0-5.8-.024A6.03,6.03,0,0,0,812.449,873.566ZM842.027,880v-8.355a3.439,3.439,0,0,0-.656-2.3,2.526,2.526,0,0,0-2.039-.774,3.3,3.3,0,0,0-2.684,1.043,4.958,4.958,0,0,0-.867,3.211V880h-1.945v-8.355a3.444,3.444,0,0,0-.656-2.3,2.543,2.543,0,0,0-2.051-.774,3.185,3.185,0,0,0-2.684,1.1,5.937,5.937,0,0,0-.843,3.586V880h-1.946V867.156h1.582l.317,1.758h.093a3.842,3.842,0,0,1,1.547-1.465,4.786,4.786,0,0,1,2.25-.527q3.012,0,3.938,2.18h.094a4.084,4.084,0,0,1,1.664-1.594,5.155,5.155,0,0,1,2.484-.586,4.316,4.316,0,0,1,3.258,1.125,4.968,4.968,0,0,1,1.09,3.574V880Zm11.391.234a5.922,5.922,0,0,1-4.5-1.734,6.727,6.727,0,0,1-1.641-4.816,7.464,7.464,0,0,1,1.524-4.934,5.1,5.1,0,0,1,4.113-1.828,4.833,4.833,0,0,1,3.82,1.594,6.06,6.06,0,0,1,1.407,4.183v1.231h-8.848a5.105,5.105,0,0,0,1.137,3.433,3.967,3.967,0,0,0,3.058,1.172,10.351,10.351,0,0,0,4.1-.867V879.4a9.954,9.954,0,0,1-1.957.633A10.558,10.558,0,0,1,853.418,880.234Zm-.527-11.683a3.194,3.194,0,0,0-2.473,1.008,4.662,4.662,0,0,0-1.078,2.789h6.715a4.254,4.254,0,0,0-.821-2.813A2.878,2.878,0,0,0,852.891,868.551Zm14.437-1.629a7.667,7.667,0,0,1,1.535.14l-.269,1.8a6.646,6.646,0,0,0-1.406-.176,3.438,3.438,0,0,0-2.672,1.266,4.628,4.628,0,0,0-1.1,3.152V880h-1.945V867.156h1.6l.223,2.379h.094a5.634,5.634,0,0,1,1.722-1.933A3.872,3.872,0,0,1,867.328,866.922Zm12.223,9.574a3.221,3.221,0,0,1-1.336,2.766,6.285,6.285,0,0,1-3.75.972,8.161,8.161,0,0,1-3.985-.808v-1.805a9.623,9.623,0,0,0,1.981.738,8.348,8.348,0,0,0,2.051.27,4.673,4.673,0,0,0,2.343-.481,1.621,1.621,0,0,0,.821-1.488,1.588,1.588,0,0,0-.656-1.277,9.927,9.927,0,0,0-2.532-1.266,14.292,14.292,0,0,1-2.554-1.16,3.615,3.615,0,0,1-1.125-1.137,2.976,2.976,0,0,1-.364-1.511,2.867,2.867,0,0,1,1.278-2.473,5.923,5.923,0,0,1,3.5-.914,10.243,10.243,0,0,1,4.054.844l-.691,1.582a9.292,9.292,0,0,0-3.5-.8,4.033,4.033,0,0,0-2.086.433,1.341,1.341,0,0,0-.7,1.2,1.482,1.482,0,0,0,.258.879,2.678,2.678,0,0,0,.855.691,19.01,19.01,0,0,0,2.25.949,8.325,8.325,0,0,1,3.082,1.676A2.945,2.945,0,0,1,879.551,876.5Zm13.558,2.133a7,7,0,0,0,1-.07,7.336,7.336,0,0,0,.762-.164v1.488a3.487,3.487,0,0,1-.937.246,6.563,6.563,0,0,1-1.1.1q-3.726,0-3.726-3.925v-7.641h-1.84v-.938l1.84-.808.82-2.742h1.125v2.976h3.726v1.512h-3.726v7.559a2.6,2.6,0,0,0,.551,1.781A1.916,1.916,0,0,0,893.109,878.629ZM906.234,880v-8.309a3.353,3.353,0,0,0-.714-2.343,2.913,2.913,0,0,0-2.239-.774,3.685,3.685,0,0,0-2.965,1.1,5.6,5.6,0,0,0-.925,3.609V880h-1.946V861.766h1.946v5.519a12.116,12.116,0,0,1-.094,1.653h.117a3.937,3.937,0,0,1,1.629-1.454,5.306,5.306,0,0,1,2.426-.539A4.916,4.916,0,0,1,907,868.07a4.679,4.679,0,0,1,1.184,3.551V880Zm11.813-13.078a7.667,7.667,0,0,1,1.535.14l-.27,1.8a6.638,6.638,0,0,0-1.406-.176,3.441,3.441,0,0,0-2.672,1.266,4.632,4.632,0,0,0-1.1,3.152V880h-1.945V867.156h1.605l.223,2.379h.093a5.646,5.646,0,0,1,1.723-1.933A3.872,3.872,0,0,1,918.047,866.922Zm15.023,6.644a7.109,7.109,0,0,1-1.582,4.911,5.581,5.581,0,0,1-4.371,1.757,5.787,5.787,0,0,1-3.058-.808A5.334,5.334,0,0,1,922,877.1a8.088,8.088,0,0,1-.726-3.539,7.05,7.05,0,0,1,1.57-4.886,5.544,5.544,0,0,1,4.359-1.758,5.418,5.418,0,0,1,4.278,1.793A7.038,7.038,0,0,1,933.07,873.566Zm-9.785,0a6.09,6.09,0,0,0,.985,3.75,3.907,3.907,0,0,0,5.789.012,6.065,6.065,0,0,0,1-3.762,5.913,5.913,0,0,0-1-3.714,3.956,3.956,0,0,0-5.8-.024A6.03,6.03,0,0,0,923.285,873.566Zm15.035-6.41v8.332a3.356,3.356,0,0,0,.715,2.344,2.911,2.911,0,0,0,2.238.773,3.635,3.635,0,0,0,2.942-1.1,5.532,5.532,0,0,0,.937-3.6v-6.75H947.1V880h-1.606l-.281-1.723H945.1a3.86,3.86,0,0,1-1.664,1.453,5.531,5.531,0,0,1-2.414.5,4.931,4.931,0,0,1-3.515-1.113,4.751,4.751,0,0,1-1.16-3.562v-8.4Zm23.426,0v1.231l-2.379.281a4.214,4.214,0,0,1,.844,2.566,3.8,3.8,0,0,1-1.289,3.012,5.2,5.2,0,0,1-3.539,1.125,5.843,5.843,0,0,1-1.078-.094,1.917,1.917,0,0,0-1.243,1.653.853.853,0,0,0,.434.785,3.234,3.234,0,0,0,1.488.246h2.274a5.065,5.065,0,0,1,3.2.879,3.047,3.047,0,0,1,1.125,2.555,3.634,3.634,0,0,1-1.711,3.246,9.12,9.12,0,0,1-4.992,1.125,6.85,6.85,0,0,1-3.891-.938,3.031,3.031,0,0,1-1.359-2.648,2.976,2.976,0,0,1,.75-2.028,3.819,3.819,0,0,1,2.109-1.16,2.08,2.08,0,0,1-.832-.691,1.86,1.86,0,0,1-.328-1.09,2.07,2.07,0,0,1,.375-1.231,3.952,3.952,0,0,1,1.184-1.019,3.5,3.5,0,0,1-1.629-1.4,4.628,4.628,0,0,1,.644-5.5,5.153,5.153,0,0,1,3.586-1.148,6.534,6.534,0,0,1,1.817.234Zm-10.242,15a1.742,1.742,0,0,0,.879,1.582,4.844,4.844,0,0,0,2.519.539,6.951,6.951,0,0,0,3.621-.738,2.227,2.227,0,0,0,1.184-1.98,1.588,1.588,0,0,0-.645-1.454,5.076,5.076,0,0,0-2.425-.4H954.3a3.072,3.072,0,0,0-2.063.633A2.261,2.261,0,0,0,951.5,882.156Zm1.055-10.886a2.615,2.615,0,0,0,.761,2.039,3.041,3.041,0,0,0,2.121.691q2.849,0,2.848-2.766a2.553,2.553,0,0,0-2.883-2.894,2.854,2.854,0,0,0-2.109.738A2.975,2.975,0,0,0,952.559,871.27ZM973.172,880v-8.309a3.348,3.348,0,0,0-.715-2.343,2.912,2.912,0,0,0-2.238-.774,3.684,3.684,0,0,0-2.965,1.1,5.6,5.6,0,0,0-.926,3.609V880h-1.945V861.766h1.945v5.519a11.96,11.96,0,0,1-.094,1.653h.118a3.928,3.928,0,0,1,1.628-1.454,5.309,5.309,0,0,1,2.426-.539,4.919,4.919,0,0,1,3.528,1.125,4.679,4.679,0,0,1,1.183,3.551V880Zm19.676-14.988a5.229,5.229,0,0,0-2.2.445,4.429,4.429,0,0,0-1.629,1.289,5.813,5.813,0,0,0-1.02,2.027,10.584,10.584,0,0,0,.211,6.106,4.6,4.6,0,0,0,1.711,2.2,5.151,5.151,0,0,0,2.906.762,10.6,10.6,0,0,0,2.121-.211,19.008,19.008,0,0,0,2.133-.574v2.39a10.868,10.868,0,0,1-2.109.6,14.346,14.346,0,0,1-2.461.187,8.063,8.063,0,0,1-4.36-1.089,6.658,6.658,0,0,1-2.578-3.071,11.778,11.778,0,0,1-.843-4.64,11.2,11.2,0,0,1,.539-3.563,7.975,7.975,0,0,1,1.57-2.789,6.8,6.8,0,0,1,2.543-1.816,8.858,8.858,0,0,1,3.48-.645,11.014,11.014,0,0,1,2.532.293,10.3,10.3,0,0,1,2.32.809l-.984,2.32a14.566,14.566,0,0,0-1.864-.727A6.7,6.7,0,0,0,992.848,865.012Zm10.382-3.246v4.582c0,.476-.02.941-.05,1.394s-.05.8-.08,1.055h.15a3.818,3.818,0,0,1,1.01-1.113,4.339,4.339,0,0,1,1.34-.668,5.54,5.54,0,0,1,1.59-.223,5.763,5.763,0,0,1,2.53.5,3.415,3.415,0,0,1,1.6,1.535,5.748,5.748,0,0,1,.56,2.707V880h-2.76v-7.945a3.454,3.454,0,0,0-.62-2.262,2.321,2.321,0,0,0-1.92-.762,3.362,3.362,0,0,0-1.99.528,2.848,2.848,0,0,0-1.04,1.535,8.321,8.321,0,0,0-.32,2.461V880h-2.75V861.766Zm17.59,5.015a5.547,5.547,0,0,1,3.72,1.09,4.259,4.259,0,0,1,1.26,3.4V880h-1.96l-.52-1.84h-.1a6.411,6.411,0,0,1-1.13,1.16,4.006,4.006,0,0,1-1.36.68,6.447,6.447,0,0,1-1.87.234,4.878,4.878,0,0,1-2.07-.422,3.28,3.28,0,0,1-1.44-1.312,4.286,4.286,0,0,1-.53-2.227,3.4,3.4,0,0,1,1.49-3.011,8.755,8.755,0,0,1,4.52-1.114l2.25-.082v-.679a2.142,2.142,0,0,0-2.39-2.5,6.38,6.38,0,0,0-1.89.281,13.927,13.927,0,0,0-1.78.691l-.89-1.945a10.227,10.227,0,0,1,4.69-1.137Zm2.25,7.02-1.68.058a5.234,5.234,0,0,0-2.89.7,2.071,2.071,0,0,0-.83,1.735,1.673,1.673,0,0,0,.57,1.406,2.444,2.444,0,0,0,1.51.434,3.482,3.482,0,0,0,2.37-.809,3.012,3.012,0,0,0,.95-2.4Zm11.41,4.207a6.058,6.058,0,0,0,1.07-.094,8.583,8.583,0,0,0,.96-.246v2.086a5.717,5.717,0,0,1-1.18.34,7.972,7.972,0,0,1-1.51.14,5.1,5.1,0,0,1-1.98-.363,2.921,2.921,0,0,1-1.4-1.277,5.105,5.105,0,0,1-.51-2.5v-6.973h-1.77V867.9l1.89-.973.91-2.777h1.73v2.882h3.72v2.1h-3.72v6.937a2,2,0,0,0,.49,1.465A1.8,1.8,0,0,0,1034.48,878.008Zm4.27.539a1.615,1.615,0,0,1,.49-1.348,2.069,2.069,0,0,1,2.44,0,1.594,1.594,0,0,1,.52,1.348,1.67,1.67,0,0,1-.52,1.359,2.02,2.02,0,0,1-2.44,0A1.691,1.691,0,0,1,1038.75,878.547Z" fill="#7f8699"/>
    <path id="Path_31" data-name="Path 31" d="M328,837a46.06,46.06,0,0,1,17.435,3.337A37.21,37.21,0,0,1,361.17,851.95,27.206,27.206,0,0,1,367,868.512c.016,4.893-1.721,14.088-11.184,21.015l5.354,13.214-15.735-6.053a47.081,47.081,0,0,1-37.933-1.374A35.207,35.207,0,0,1,293.13,882.6,26.325,26.325,0,0,1,289,868.512v-1.853c.528-7.728,4.564-15.026,11.337-20.5A43.63,43.63,0,0,1,325.706,837Z" fill="none" stroke="#f9560f" stroke-linecap="round" stroke-linejoin="round" stroke-width="3"/>
    <path id="Path_32" data-name="Path 32" d="M438.023,599.441a4.2,4.2,0,0,1-1.64,3.528,7.118,7.118,0,0,1-4.453,1.265,11.145,11.145,0,0,1-4.688-.785v-1.922a12.265,12.265,0,0,0,2.3.7,12.08,12.08,0,0,0,2.461.258,5,5,0,0,0,3-.75,2.5,2.5,0,0,0,1.008-2.109,2.636,2.636,0,0,0-.363-1.453,3.23,3.23,0,0,0-1.2-1.055,16.493,16.493,0,0,0-2.543-1.09A8.19,8.19,0,0,1,428.484,594a4.5,4.5,0,0,1-1.019-3.059,3.8,3.8,0,0,1,1.488-3.152,6.187,6.187,0,0,1,3.938-1.172,11.6,11.6,0,0,1,4.7.938l-.621,1.734a10.615,10.615,0,0,0-4.125-.891,3.994,3.994,0,0,0-2.473.68,2.24,2.24,0,0,0-.891,1.887,2.925,2.925,0,0,0,.329,1.465,3.171,3.171,0,0,0,1.1,1.043,14.45,14.45,0,0,0,2.391,1.043,9.376,9.376,0,0,1,3.7,2.062A4.041,4.041,0,0,1,438.023,599.441Zm12,4.559v-8.309a3.353,3.353,0,0,0-.714-2.343,2.913,2.913,0,0,0-2.239-.774,3.685,3.685,0,0,0-2.965,1.1,5.6,5.6,0,0,0-.925,3.609V604h-1.946V585.766h1.946v5.519a12.116,12.116,0,0,1-.094,1.653h.117a3.937,3.937,0,0,1,1.629-1.454,5.309,5.309,0,0,1,2.426-.539,4.916,4.916,0,0,1,3.527,1.125,4.679,4.679,0,0,1,1.184,3.551V604Zm13.852,0-.387-1.828h-.093a5.451,5.451,0,0,1-1.922,1.64,5.858,5.858,0,0,1-2.379.422,4.311,4.311,0,0,1-3-.984,3.6,3.6,0,0,1-1.078-2.8q0-3.891,6.222-4.078l2.18-.07v-.8a3.217,3.217,0,0,0-.656-2.227,2.644,2.644,0,0,0-2.074-.726,8.475,8.475,0,0,0-3.633.984l-.6-1.488a9.19,9.19,0,0,1,2.074-.809,9.1,9.1,0,0,1,2.274-.293,4.866,4.866,0,0,1,3.4,1.02,4.242,4.242,0,0,1,1.113,3.269V604Zm-4.395-1.371a3.928,3.928,0,0,0,2.848-1,3.675,3.675,0,0,0,1.043-2.789v-1.16l-1.945.082a7.05,7.05,0,0,0-3.352.726,2.164,2.164,0,0,0-1.019,1.981,2.012,2.012,0,0,0,.633,1.6A2.673,2.673,0,0,0,459.48,602.629ZM475.2,590.922a7.661,7.661,0,0,1,1.535.14l-.269,1.8a6.638,6.638,0,0,0-1.406-.176,3.44,3.44,0,0,0-2.672,1.266,4.628,4.628,0,0,0-1.1,3.152V604h-1.945V591.156h1.605l.223,2.379h.094a5.644,5.644,0,0,1,1.722-1.933A3.874,3.874,0,0,1,475.2,590.922Zm9.364,13.312a5.919,5.919,0,0,1-4.5-1.734,6.728,6.728,0,0,1-1.641-4.816,7.469,7.469,0,0,1,1.523-4.934,5.1,5.1,0,0,1,4.114-1.828,4.833,4.833,0,0,1,3.82,1.594,6.064,6.064,0,0,1,1.406,4.183v1.231h-8.847a5.111,5.111,0,0,0,1.136,3.433,3.969,3.969,0,0,0,3.059,1.172,10.343,10.343,0,0,0,4.1-.867V603.4a9.911,9.911,0,0,1-1.957.633A10.542,10.542,0,0,1,484.559,604.234Zm-.528-11.683a3.194,3.194,0,0,0-2.472,1.008,4.663,4.663,0,0,0-1.079,2.789H487.2a4.254,4.254,0,0,0-.82-2.813A2.88,2.88,0,0,0,484.031,592.551Zm20.789,11.683a5.659,5.659,0,0,1-2.3-.457,4.368,4.368,0,0,1-1.734-1.429h-.141a17.181,17.181,0,0,1,.141,2.132v5.286h-1.945v-18.61h1.582l.269,1.758h.094a4.514,4.514,0,0,1,1.746-1.523,5.3,5.3,0,0,1,2.285-.469,4.732,4.732,0,0,1,3.938,1.746,9.276,9.276,0,0,1-.024,9.82A4.745,4.745,0,0,1,504.82,604.234Zm-.281-11.66a3.451,3.451,0,0,0-2.848,1.09,5.612,5.612,0,0,0-.9,3.469v.433a6.46,6.46,0,0,0,.9,3.879,3.44,3.44,0,0,0,2.895,1.16,3,3,0,0,0,2.6-1.347,6.368,6.368,0,0,0,.949-3.715,6.1,6.1,0,0,0-.949-3.68A3.085,3.085,0,0,0,504.539,592.574ZM522.352,604v-8.309a3.353,3.353,0,0,0-.715-2.343,2.913,2.913,0,0,0-2.239-.774,3.683,3.683,0,0,0-2.964,1.1,5.6,5.6,0,0,0-.926,3.609V604h-1.946V585.766h1.946v5.519a11.96,11.96,0,0,1-.094,1.653h.117a3.937,3.937,0,0,1,1.629-1.454,5.309,5.309,0,0,1,2.426-.539,4.916,4.916,0,0,1,3.527,1.125,4.679,4.679,0,0,1,1.184,3.551V604Zm17.039-6.434a7.114,7.114,0,0,1-1.582,4.911,5.584,5.584,0,0,1-4.371,1.757,5.79,5.79,0,0,1-3.059-.808,5.34,5.34,0,0,1-2.063-2.321,8.087,8.087,0,0,1-.726-3.539,7.05,7.05,0,0,1,1.57-4.886,5.545,5.545,0,0,1,4.36-1.758,5.417,5.417,0,0,1,4.277,1.793A7.038,7.038,0,0,1,539.391,597.566Zm-9.786,0a6.1,6.1,0,0,0,.985,3.75,3.907,3.907,0,0,0,5.789.012,6.065,6.065,0,0,0,1-3.762,5.913,5.913,0,0,0-1-3.714,3.956,3.956,0,0,0-5.8-.024A6.037,6.037,0,0,0,529.6,597.566Zm17.356,5.063a7,7,0,0,0,1-.07,7.456,7.456,0,0,0,.762-.164v1.488a3.5,3.5,0,0,1-.938.246,6.543,6.543,0,0,1-1.1.1q-3.727,0-3.727-3.925v-7.641h-1.84v-.938l1.84-.808.82-2.742H544.9v2.976h3.727v1.512H544.9v7.559a2.6,2.6,0,0,0,.551,1.781A1.917,1.917,0,0,0,546.961,602.629Zm15.422-5.063a7.114,7.114,0,0,1-1.582,4.911,5.584,5.584,0,0,1-4.371,1.757,5.791,5.791,0,0,1-3.059-.808,5.332,5.332,0,0,1-2.062-2.321,8.073,8.073,0,0,1-.727-3.539,7.05,7.05,0,0,1,1.57-4.886,5.545,5.545,0,0,1,4.36-1.758,5.416,5.416,0,0,1,4.277,1.793A7.034,7.034,0,0,1,562.383,597.566Zm-9.785,0a6.1,6.1,0,0,0,.984,3.75,3.907,3.907,0,0,0,5.789.012,6.065,6.065,0,0,0,1-3.762,5.913,5.913,0,0,0-1-3.714,3.956,3.956,0,0,0-5.8-.024A6.037,6.037,0,0,0,552.6,597.566Zm21.492,2.93a3.218,3.218,0,0,1-1.336,2.766,6.285,6.285,0,0,1-3.75.972,8.154,8.154,0,0,1-3.984-.808v-1.805a9.591,9.591,0,0,0,1.98.738,8.354,8.354,0,0,0,2.051.27,4.68,4.68,0,0,0,2.344-.481,1.623,1.623,0,0,0,.82-1.488,1.588,1.588,0,0,0-.656-1.277,9.927,9.927,0,0,0-2.532-1.266,14.29,14.29,0,0,1-2.554-1.16,3.615,3.615,0,0,1-1.125-1.137,2.976,2.976,0,0,1-.364-1.511,2.867,2.867,0,0,1,1.278-2.473,5.923,5.923,0,0,1,3.5-.914,10.243,10.243,0,0,1,4.054.844l-.691,1.582a9.292,9.292,0,0,0-3.5-.8,4.033,4.033,0,0,0-2.086.433,1.341,1.341,0,0,0-.7,1.2,1.482,1.482,0,0,0,.258.879,2.678,2.678,0,0,0,.855.691,19.01,19.01,0,0,0,2.25.949,8.325,8.325,0,0,1,3.082,1.676A2.945,2.945,0,0,1,574.09,600.5Zm9.68-13.629L577.383,604h-1.945l6.386-17.133ZM588.891,604l-4.875-12.844H586.1l2.765,7.617a36.379,36.379,0,0,1,1.1,3.469h.093a26.57,26.57,0,0,1,.809-2.566q.691-1.958,3.082-8.52h2.086L591.164,604Zm11.156,0H598.1V591.156h1.945Zm-2.109-16.324a1.27,1.27,0,0,1,.328-.973,1.133,1.133,0,0,1,.82-.316,1.148,1.148,0,0,1,.809.316,1.271,1.271,0,0,1,.339.973,1.311,1.311,0,0,1-.339.984,1.149,1.149,0,0,1-.809.317,1.133,1.133,0,0,1-.82-.317A1.336,1.336,0,0,1,597.938,587.676Zm14.976,14.6h-.1a4.572,4.572,0,0,1-4.032,1.957,4.785,4.785,0,0,1-3.925-1.722,7.607,7.607,0,0,1-1.4-4.9,7.713,7.713,0,0,1,1.406-4.933,4.732,4.732,0,0,1,3.914-1.758,4.671,4.671,0,0,1,4.008,1.9h.153l-.083-.925-.046-.9v-5.226h1.945V604h-1.582Zm-3.891.328a3.532,3.532,0,0,0,2.883-1.078,5.472,5.472,0,0,0,.9-3.5v-.41a6.385,6.385,0,0,0-.914-3.89,3.423,3.423,0,0,0-2.9-1.172,2.986,2.986,0,0,0-2.625,1.336,6.615,6.615,0,0,0-.9,3.75,6.339,6.339,0,0,0,.9,3.715A3.055,3.055,0,0,0,609.023,602.6Zm15.293,1.629a5.922,5.922,0,0,1-4.5-1.734,6.732,6.732,0,0,1-1.64-4.816,7.469,7.469,0,0,1,1.523-4.934,5.1,5.1,0,0,1,4.113-1.828,4.835,4.835,0,0,1,3.821,1.594,6.064,6.064,0,0,1,1.406,4.183v1.231h-8.848a5.106,5.106,0,0,0,1.137,3.433,3.969,3.969,0,0,0,3.059,1.172,10.342,10.342,0,0,0,4.1-.867V603.4a9.93,9.93,0,0,1-1.957.633A10.545,10.545,0,0,1,624.316,604.234Zm-.527-11.683a3.2,3.2,0,0,0-2.473,1.008,4.669,4.669,0,0,0-1.078,2.789h6.715a4.254,4.254,0,0,0-.82-2.813A2.88,2.88,0,0,0,623.789,592.551Zm19.664,5.015a7.109,7.109,0,0,1-1.582,4.911,5.584,5.584,0,0,1-4.371,1.757,5.793,5.793,0,0,1-3.059-.808,5.338,5.338,0,0,1-2.062-2.321,8.087,8.087,0,0,1-.727-3.539,7.051,7.051,0,0,1,1.571-4.886,5.544,5.544,0,0,1,4.359-1.758,5.415,5.415,0,0,1,4.277,1.793A7.034,7.034,0,0,1,643.453,597.566Zm-9.785,0a6.1,6.1,0,0,0,.984,3.75,3.907,3.907,0,0,0,5.789.012,6.065,6.065,0,0,0,1-3.762,5.913,5.913,0,0,0-1-3.714,3.955,3.955,0,0,0-5.8-.024A6.03,6.03,0,0,0,633.668,597.566Zm21.492,2.93a3.218,3.218,0,0,1-1.336,2.766,6.28,6.28,0,0,1-3.75.972,8.154,8.154,0,0,1-3.984-.808v-1.805a9.59,9.59,0,0,0,1.98.738,8.354,8.354,0,0,0,2.051.27,4.677,4.677,0,0,0,2.344-.481,1.621,1.621,0,0,0,.82-1.488,1.588,1.588,0,0,0-.656-1.277,9.936,9.936,0,0,0-2.531-1.266,14.308,14.308,0,0,1-2.555-1.16,3.615,3.615,0,0,1-1.125-1.137,2.986,2.986,0,0,1-.363-1.511,2.867,2.867,0,0,1,1.277-2.473,5.928,5.928,0,0,1,3.5-.914,10.247,10.247,0,0,1,4.055.844l-.692,1.582a9.292,9.292,0,0,0-3.5-.8,4.033,4.033,0,0,0-2.086.433,1.343,1.343,0,0,0-.7,1.2,1.482,1.482,0,0,0,.258.879,2.682,2.682,0,0,0,.856.691,18.843,18.843,0,0,0,2.25.949,8.343,8.343,0,0,1,3.082,1.676A2.945,2.945,0,0,1,655.16,600.5Zm20.5-2.93a7.109,7.109,0,0,1-1.582,4.911,5.583,5.583,0,0,1-4.371,1.757,5.787,5.787,0,0,1-3.058-.808,5.334,5.334,0,0,1-2.063-2.321,8.088,8.088,0,0,1-.727-3.539,7.051,7.051,0,0,1,1.571-4.886,5.544,5.544,0,0,1,4.359-1.758,5.415,5.415,0,0,1,4.277,1.793A7.034,7.034,0,0,1,675.656,597.566Zm-9.785,0a6.1,6.1,0,0,0,.984,3.75,3.908,3.908,0,0,0,5.79.012,6.065,6.065,0,0,0,1-3.762,5.913,5.913,0,0,0-1-3.714,3.956,3.956,0,0,0-5.8-.024A6.03,6.03,0,0,0,665.871,597.566Zm19-4.9H681.6V604h-1.946V592.668h-2.3v-.879l2.3-.7v-.715q0-4.734,4.137-4.734a8.492,8.492,0,0,1,2.391.41l-.5,1.558a6.442,6.442,0,0,0-1.922-.363,1.868,1.868,0,0,0-1.629.738,4.057,4.057,0,0,0-.527,2.344v.832h3.269Zm6.539-1.512h2.086l2.813,7.324a27.768,27.768,0,0,1,1.148,3.622h.094q.152-.6.633-2.04t3.187-8.906h2.086l-5.519,14.625a7.217,7.217,0,0,1-1.922,3.071,4.038,4.038,0,0,1-2.684.914,7.815,7.815,0,0,1-1.758-.2v-1.558a6.77,6.77,0,0,0,1.442.14,2.97,2.97,0,0,0,2.859-2.25l.715-1.828Zm25.219,6.41a7.109,7.109,0,0,1-1.582,4.911,5.584,5.584,0,0,1-4.371,1.757,5.791,5.791,0,0,1-3.059-.808,5.338,5.338,0,0,1-2.062-2.321,8.073,8.073,0,0,1-.727-3.539,7.051,7.051,0,0,1,1.571-4.886,5.542,5.542,0,0,1,4.359-1.758,5.415,5.415,0,0,1,4.277,1.793A7.034,7.034,0,0,1,716.625,597.566Zm-9.785,0a6.1,6.1,0,0,0,.984,3.75,3.907,3.907,0,0,0,5.789.012,6.065,6.065,0,0,0,1-3.762,5.913,5.913,0,0,0-1-3.714,3.956,3.956,0,0,0-5.8-.024A6.037,6.037,0,0,0,706.84,597.566Zm15.035-6.41v8.332a3.351,3.351,0,0,0,.715,2.344,2.908,2.908,0,0,0,2.238.773,3.637,3.637,0,0,0,2.942-1.1,5.532,5.532,0,0,0,.937-3.6v-6.75h1.945V604h-1.6l-.281-1.723h-.106A3.86,3.86,0,0,1,727,603.73a5.534,5.534,0,0,1-2.414.5,4.936,4.936,0,0,1-3.516-1.113,4.755,4.755,0,0,1-1.16-3.562v-8.4Zm18.773-.234a7.678,7.678,0,0,1,1.536.14l-.27,1.8a6.638,6.638,0,0,0-1.406-.176,3.44,3.44,0,0,0-2.672,1.266,4.633,4.633,0,0,0-1.1,3.152V604h-1.945V591.156H736.4l.222,2.379h.094a5.646,5.646,0,0,1,1.723-1.933A3.869,3.869,0,0,1,740.648,590.922ZM758.719,604l-.387-1.828h-.094a5.434,5.434,0,0,1-1.922,1.64,5.849,5.849,0,0,1-2.378.422,4.311,4.311,0,0,1-3-.984,3.6,3.6,0,0,1-1.079-2.8q0-3.891,6.223-4.078l2.18-.07v-.8a3.212,3.212,0,0,0-.657-2.227,2.643,2.643,0,0,0-2.074-.726,8.482,8.482,0,0,0-3.633.984l-.6-1.488a9.19,9.19,0,0,1,2.074-.809,9.1,9.1,0,0,1,2.273-.293,4.869,4.869,0,0,1,3.4,1.02,4.242,4.242,0,0,1,1.113,3.269V604Zm-4.4-1.371a3.929,3.929,0,0,0,2.848-1,3.675,3.675,0,0,0,1.043-2.789v-1.16l-1.945.082a7.047,7.047,0,0,0-3.352.726,2.163,2.163,0,0,0-1.02,1.981,2.012,2.012,0,0,0,.633,1.6A2.677,2.677,0,0,0,754.324,602.629Zm14.988,1.6a5.509,5.509,0,0,1-4.324-1.711,7.1,7.1,0,0,1-1.523-4.863,7.294,7.294,0,0,1,1.547-4.98,5.607,5.607,0,0,1,4.429-1.758,8.764,8.764,0,0,1,1.852.2,6.085,6.085,0,0,1,1.453.469l-.6,1.652a8.757,8.757,0,0,0-1.406-.422,6.086,6.086,0,0,0-1.347-.175q-3.915,0-3.915,4.992a5.972,5.972,0,0,0,.95,3.633,3.34,3.34,0,0,0,2.836,1.265,8.652,8.652,0,0,0,3.293-.691v1.722A7.014,7.014,0,0,1,769.312,604.234ZM784.406,604v-8.309a3.348,3.348,0,0,0-.715-2.343,2.909,2.909,0,0,0-2.238-.774,3.685,3.685,0,0,0-2.965,1.1,5.6,5.6,0,0,0-.926,3.609V604h-1.945V585.766h1.945v5.519a12.136,12.136,0,0,1-.093,1.653h.117a3.937,3.937,0,0,1,1.629-1.454,5.306,5.306,0,0,1,2.426-.539,4.916,4.916,0,0,1,3.527,1.125,4.679,4.679,0,0,1,1.184,3.551V604Zm7.9,0h-1.946V591.156H792.3Zm-2.11-16.324a1.274,1.274,0,0,1,.328-.973,1.208,1.208,0,0,1,1.629,0,1.267,1.267,0,0,1,.34.973,1.307,1.307,0,0,1-.34.984,1.2,1.2,0,0,1-1.629,0A1.34,1.34,0,0,1,790.2,587.676Zm11.66,16.558a5.922,5.922,0,0,1-4.5-1.734,6.732,6.732,0,0,1-1.64-4.816,7.469,7.469,0,0,1,1.523-4.934,5.1,5.1,0,0,1,4.114-1.828,4.834,4.834,0,0,1,3.82,1.594,6.064,6.064,0,0,1,1.406,4.183v1.231H797.73a5.111,5.111,0,0,0,1.137,3.433,3.969,3.969,0,0,0,3.059,1.172,10.342,10.342,0,0,0,4.1-.867V603.4a9.909,9.909,0,0,1-1.957.633A10.545,10.545,0,0,1,801.855,604.234Zm-.527-11.683a3.2,3.2,0,0,0-2.473,1.008,4.669,4.669,0,0,0-1.078,2.789h6.715a4.254,4.254,0,0,0-.82-2.813A2.88,2.88,0,0,0,801.328,592.551ZM812.719,604l-4.875-12.844h2.086l2.765,7.617a36.079,36.079,0,0,1,1.1,3.469h.094a26.443,26.443,0,0,1,.808-2.566q.691-1.958,3.082-8.52h2.086L814.992,604Zm14.636.234a5.922,5.922,0,0,1-4.5-1.734,6.732,6.732,0,0,1-1.64-4.816,7.469,7.469,0,0,1,1.523-4.934,5.1,5.1,0,0,1,4.114-1.828,4.834,4.834,0,0,1,3.82,1.594,6.064,6.064,0,0,1,1.406,4.183v1.231H823.23a5.111,5.111,0,0,0,1.137,3.433,3.969,3.969,0,0,0,3.059,1.172,10.342,10.342,0,0,0,4.1-.867V603.4a9.909,9.909,0,0,1-1.957.633A10.545,10.545,0,0,1,827.355,604.234Zm-.527-11.683a3.2,3.2,0,0,0-2.473,1.008,4.669,4.669,0,0,0-1.078,2.789h6.715a4.254,4.254,0,0,0-.82-2.813A2.88,2.88,0,0,0,826.828,592.551ZM851.777,604v-8.355a3.439,3.439,0,0,0-.656-2.3,2.526,2.526,0,0,0-2.039-.774,3.3,3.3,0,0,0-2.684,1.043,4.958,4.958,0,0,0-.867,3.211V604h-1.945v-8.355a3.444,3.444,0,0,0-.656-2.3,2.543,2.543,0,0,0-2.051-.774,3.185,3.185,0,0,0-2.684,1.1,5.937,5.937,0,0,0-.843,3.586V604h-1.946V591.156h1.582l.317,1.758h.093a3.842,3.842,0,0,1,1.547-1.465,4.786,4.786,0,0,1,2.25-.527q3.012,0,3.938,2.18h.094a4.084,4.084,0,0,1,1.664-1.594,5.155,5.155,0,0,1,2.484-.586,4.316,4.316,0,0,1,3.258,1.125,4.968,4.968,0,0,1,1.09,3.574V604Zm11.391.234a5.922,5.922,0,0,1-4.5-1.734,6.727,6.727,0,0,1-1.641-4.816,7.464,7.464,0,0,1,1.524-4.934,5.1,5.1,0,0,1,4.113-1.828,4.833,4.833,0,0,1,3.82,1.594,6.06,6.06,0,0,1,1.407,4.183v1.231h-8.848a5.105,5.105,0,0,0,1.137,3.433,3.967,3.967,0,0,0,3.058,1.172,10.351,10.351,0,0,0,4.1-.867V603.4a9.954,9.954,0,0,1-1.957.633A10.558,10.558,0,0,1,863.168,604.234Zm-.527-11.683a3.194,3.194,0,0,0-2.473,1.008,4.662,4.662,0,0,0-1.078,2.789H865.8a4.254,4.254,0,0,0-.821-2.813A2.878,2.878,0,0,0,862.641,592.551ZM880.008,604v-8.309a3.348,3.348,0,0,0-.715-2.343,2.912,2.912,0,0,0-2.238-.774,3.693,3.693,0,0,0-2.953,1.09,5.5,5.5,0,0,0-.938,3.6V604h-1.945V591.156H872.8l.316,1.758h.094a3.931,3.931,0,0,1,1.676-1.465,5.4,5.4,0,0,1,2.4-.527,4.861,4.861,0,0,1,3.492,1.125,4.742,4.742,0,0,1,1.172,3.574V604Zm10.1-1.371a7,7,0,0,0,1-.07,7.336,7.336,0,0,0,.762-.164v1.488a3.487,3.487,0,0,1-.937.246,6.563,6.563,0,0,1-1.1.1q-3.726,0-3.726-3.925v-7.641h-1.84v-.938l1.84-.808.82-2.742h1.125v2.976h3.726v1.512h-3.726v7.559a2.6,2.6,0,0,0,.551,1.781A1.916,1.916,0,0,0,890.109,602.629ZM902.73,600.5a3.22,3.22,0,0,1-1.335,2.766,6.285,6.285,0,0,1-3.75.972,8.156,8.156,0,0,1-3.985-.808v-1.805a9.6,9.6,0,0,0,1.981.738,8.346,8.346,0,0,0,2.05.27,4.677,4.677,0,0,0,2.344-.481,1.621,1.621,0,0,0,.82-1.488,1.585,1.585,0,0,0-.656-1.277,9.9,9.9,0,0,0-2.531-1.266,14.345,14.345,0,0,1-2.555-1.16,3.615,3.615,0,0,1-1.125-1.137,2.986,2.986,0,0,1-.363-1.511,2.869,2.869,0,0,1,1.277-2.473,5.928,5.928,0,0,1,3.5-.914,10.244,10.244,0,0,1,4.055.844l-.691,1.582a9.3,9.3,0,0,0-3.5-.8,4.031,4.031,0,0,0-2.086.433,1.341,1.341,0,0,0-.7,1.2,1.482,1.482,0,0,0,.257.879,2.682,2.682,0,0,0,.856.691,18.843,18.843,0,0,0,2.25.949,8.335,8.335,0,0,1,3.082,1.676A2.945,2.945,0,0,1,902.73,600.5Zm11.356,3.5h-1.945V591.156h1.945Zm-2.109-16.324a1.27,1.27,0,0,1,.328-.973,1.133,1.133,0,0,1,.82-.316,1.147,1.147,0,0,1,.809.316,1.271,1.271,0,0,1,.339.973,1.311,1.311,0,0,1-.339.984,1.147,1.147,0,0,1-.809.317,1.133,1.133,0,0,1-.82-.317A1.336,1.336,0,0,1,911.977,587.676ZM927,604v-8.309a3.348,3.348,0,0,0-.715-2.343,2.91,2.91,0,0,0-2.238-.774,3.693,3.693,0,0,0-2.953,1.09,5.5,5.5,0,0,0-.938,3.6V604h-1.945V591.156h1.582l.316,1.758h.094a3.937,3.937,0,0,1,1.676-1.465,5.4,5.4,0,0,1,2.4-.527,4.861,4.861,0,0,1,3.492,1.125,4.738,4.738,0,0,1,1.172,3.574V604Zm19.4-9.293h6.3v8.6a18.126,18.126,0,0,1-2.976.714,20.871,20.871,0,0,1-3.071.211,7.74,7.74,0,0,1-6-2.3,9.3,9.3,0,0,1-2.109-6.5,8.645,8.645,0,0,1,2.379-6.469,8.926,8.926,0,0,1,6.551-2.344,12.769,12.769,0,0,1,5.086,1.031l-.985,2.332a9.9,9.9,0,0,0-4.172-.961,5.621,5.621,0,0,0-4.336,1.723,6.671,6.671,0,0,0-1.593,4.711,7.074,7.074,0,0,0,1.429,4.781,5.233,5.233,0,0,0,4.137,1.629,13.544,13.544,0,0,0,2.906-.34v-4.418H946.4ZM964.641,604l-.551-1.8H964a5.372,5.372,0,0,1-1.887,1.617,6.023,6.023,0,0,1-2.437.422,4.141,4.141,0,0,1-2.988-1.031,3.87,3.87,0,0,1-1.067-2.918,3.424,3.424,0,0,1,1.488-3.023,8.586,8.586,0,0,1,4.536-1.114l2.238-.07v-.691a2.581,2.581,0,0,0-.586-1.852,2.334,2.334,0,0,0-1.793-.621,6.228,6.228,0,0,0-1.91.293,14.459,14.459,0,0,0-1.758.691l-.891-1.968a9.374,9.374,0,0,1,2.309-.832,10.381,10.381,0,0,1,2.367-.293,5.581,5.581,0,0,1,3.727,1.078,4.209,4.209,0,0,1,1.265,3.387V604Zm-4.1-1.875a3.4,3.4,0,0,0,2.4-.832,3.045,3.045,0,0,0,.914-2.355v-1.126l-1.664.071a5.682,5.682,0,0,0-2.836.656,1.968,1.968,0,0,0-.878,1.77,1.748,1.748,0,0,0,.515,1.347A2.233,2.233,0,0,0,960.539,602.125ZM973.207,604h-2.754V585.766h2.754Zm6.7,0h-2.754V585.766h2.754Zm9.61.234a6.306,6.306,0,0,1-4.735-1.757,6.73,6.73,0,0,1-1.7-4.864,7.344,7.344,0,0,1,1.582-4.992,5.465,5.465,0,0,1,4.348-1.816,5.339,5.339,0,0,1,4.054,1.558,5.957,5.957,0,0,1,1.489,4.289v1.489h-8.637a4.285,4.285,0,0,0,1.019,2.906,3.563,3.563,0,0,0,2.707,1.008,10.215,10.215,0,0,0,2.133-.211,11.539,11.539,0,0,0,2.133-.727v2.238a8.441,8.441,0,0,1-2.039.68A12.481,12.481,0,0,1,989.52,604.234Zm-.5-11.343a2.787,2.787,0,0,0-2.11.832,3.982,3.982,0,0,0-.937,2.425h5.883a3.564,3.564,0,0,0-.774-2.425A2.634,2.634,0,0,0,989.016,592.891Zm15.244-2.086a6.6,6.6,0,0,1,1.37.117l-.27,2.566a5.2,5.2,0,0,0-1.22-.14,3.543,3.543,0,0,0-2.68,1.078,3.909,3.909,0,0,0-1.02,2.8V604h-2.752V591.039h2.156l.366,2.285h.14a5.225,5.225,0,0,1,1.67-1.84A4.034,4.034,0,0,1,1004.26,590.8Zm1.82.234h3l2.63,7.348a13.7,13.7,0,0,1,.8,2.953h.1a11.513,11.513,0,0,1,.38-1.559q.285-.926,2.98-8.742h2.98l-5.55,14.684q-1.515,4.043-5.04,4.043a7.917,7.917,0,0,1-1.78-.2v-2.179a6.571,6.571,0,0,0,1.42.14c1.33,0,2.26-.769,2.8-2.308l.48-1.219Zm14.42,11.5a1.791,1.791,0,0,1,.45-1.312,1.729,1.729,0,0,1,1.29-.457,1.691,1.691,0,0,1,1.3.48,1.78,1.78,0,0,1,.44,1.289,1.886,1.886,0,0,1-.45,1.324,1.97,1.97,0,0,1-2.58,0A1.859,1.859,0,0,1,1020.5,602.535Z" fill="#7f8699"/>
    <path id="Path_33" data-name="Path 33" d="M369,615.492a6.92,6.92,0,0,1-2.157,4.994,7.528,7.528,0,0,1-5.207,2.068H295.364a7.528,7.528,0,0,1-5.207-2.068A6.92,6.92,0,0,1,288,615.492V576.654a6.916,6.916,0,0,1,2.157-4.993,7.524,7.524,0,0,1,5.207-2.069h14.727L317.455,559h22.09l7.364,10.592h14.727a7.524,7.524,0,0,1,5.207,2.069A6.916,6.916,0,0,1,369,576.654Z" fill="none" stroke="#f9560f" stroke-linecap="round" stroke-linejoin="round" stroke-width="3"/>
    <path id="Path_34" data-name="Path 34" d="M328.5,608.431c8.134,0,14.728-6.323,14.728-14.123s-6.594-14.123-14.728-14.123-14.727,6.323-14.727,14.123S320.367,608.431,328.5,608.431Z" fill="none" stroke="#f9560f" stroke-linecap="round" stroke-linejoin="round" stroke-width="3"/>
    <path id="Path_35" data-name="Path 35" d="M441.293,448.867v11.086a6.04,6.04,0,0,1-1.77,4.606,6.784,6.784,0,0,1-4.863,1.675,6.509,6.509,0,0,1-4.793-1.687,6.271,6.271,0,0,1-1.687-4.641V448.867h1.992v11.18a4.4,4.4,0,0,0,1.172,3.293,4.73,4.73,0,0,0,3.445,1.148,4.576,4.576,0,0,0,3.34-1.148,4.463,4.463,0,0,0,1.172-3.317V448.867Zm10.23,17.367a5.654,5.654,0,0,1-2.3-.457,4.365,4.365,0,0,1-1.735-1.429h-.14a17.364,17.364,0,0,1,.14,2.132v5.286h-1.945v-18.61h1.582l.269,1.758h.094a4.514,4.514,0,0,1,1.746-1.523,5.3,5.3,0,0,1,2.285-.469,4.731,4.731,0,0,1,3.938,1.746,9.279,9.279,0,0,1-.023,9.82A4.748,4.748,0,0,1,451.523,466.234Zm-.281-11.66a3.447,3.447,0,0,0-2.847,1.09,5.611,5.611,0,0,0-.9,3.469v.433a6.452,6.452,0,0,0,.9,3.879,3.437,3.437,0,0,0,2.894,1.16,3,3,0,0,0,2.6-1.347,6.368,6.368,0,0,0,.949-3.715,6.1,6.1,0,0,0-.949-3.68A3.084,3.084,0,0,0,451.242,454.574ZM462.211,466h-1.945V447.766h1.945Zm15.211-6.434a7.109,7.109,0,0,1-1.582,4.911,5.584,5.584,0,0,1-4.371,1.757,5.791,5.791,0,0,1-3.059-.808,5.338,5.338,0,0,1-2.062-2.321,8.074,8.074,0,0,1-.727-3.539,7.055,7.055,0,0,1,1.57-4.886,5.545,5.545,0,0,1,4.36-1.758,5.416,5.416,0,0,1,4.277,1.793A7.034,7.034,0,0,1,477.422,459.566Zm-9.785,0a6.1,6.1,0,0,0,.984,3.75,3.907,3.907,0,0,0,5.789.012,6.065,6.065,0,0,0,1-3.762,5.913,5.913,0,0,0-1-3.714,3.956,3.956,0,0,0-5.8-.024A6.037,6.037,0,0,0,467.637,459.566ZM488.742,466l-.387-1.828h-.093a5.451,5.451,0,0,1-1.922,1.64,5.858,5.858,0,0,1-2.379.422,4.314,4.314,0,0,1-3-.984,3.6,3.6,0,0,1-1.078-2.8q0-3.891,6.222-4.078l2.18-.07v-.8a3.217,3.217,0,0,0-.656-2.227,2.644,2.644,0,0,0-2.074-.726,8.474,8.474,0,0,0-3.633.984l-.6-1.488a9.188,9.188,0,0,1,2.074-.809,9.1,9.1,0,0,1,2.274-.293,4.867,4.867,0,0,1,3.4,1.02,4.242,4.242,0,0,1,1.114,3.269V466Zm-4.394-1.371a3.925,3.925,0,0,0,2.847-1,3.671,3.671,0,0,0,1.043-2.789v-1.16l-1.945.082a7.05,7.05,0,0,0-3.352.726,2.164,2.164,0,0,0-1.019,1.981,2.012,2.012,0,0,0,.633,1.605A2.674,2.674,0,0,0,484.348,464.629Zm18.6-.352h-.105a4.57,4.57,0,0,1-4.031,1.957,4.786,4.786,0,0,1-3.926-1.722,7.606,7.606,0,0,1-1.395-4.9,7.707,7.707,0,0,1,1.407-4.933,4.731,4.731,0,0,1,3.914-1.758,4.67,4.67,0,0,1,4.007,1.9h.153l-.082-.925-.047-.9v-5.226h1.945V466H503.2Zm-3.89.328a3.534,3.534,0,0,0,2.883-1.078,5.479,5.479,0,0,0,.9-3.5v-.41a6.385,6.385,0,0,0-.914-3.89,3.423,3.423,0,0,0-2.895-1.172,2.989,2.989,0,0,0-2.625,1.336,6.623,6.623,0,0,0-.9,3.75,6.347,6.347,0,0,0,.9,3.715A3.057,3.057,0,0,0,499.055,464.605ZM517.969,466l-4.875-12.844h2.086l2.765,7.617a36.079,36.079,0,0,1,1.1,3.469h.094a26.442,26.442,0,0,1,.808-2.566q.691-1.957,3.082-8.52h2.086L520.242,466Zm11.156,0H527.18V453.156h1.945Zm-2.109-16.324a1.27,1.27,0,0,1,.328-.973,1.133,1.133,0,0,1,.82-.316,1.147,1.147,0,0,1,.809.316,1.271,1.271,0,0,1,.339.973,1.311,1.311,0,0,1-.339.984,1.147,1.147,0,0,1-.809.317,1.133,1.133,0,0,1-.82-.317A1.336,1.336,0,0,1,527.016,449.676Zm14.976,14.6h-.1a4.571,4.571,0,0,1-4.032,1.957,4.785,4.785,0,0,1-3.925-1.722,7.606,7.606,0,0,1-1.4-4.9,7.713,7.713,0,0,1,1.406-4.933,4.734,4.734,0,0,1,3.914-1.758,4.67,4.67,0,0,1,4.008,1.9h.153l-.082-.925-.047-.9v-5.226h1.945V466H542.25Zm-3.89.328a3.53,3.53,0,0,0,2.882-1.078,5.472,5.472,0,0,0,.9-3.5v-.41a6.385,6.385,0,0,0-.914-3.89,3.423,3.423,0,0,0-2.9-1.172,2.988,2.988,0,0,0-2.625,1.336,6.623,6.623,0,0,0-.9,3.75,6.347,6.347,0,0,0,.9,3.715A3.057,3.057,0,0,0,538.1,464.605Zm15.293,1.629a5.919,5.919,0,0,1-4.5-1.734,6.728,6.728,0,0,1-1.641-4.816,7.469,7.469,0,0,1,1.523-4.934,5.1,5.1,0,0,1,4.114-1.828,4.834,4.834,0,0,1,3.82,1.594,6.064,6.064,0,0,1,1.406,4.183v1.231H549.27a5.111,5.111,0,0,0,1.136,3.433,3.969,3.969,0,0,0,3.059,1.172,10.341,10.341,0,0,0,4.1-.867V465.4a9.909,9.909,0,0,1-1.957.633A10.546,10.546,0,0,1,553.4,466.234Zm-.528-11.683a3.194,3.194,0,0,0-2.472,1.008,4.664,4.664,0,0,0-1.079,2.789h6.715a4.254,4.254,0,0,0-.82-2.813A2.88,2.88,0,0,0,552.867,454.551Zm19.664,5.015a7.108,7.108,0,0,1-1.582,4.911,5.581,5.581,0,0,1-4.371,1.757,5.787,5.787,0,0,1-3.058-.808,5.334,5.334,0,0,1-2.063-2.321,8.089,8.089,0,0,1-.727-3.539,7.051,7.051,0,0,1,1.571-4.886,5.544,5.544,0,0,1,4.359-1.758,5.418,5.418,0,0,1,4.278,1.793A7.038,7.038,0,0,1,572.531,459.566Zm-9.785,0a6.1,6.1,0,0,0,.984,3.75,3.908,3.908,0,0,0,5.79.012,6.065,6.065,0,0,0,1-3.762,5.913,5.913,0,0,0-1-3.714,3.956,3.956,0,0,0-5.8-.024A6.03,6.03,0,0,0,562.746,459.566Zm21.492,2.93a3.218,3.218,0,0,1-1.336,2.766,6.28,6.28,0,0,1-3.75.972,8.153,8.153,0,0,1-3.984-.808v-1.8a9.593,9.593,0,0,0,1.98.738,8.354,8.354,0,0,0,2.051.27,4.677,4.677,0,0,0,2.344-.481,1.62,1.62,0,0,0,.82-1.488,1.585,1.585,0,0,0-.656-1.277,9.915,9.915,0,0,0-2.531-1.266,14.311,14.311,0,0,1-2.555-1.16,3.615,3.615,0,0,1-1.125-1.137,2.987,2.987,0,0,1-.363-1.511,2.869,2.869,0,0,1,1.277-2.473,5.928,5.928,0,0,1,3.5-.914,10.247,10.247,0,0,1,4.055.844l-.692,1.582a9.293,9.293,0,0,0-3.5-.8,4.029,4.029,0,0,0-2.085.433,1.342,1.342,0,0,0-.7,1.2,1.482,1.482,0,0,0,.258.879,2.682,2.682,0,0,0,.856.691,18.841,18.841,0,0,0,2.25.949,8.342,8.342,0,0,1,3.082,1.676A2.945,2.945,0,0,1,584.238,462.5Zm20.5-2.93a7.109,7.109,0,0,1-1.582,4.911,5.581,5.581,0,0,1-4.371,1.757,5.787,5.787,0,0,1-3.058-.808,5.34,5.34,0,0,1-2.063-2.321,8.089,8.089,0,0,1-.726-3.539,7.05,7.05,0,0,1,1.57-4.886,5.544,5.544,0,0,1,4.359-1.758,5.418,5.418,0,0,1,4.278,1.793A7.038,7.038,0,0,1,604.734,459.566Zm-9.785,0a6.09,6.09,0,0,0,.985,3.75,3.907,3.907,0,0,0,5.789.012,6.065,6.065,0,0,0,1-3.762,5.913,5.913,0,0,0-1-3.714,3.956,3.956,0,0,0-5.8-.024A6.03,6.03,0,0,0,594.949,459.566Zm19-4.9h-3.269V466H608.73V454.668h-2.3v-.879l2.3-.7v-.715q0-4.734,4.137-4.734a8.492,8.492,0,0,1,2.391.41l-.5,1.558a6.442,6.442,0,0,0-1.922-.363,1.868,1.868,0,0,0-1.629.738,4.065,4.065,0,0,0-.527,2.344v.832h3.269Zm6.539-1.512h2.086l2.813,7.324a27.768,27.768,0,0,1,1.148,3.622h.094q.153-.6.633-2.04t3.187-8.906h2.086l-5.519,14.625a7.217,7.217,0,0,1-1.922,3.071,4.038,4.038,0,0,1-2.684.914,7.822,7.822,0,0,1-1.758-.2v-1.558a6.776,6.776,0,0,0,1.442.14,2.97,2.97,0,0,0,2.859-2.25l.715-1.828Zm25.219,6.41a7.108,7.108,0,0,1-1.582,4.911,5.584,5.584,0,0,1-4.371,1.757,5.793,5.793,0,0,1-3.059-.808,5.337,5.337,0,0,1-2.062-2.321,8.088,8.088,0,0,1-.727-3.539,7.051,7.051,0,0,1,1.571-4.886,5.544,5.544,0,0,1,4.359-1.758,5.415,5.415,0,0,1,4.277,1.793A7.034,7.034,0,0,1,645.7,459.566Zm-9.785,0a6.1,6.1,0,0,0,.984,3.75,3.907,3.907,0,0,0,5.789.012,6.065,6.065,0,0,0,1-3.762,5.913,5.913,0,0,0-1-3.714,3.955,3.955,0,0,0-5.8-.024A6.03,6.03,0,0,0,635.918,459.566Zm15.035-6.41v8.332a3.351,3.351,0,0,0,.715,2.344,2.911,2.911,0,0,0,2.238.773,3.637,3.637,0,0,0,2.942-1.1,5.532,5.532,0,0,0,.937-3.6v-6.75h1.945V466h-1.6l-.281-1.723h-.106a3.86,3.86,0,0,1-1.664,1.453,5.534,5.534,0,0,1-2.414.5,4.931,4.931,0,0,1-3.515-1.113,4.751,4.751,0,0,1-1.161-3.562v-8.4Zm18.774-.234a7.668,7.668,0,0,1,1.535.14l-.27,1.8a6.638,6.638,0,0,0-1.406-.176,3.44,3.44,0,0,0-2.672,1.266,4.633,4.633,0,0,0-1.1,3.152V466h-1.945V453.156h1.606l.222,2.379h.094a5.646,5.646,0,0,1,1.723-1.933A3.872,3.872,0,0,1,669.727,452.922Zm14.32,11.707a6.991,6.991,0,0,0,1-.07,7.441,7.441,0,0,0,.762-.164v1.488a3.494,3.494,0,0,1-.938.246,6.537,6.537,0,0,1-1.1.105q-3.727,0-3.727-3.925v-7.641H678.2v-.938l1.84-.808.82-2.742h1.125v2.976h3.727v1.512h-3.727v7.559a2.6,2.6,0,0,0,.551,1.781A1.917,1.917,0,0,0,684.047,464.629Zm9.762,1.605a5.919,5.919,0,0,1-4.5-1.734,6.728,6.728,0,0,1-1.641-4.816,7.469,7.469,0,0,1,1.523-4.934,5.1,5.1,0,0,1,4.114-1.828,4.833,4.833,0,0,1,3.82,1.594,6.064,6.064,0,0,1,1.406,4.183v1.231h-8.847a5.111,5.111,0,0,0,1.136,3.433,3.969,3.969,0,0,0,3.059,1.172,10.341,10.341,0,0,0,4.1-.867V465.4a9.909,9.909,0,0,1-1.957.633A10.546,10.546,0,0,1,693.809,466.234Zm-.528-11.683a3.194,3.194,0,0,0-2.472,1.008,4.664,4.664,0,0,0-1.079,2.789h6.715a4.254,4.254,0,0,0-.82-2.813A2.88,2.88,0,0,0,693.281,454.551ZM709.758,466l-.387-1.828h-.094a5.434,5.434,0,0,1-1.922,1.64,5.849,5.849,0,0,1-2.378.422,4.311,4.311,0,0,1-3-.984,3.6,3.6,0,0,1-1.079-2.8q0-3.891,6.223-4.078l2.18-.07v-.8a3.217,3.217,0,0,0-.656-2.227,2.647,2.647,0,0,0-2.075-.726,8.474,8.474,0,0,0-3.632.984l-.6-1.488a9.187,9.187,0,0,1,2.074-.809,9.1,9.1,0,0,1,2.274-.293,4.867,4.867,0,0,1,3.4,1.02,4.242,4.242,0,0,1,1.113,3.269V466Zm-4.4-1.371a3.929,3.929,0,0,0,2.848-1,3.675,3.675,0,0,0,1.043-2.789v-1.16l-1.945.082a7.05,7.05,0,0,0-3.352.726,2.162,2.162,0,0,0-1.019,1.981,2.012,2.012,0,0,0,.632,1.605A2.677,2.677,0,0,0,705.363,464.629Zm14.989,1.605a5.51,5.51,0,0,1-4.325-1.711,7.1,7.1,0,0,1-1.523-4.863,7.3,7.3,0,0,1,1.547-4.98,5.607,5.607,0,0,1,4.429-1.758,8.763,8.763,0,0,1,1.852.2,6.085,6.085,0,0,1,1.453.469l-.6,1.652a8.8,8.8,0,0,0-1.407-.422,6.087,6.087,0,0,0-1.347-.175q-3.915,0-3.914,4.992a5.972,5.972,0,0,0,.949,3.633,3.34,3.34,0,0,0,2.836,1.265,8.653,8.653,0,0,0,3.293-.691v1.722A7.013,7.013,0,0,1,720.352,466.234ZM735.445,466v-8.309a3.349,3.349,0,0,0-.715-2.343,2.909,2.909,0,0,0-2.238-.774,3.685,3.685,0,0,0-2.965,1.1,5.6,5.6,0,0,0-.925,3.609V466h-1.946V447.766H728.6v5.519a12.116,12.116,0,0,1-.094,1.653h.117a3.937,3.937,0,0,1,1.629-1.454,5.306,5.306,0,0,1,2.426-.539,4.916,4.916,0,0,1,3.527,1.125,4.679,4.679,0,0,1,1.184,3.551V466Zm11.379.234a5.922,5.922,0,0,1-4.5-1.734,6.727,6.727,0,0,1-1.64-4.816,7.464,7.464,0,0,1,1.523-4.934,5.1,5.1,0,0,1,4.113-1.828,4.835,4.835,0,0,1,3.821,1.594,6.064,6.064,0,0,1,1.406,4.183v1.231H742.7a5.106,5.106,0,0,0,1.137,3.433,3.968,3.968,0,0,0,3.059,1.172,10.345,10.345,0,0,0,4.1-.867V465.4a9.93,9.93,0,0,1-1.957.633A10.556,10.556,0,0,1,746.824,466.234Zm-.527-11.683a3.2,3.2,0,0,0-2.473,1.008,4.664,4.664,0,0,0-1.078,2.789h6.715a4.254,4.254,0,0,0-.82-2.813A2.881,2.881,0,0,0,746.3,454.551Zm14.437-1.629a7.678,7.678,0,0,1,1.536.14l-.27,1.8a6.638,6.638,0,0,0-1.406-.176,3.44,3.44,0,0,0-2.672,1.266,4.633,4.633,0,0,0-1.1,3.152V466h-1.945V453.156h1.6l.223,2.379h.094a5.636,5.636,0,0,1,1.723-1.933A3.869,3.869,0,0,1,760.734,452.922Zm12.223,9.574a3.218,3.218,0,0,1-1.336,2.766,6.284,6.284,0,0,1-3.75.972,8.154,8.154,0,0,1-3.984-.808v-1.8a9.6,9.6,0,0,0,1.98.738,8.354,8.354,0,0,0,2.051.27,4.677,4.677,0,0,0,2.344-.481,1.62,1.62,0,0,0,.82-1.488,1.588,1.588,0,0,0-.656-1.277,9.936,9.936,0,0,0-2.531-1.266,14.308,14.308,0,0,1-2.555-1.16,3.615,3.615,0,0,1-1.125-1.137,2.986,2.986,0,0,1-.363-1.511,2.866,2.866,0,0,1,1.277-2.473,5.923,5.923,0,0,1,3.5-.914,10.247,10.247,0,0,1,4.055.844L772,455.348a9.293,9.293,0,0,0-3.5-.8,4.033,4.033,0,0,0-2.086.433,1.343,1.343,0,0,0-.7,1.2,1.482,1.482,0,0,0,.258.879,2.689,2.689,0,0,0,.855.691,19,19,0,0,0,2.25.949,8.325,8.325,0,0,1,3.082,1.676A2.941,2.941,0,0,1,772.957,462.5Zm11.355,3.5h-1.945V453.156h1.945ZM782.2,449.676a1.27,1.27,0,0,1,.328-.973,1.208,1.208,0,0,1,1.629,0,1.267,1.267,0,0,1,.34.973,1.307,1.307,0,0,1-.34.984,1.2,1.2,0,0,1-1.629,0A1.336,1.336,0,0,1,782.2,449.676ZM797.227,466v-8.309a3.353,3.353,0,0,0-.715-2.343,2.913,2.913,0,0,0-2.239-.774,3.694,3.694,0,0,0-2.953,1.09,5.5,5.5,0,0,0-.937,3.6V466h-1.945V453.156h1.582l.316,1.758h.094a3.934,3.934,0,0,1,1.675-1.465,5.4,5.4,0,0,1,2.4-.527A4.861,4.861,0,0,1,798,454.047a4.742,4.742,0,0,1,1.172,3.574V466Zm20.085,0-.386-1.828h-.094a5.442,5.442,0,0,1-1.922,1.64,5.858,5.858,0,0,1-2.379.422,4.314,4.314,0,0,1-3-.984,3.6,3.6,0,0,1-1.078-2.8q0-3.891,6.223-4.078l2.179-.07v-.8a3.212,3.212,0,0,0-.656-2.227,2.643,2.643,0,0,0-2.074-.726,8.481,8.481,0,0,0-3.633.984l-.6-1.488a9.292,9.292,0,0,1,4.347-1.1,4.871,4.871,0,0,1,3.4,1.02,4.242,4.242,0,0,1,1.113,3.269V466Zm-4.394-1.371a3.929,3.929,0,0,0,2.848-1,3.675,3.675,0,0,0,1.043-2.789v-1.16l-1.946.082a7.042,7.042,0,0,0-3.351.726,2.163,2.163,0,0,0-1.02,1.981,2.012,2.012,0,0,0,.633,1.605A2.676,2.676,0,0,0,812.918,464.629Zm14.988,1.605a5.508,5.508,0,0,1-4.324-1.711,7.1,7.1,0,0,1-1.523-4.863,7.3,7.3,0,0,1,1.546-4.98,5.611,5.611,0,0,1,4.43-1.758,8.771,8.771,0,0,1,1.852.2,6.1,6.1,0,0,1,1.453.469l-.6,1.652a8.787,8.787,0,0,0-1.406-.422,6.087,6.087,0,0,0-1.348-.175q-3.913,0-3.914,4.992a5.978,5.978,0,0,0,.949,3.633,3.341,3.341,0,0,0,2.836,1.265,8.649,8.649,0,0,0,3.293-.691v1.722A7.007,7.007,0,0,1,827.906,466.234Zm10.453-1.605a6.99,6.99,0,0,0,1-.07,7.32,7.32,0,0,0,.762-.164v1.488a3.485,3.485,0,0,1-.937.246,6.557,6.557,0,0,1-1.1.105q-3.726,0-3.726-3.925v-7.641h-1.84v-.938l1.84-.808.82-2.742H836.3v2.976h3.726v1.512H836.3v7.559a2.6,2.6,0,0,0,.551,1.781A1.916,1.916,0,0,0,838.359,464.629ZM844.641,466H842.7V453.156h1.946Zm-2.11-16.324a1.274,1.274,0,0,1,.328-.973,1.208,1.208,0,0,1,1.629,0,1.267,1.267,0,0,1,.34.973,1.307,1.307,0,0,1-.34.984,1.2,1.2,0,0,1-1.629,0A1.34,1.34,0,0,1,842.531,449.676Zm17.321,9.89a7.114,7.114,0,0,1-1.582,4.911,5.585,5.585,0,0,1-4.372,1.757,5.787,5.787,0,0,1-3.058-.808,5.34,5.34,0,0,1-2.063-2.321,8.089,8.089,0,0,1-.726-3.539,7.05,7.05,0,0,1,1.57-4.886,5.544,5.544,0,0,1,4.359-1.758,5.418,5.418,0,0,1,4.278,1.793A7.039,7.039,0,0,1,859.852,459.566Zm-9.786,0a6.1,6.1,0,0,0,.985,3.75,3.907,3.907,0,0,0,5.789.012,6.065,6.065,0,0,0,1-3.762,5.913,5.913,0,0,0-1-3.714,3.956,3.956,0,0,0-5.8-.024A6.037,6.037,0,0,0,850.066,459.566Zm22,6.434v-8.309a3.353,3.353,0,0,0-.714-2.343,2.913,2.913,0,0,0-2.239-.774,3.694,3.694,0,0,0-2.953,1.09,5.5,5.5,0,0,0-.937,3.6V466h-1.946V453.156h1.582l.317,1.758h.094a3.934,3.934,0,0,1,1.675-1.465,5.4,5.4,0,0,1,2.4-.527,4.861,4.861,0,0,1,3.492,1.125,4.742,4.742,0,0,1,1.172,3.574V466Zm5.672-1.242a1.744,1.744,0,0,1,.352-1.184,1.306,1.306,0,0,1,1.031-.41,1.359,1.359,0,0,1,1.055.41,1.986,1.986,0,0,1,0,2.356,1.383,1.383,0,0,1-1.055.41,1.424,1.424,0,0,1-1-.363A1.642,1.642,0,0,1,877.734,464.758Z" fill="#7f8699"/>
    <path id="Path_36" data-name="Path 36" d="M439.125,328l-2.133-5.449h-6.867L428.016,328H426l6.773-17.2h1.676l6.739,17.2Zm-2.754-7.242-1.992-5.309q-.387-1.008-.8-2.472a22.255,22.255,0,0,1-.738,2.472l-2.016,5.309Zm11.027,5.871a7.014,7.014,0,0,0,1-.07,7.352,7.352,0,0,0,.761-.164v1.488a3.485,3.485,0,0,1-.937.246,6.557,6.557,0,0,1-1.1.105q-3.726,0-3.726-3.925v-7.641h-1.84v-.938l1.84-.808.82-2.742h1.125v2.976h3.726v1.512h-3.726v7.559a2.6,2.6,0,0,0,.551,1.781A1.916,1.916,0,0,0,447.4,326.629Zm8.485,0a6.99,6.99,0,0,0,1-.07,7.438,7.438,0,0,0,.762-.164v1.488a3.494,3.494,0,0,1-.938.246,6.537,6.537,0,0,1-1.1.105q-3.727,0-3.727-3.925v-7.641h-1.84v-.938l1.84-.808.82-2.742h1.125v2.976h3.727v1.512H453.82v7.559a2.6,2.6,0,0,0,.551,1.781A1.917,1.917,0,0,0,455.883,326.629Zm10.2-11.707a7.668,7.668,0,0,1,1.535.14l-.269,1.8a6.645,6.645,0,0,0-1.406-.176,3.438,3.438,0,0,0-2.672,1.266,4.628,4.628,0,0,0-1.1,3.152V328h-1.945V315.156h1.605l.223,2.379h.094a5.634,5.634,0,0,1,1.722-1.933A3.872,3.872,0,0,1,466.078,314.922ZM477.914,328l-.387-1.828h-.093a5.451,5.451,0,0,1-1.922,1.64,5.858,5.858,0,0,1-2.379.422,4.311,4.311,0,0,1-3-.984,3.6,3.6,0,0,1-1.078-2.8q0-3.891,6.222-4.078l2.18-.07v-.8a3.217,3.217,0,0,0-.656-2.227,2.644,2.644,0,0,0-2.074-.726,8.474,8.474,0,0,0-3.633.984l-.6-1.488a9.188,9.188,0,0,1,2.074-.809,9.1,9.1,0,0,1,2.274-.293,4.867,4.867,0,0,1,3.4,1.02,4.242,4.242,0,0,1,1.113,3.269V328Zm-4.394-1.371a3.927,3.927,0,0,0,2.847-1,3.675,3.675,0,0,0,1.043-2.789v-1.16l-1.945.082a7.05,7.05,0,0,0-3.352.726,2.164,2.164,0,0,0-1.019,1.981,2.012,2.012,0,0,0,.633,1.605A2.674,2.674,0,0,0,473.52,326.629Zm14.988,1.605a5.506,5.506,0,0,1-4.324-1.711,7.1,7.1,0,0,1-1.524-4.863,7.3,7.3,0,0,1,1.547-4.98,5.609,5.609,0,0,1,4.43-1.758,8.761,8.761,0,0,1,1.851.2,6.086,6.086,0,0,1,1.453.469l-.6,1.652a8.818,8.818,0,0,0-1.406-.422,6.094,6.094,0,0,0-1.348-.175q-3.915,0-3.914,4.992a5.972,5.972,0,0,0,.949,3.633,3.341,3.341,0,0,0,2.836,1.265,8.652,8.652,0,0,0,3.293-.691v1.722A7.01,7.01,0,0,1,488.508,328.234Zm10.453-1.605a6.99,6.99,0,0,0,1-.07,7.438,7.438,0,0,0,.762-.164v1.488a3.494,3.494,0,0,1-.938.246,6.537,6.537,0,0,1-1.1.105q-3.727,0-3.727-3.925v-7.641h-1.84v-.938l1.84-.808.82-2.742H496.9v2.976h3.727v1.512H496.9v7.559a2.6,2.6,0,0,0,.551,1.781A1.917,1.917,0,0,0,498.961,326.629ZM517.43,328l-.387-1.828h-.094a5.433,5.433,0,0,1-1.922,1.64,5.851,5.851,0,0,1-2.379.422,4.314,4.314,0,0,1-3-.984,3.6,3.6,0,0,1-1.078-2.8q0-3.891,6.223-4.078l2.18-.07v-.8a3.212,3.212,0,0,0-.657-2.227,2.643,2.643,0,0,0-2.074-.726,8.481,8.481,0,0,0-3.633.984l-.6-1.488a9.188,9.188,0,0,1,2.074-.809,9.094,9.094,0,0,1,2.273-.293,4.869,4.869,0,0,1,3.4,1.02,4.242,4.242,0,0,1,1.113,3.269V328Zm-4.4-1.371a3.929,3.929,0,0,0,2.848-1,3.675,3.675,0,0,0,1.043-2.789v-1.16l-1.946.082a7.045,7.045,0,0,0-3.351.726,2.163,2.163,0,0,0-1.02,1.981,2.012,2.012,0,0,0,.633,1.605A2.677,2.677,0,0,0,513.035,326.629Zm14,0a6.989,6.989,0,0,0,1-.07,7.439,7.439,0,0,0,.762-.164v1.488a3.494,3.494,0,0,1-.938.246,6.537,6.537,0,0,1-1.1.105q-3.727,0-3.727-3.925v-7.641h-1.84v-.938l1.84-.808.821-2.742h1.125v2.976H528.7v1.512h-3.726v7.559a2.6,2.6,0,0,0,.55,1.781A1.918,1.918,0,0,0,527.039,326.629Zm8.484,0a7.015,7.015,0,0,0,1-.07,7.351,7.351,0,0,0,.761-.164v1.488a3.485,3.485,0,0,1-.937.246,6.548,6.548,0,0,1-1.1.105q-3.726,0-3.726-3.925v-7.641h-1.84v-.938l1.84-.808.82-2.742h1.125v2.976h3.727v1.512h-3.727v7.559a2.6,2.6,0,0,0,.551,1.781A1.916,1.916,0,0,0,535.523,326.629Zm9.762,1.605a5.922,5.922,0,0,1-4.5-1.734,6.727,6.727,0,0,1-1.64-4.816,7.463,7.463,0,0,1,1.523-4.934,5.1,5.1,0,0,1,4.113-1.828,4.835,4.835,0,0,1,3.821,1.594,6.064,6.064,0,0,1,1.406,4.183v1.231H541.16a5.106,5.106,0,0,0,1.137,3.433,3.967,3.967,0,0,0,3.058,1.172,10.35,10.35,0,0,0,4.1-.867V327.4a9.93,9.93,0,0,1-1.957.633A10.556,10.556,0,0,1,545.285,328.234Zm-.527-11.683a3.2,3.2,0,0,0-2.473,1.008,4.664,4.664,0,0,0-1.078,2.789h6.715a4.259,4.259,0,0,0-.82-2.813A2.881,2.881,0,0,0,544.758,316.551ZM562.125,328v-8.309a3.348,3.348,0,0,0-.715-2.343,2.909,2.909,0,0,0-2.238-.774,3.693,3.693,0,0,0-2.953,1.09,5.5,5.5,0,0,0-.938,3.6V328h-1.945V315.156h1.582l.316,1.758h.094A3.936,3.936,0,0,1,557,315.449a5.4,5.4,0,0,1,2.4-.527,4.861,4.861,0,0,1,3.492,1.125,4.738,4.738,0,0,1,1.172,3.574V328Zm10.1-1.371a7.012,7.012,0,0,0,1-.07,7.351,7.351,0,0,0,.761-.164v1.488a3.485,3.485,0,0,1-.937.246,6.548,6.548,0,0,1-1.1.105q-3.726,0-3.726-3.925v-7.641h-1.84v-.938l1.84-.808.82-2.742h1.125v2.976h3.727v1.512h-3.727v7.559a2.6,2.6,0,0,0,.551,1.781A1.916,1.916,0,0,0,572.227,326.629ZM578.508,328h-1.946V315.156h1.946Zm-2.11-16.324a1.271,1.271,0,0,1,.329-.973,1.206,1.206,0,0,1,1.628,0,1.267,1.267,0,0,1,.34.973,1.307,1.307,0,0,1-.34.984,1.145,1.145,0,0,1-.808.317,1.133,1.133,0,0,1-.82-.317A1.336,1.336,0,0,1,576.4,311.676Zm17.321,9.89a7.114,7.114,0,0,1-1.582,4.911,5.584,5.584,0,0,1-4.371,1.757,5.791,5.791,0,0,1-3.059-.808,5.331,5.331,0,0,1-2.062-2.321,8.073,8.073,0,0,1-.727-3.539,7.05,7.05,0,0,1,1.57-4.886,5.545,5.545,0,0,1,4.36-1.758,5.416,5.416,0,0,1,4.277,1.793A7.034,7.034,0,0,1,593.719,321.566Zm-9.785,0a6.1,6.1,0,0,0,.984,3.75,3.906,3.906,0,0,0,5.789.012,6.065,6.065,0,0,0,1-3.762,5.913,5.913,0,0,0-1-3.714,3.956,3.956,0,0,0-5.8-.024A6.037,6.037,0,0,0,583.934,321.566Zm22,6.434v-8.309a3.353,3.353,0,0,0-.715-2.343,2.912,2.912,0,0,0-2.238-.774,3.7,3.7,0,0,0-2.954,1.09,5.5,5.5,0,0,0-.937,3.6V328h-1.945V315.156h1.582l.316,1.758h.094a3.931,3.931,0,0,1,1.676-1.465,5.4,5.4,0,0,1,2.4-.527,4.861,4.861,0,0,1,3.492,1.125,4.742,4.742,0,0,1,1.172,3.574V328Zm16.336-1.371a7.012,7.012,0,0,0,1-.07,7.355,7.355,0,0,0,.761-.164v1.488a3.485,3.485,0,0,1-.937.246,6.548,6.548,0,0,1-1.1.105q-3.726,0-3.726-3.925v-7.641h-1.84v-.938l1.84-.808.82-2.742H620.2v2.976h3.727v1.512H620.2v7.559a2.6,2.6,0,0,0,.551,1.781A1.916,1.916,0,0,0,622.266,326.629ZM635.391,328v-8.309a3.353,3.353,0,0,0-.715-2.343,2.912,2.912,0,0,0-2.238-.774,3.684,3.684,0,0,0-2.965,1.1,5.6,5.6,0,0,0-.926,3.609V328H626.6V309.766h1.945v5.519a11.96,11.96,0,0,1-.094,1.653h.117a3.937,3.937,0,0,1,1.629-1.454,5.309,5.309,0,0,1,2.426-.539,4.916,4.916,0,0,1,3.527,1.125,4.679,4.679,0,0,1,1.184,3.551V328ZM647.2,314.922a7.667,7.667,0,0,1,1.535.14l-.269,1.8a6.639,6.639,0,0,0-1.407-.176,3.438,3.438,0,0,0-2.671,1.266,4.628,4.628,0,0,0-1.1,3.152V328h-1.945V315.156h1.6l.223,2.379h.094a5.634,5.634,0,0,1,1.722-1.933A3.872,3.872,0,0,1,647.2,314.922Zm15.024,6.644a7.114,7.114,0,0,1-1.582,4.911,5.585,5.585,0,0,1-4.372,1.757,5.787,5.787,0,0,1-3.058-.808,5.34,5.34,0,0,1-2.063-2.321,8.089,8.089,0,0,1-.726-3.539A7.05,7.05,0,0,1,652,316.68a5.544,5.544,0,0,1,4.359-1.758,5.418,5.418,0,0,1,4.278,1.793A7.039,7.039,0,0,1,662.227,321.566Zm-9.786,0a6.1,6.1,0,0,0,.985,3.75,3.907,3.907,0,0,0,5.789.012,6.065,6.065,0,0,0,1-3.762,5.913,5.913,0,0,0-1-3.714,3.956,3.956,0,0,0-5.8-.024A6.037,6.037,0,0,0,652.441,321.566Zm15.036-6.41v8.332a3.356,3.356,0,0,0,.714,2.344,2.913,2.913,0,0,0,2.239.773,3.634,3.634,0,0,0,2.941-1.1,5.532,5.532,0,0,0,.938-3.6v-6.75h1.945V328h-1.606l-.281-1.723h-.1a3.866,3.866,0,0,1-1.664,1.453,5.534,5.534,0,0,1-2.414.5,4.932,4.932,0,0,1-3.516-1.113,4.755,4.755,0,0,1-1.16-3.562v-8.4Zm23.425,0v1.231l-2.379.281a4.214,4.214,0,0,1,.844,2.566,3.8,3.8,0,0,1-1.289,3.012,5.2,5.2,0,0,1-3.539,1.125,5.848,5.848,0,0,1-1.078-.094,1.916,1.916,0,0,0-1.242,1.653.853.853,0,0,0,.433.785,3.238,3.238,0,0,0,1.489.246h2.273a5.063,5.063,0,0,1,3.2.879,3.047,3.047,0,0,1,1.125,2.555,3.634,3.634,0,0,1-1.711,3.246,9.115,9.115,0,0,1-4.992,1.125,6.846,6.846,0,0,1-3.89-.938,3.03,3.03,0,0,1-1.36-2.648,2.976,2.976,0,0,1,.75-2.028,3.819,3.819,0,0,1,2.11-1.16,2.075,2.075,0,0,1-.833-.691,1.859,1.859,0,0,1-.328-1.09,2.07,2.07,0,0,1,.375-1.231,3.951,3.951,0,0,1,1.184-1.019,3.5,3.5,0,0,1-1.629-1.395,4.626,4.626,0,0,1,.645-5.5,5.152,5.152,0,0,1,3.586-1.148,6.532,6.532,0,0,1,1.816.234Zm-10.242,15a1.742,1.742,0,0,0,.879,1.582,4.846,4.846,0,0,0,2.52.539,6.956,6.956,0,0,0,3.621-.738,2.226,2.226,0,0,0,1.183-1.98,1.589,1.589,0,0,0-.644-1.454,5.082,5.082,0,0,0-2.426-.4h-2.332a3.074,3.074,0,0,0-2.063.633A2.261,2.261,0,0,0,680.66,330.156Zm1.055-10.886a2.615,2.615,0,0,0,.762,2.039A3.038,3.038,0,0,0,684.6,322q2.847,0,2.847-2.766a2.553,2.553,0,0,0-2.883-2.894,2.854,2.854,0,0,0-2.109.738A2.975,2.975,0,0,0,681.715,319.27ZM702.328,328v-8.309a3.348,3.348,0,0,0-.715-2.343,2.909,2.909,0,0,0-2.238-.774,3.684,3.684,0,0,0-2.965,1.1,5.6,5.6,0,0,0-.926,3.609V328h-1.945V309.766h1.945v5.519a12.136,12.136,0,0,1-.093,1.653h.117a3.937,3.937,0,0,1,1.629-1.454,5.305,5.305,0,0,1,2.425-.539,4.917,4.917,0,0,1,3.528,1.125,4.679,4.679,0,0,1,1.183,3.551V328Zm18.164.234a5.658,5.658,0,0,1-2.3-.457,4.368,4.368,0,0,1-1.734-1.429h-.141a17.182,17.182,0,0,1,.141,2.132v5.286h-1.945v-18.61H716.1l.269,1.758h.094a4.514,4.514,0,0,1,1.746-1.523,5.3,5.3,0,0,1,2.285-.469,4.732,4.732,0,0,1,3.938,1.746,9.277,9.277,0,0,1-.024,9.82A4.745,4.745,0,0,1,720.492,328.234Zm-.281-11.66a3.449,3.449,0,0,0-2.848,1.09,5.612,5.612,0,0,0-.9,3.469v.433a6.46,6.46,0,0,0,.9,3.879,3.44,3.44,0,0,0,2.9,1.16,3,3,0,0,0,2.6-1.347,6.361,6.361,0,0,0,.95-3.715,6.094,6.094,0,0,0-.95-3.68A3.082,3.082,0,0,0,720.211,316.574ZM738.023,328v-8.309a3.353,3.353,0,0,0-.714-2.343,2.913,2.913,0,0,0-2.239-.774,3.685,3.685,0,0,0-2.965,1.1,5.6,5.6,0,0,0-.925,3.609V328h-1.946V309.766h1.946v5.519a12.116,12.116,0,0,1-.094,1.653h.117a3.938,3.938,0,0,1,1.629-1.454,5.31,5.31,0,0,1,2.426-.539,4.916,4.916,0,0,1,3.527,1.125,4.679,4.679,0,0,1,1.184,3.551V328Zm17.039-6.434a7.109,7.109,0,0,1-1.582,4.911,5.581,5.581,0,0,1-4.371,1.757,5.787,5.787,0,0,1-3.058-.808,5.34,5.34,0,0,1-2.063-2.321,8.089,8.089,0,0,1-.726-3.539,7.05,7.05,0,0,1,1.57-4.886,5.544,5.544,0,0,1,4.359-1.758,5.418,5.418,0,0,1,4.278,1.793A7.038,7.038,0,0,1,755.062,321.566Zm-9.785,0a6.09,6.09,0,0,0,.985,3.75,3.907,3.907,0,0,0,5.789.012,6.065,6.065,0,0,0,1-3.762,5.913,5.913,0,0,0-1-3.714,3.956,3.956,0,0,0-5.8-.024A6.037,6.037,0,0,0,745.277,321.566Zm17.356,5.063a6.991,6.991,0,0,0,1-.07,7.441,7.441,0,0,0,.762-.164v1.488a3.494,3.494,0,0,1-.938.246,6.537,6.537,0,0,1-1.1.105q-3.727,0-3.727-3.925v-7.641h-1.84v-.938l1.84-.808.82-2.742h1.125v2.976H764.3v1.512H760.57v7.559a2.6,2.6,0,0,0,.551,1.781A1.917,1.917,0,0,0,762.633,326.629Zm15.422-5.063a7.114,7.114,0,0,1-1.582,4.911,5.584,5.584,0,0,1-4.371,1.757,5.79,5.79,0,0,1-3.059-.808,5.34,5.34,0,0,1-2.063-2.321,8.088,8.088,0,0,1-.726-3.539,7.05,7.05,0,0,1,1.57-4.886,5.545,5.545,0,0,1,4.36-1.758,5.417,5.417,0,0,1,4.277,1.793A7.039,7.039,0,0,1,778.055,321.566Zm-9.785,0a6.1,6.1,0,0,0,.984,3.75,3.907,3.907,0,0,0,5.789.012,6.065,6.065,0,0,0,1-3.762,5.914,5.914,0,0,0-1-3.714,3.956,3.956,0,0,0-5.8-.024A6.037,6.037,0,0,0,768.27,321.566Zm21.492,2.93a3.221,3.221,0,0,1-1.336,2.766,6.284,6.284,0,0,1-3.75.972,8.161,8.161,0,0,1-3.985-.808v-1.8a9.626,9.626,0,0,0,1.981.738,8.348,8.348,0,0,0,2.051.27,4.673,4.673,0,0,0,2.343-.481,1.621,1.621,0,0,0,.821-1.488,1.586,1.586,0,0,0-.657-1.277,9.9,9.9,0,0,0-2.531-1.266,14.292,14.292,0,0,1-2.554-1.16,3.615,3.615,0,0,1-1.125-1.137,2.976,2.976,0,0,1-.364-1.511,2.867,2.867,0,0,1,1.278-2.473,5.923,5.923,0,0,1,3.5-.914,10.243,10.243,0,0,1,4.054.844l-.691,1.582a9.293,9.293,0,0,0-3.5-.8,4.033,4.033,0,0,0-2.086.433,1.341,1.341,0,0,0-.7,1.2,1.482,1.482,0,0,0,.258.879,2.666,2.666,0,0,0,.855.691,19.009,19.009,0,0,0,2.25.949,8.325,8.325,0,0,1,3.082,1.676A2.945,2.945,0,0,1,789.762,324.5ZM807.07,328l-.386-1.828h-.094a5.443,5.443,0,0,1-1.922,1.64,5.858,5.858,0,0,1-2.379.422,4.314,4.314,0,0,1-3-.984,3.6,3.6,0,0,1-1.078-2.8q0-3.891,6.223-4.078l2.179-.07v-.8a3.212,3.212,0,0,0-.656-2.227,2.644,2.644,0,0,0-2.074-.726,8.478,8.478,0,0,0-3.633.984l-.6-1.488a9.2,9.2,0,0,1,2.075-.809,9.082,9.082,0,0,1,2.273-.293,4.867,4.867,0,0,1,3.4,1.02,4.239,4.239,0,0,1,1.114,3.269V328Zm-4.394-1.371a3.925,3.925,0,0,0,2.847-1,3.671,3.671,0,0,0,1.043-2.789v-1.16l-1.945.082a7.042,7.042,0,0,0-3.351.726,2.163,2.163,0,0,0-1.02,1.981,2.012,2.012,0,0,0,.633,1.605A2.674,2.674,0,0,0,802.676,326.629ZM821.32,328v-8.309a3.349,3.349,0,0,0-.715-2.343,2.909,2.909,0,0,0-2.238-.774,3.693,3.693,0,0,0-2.953,1.09,5.5,5.5,0,0,0-.937,3.6V328h-1.946V315.156h1.582l.317,1.758h.093a3.937,3.937,0,0,1,1.676-1.465,5.4,5.4,0,0,1,2.4-.527,4.864,4.864,0,0,1,3.492,1.125,4.742,4.742,0,0,1,1.172,3.574V328Zm14.7-1.723h-.106a4.569,4.569,0,0,1-4.031,1.957,4.787,4.787,0,0,1-3.926-1.722,7.606,7.606,0,0,1-1.394-4.9,7.706,7.706,0,0,1,1.406-4.933,4.731,4.731,0,0,1,3.914-1.758,4.673,4.673,0,0,1,4.008,1.9h.152l-.082-.925-.047-.9v-5.226h1.945V328h-1.582Zm-3.891.328a3.534,3.534,0,0,0,2.883-1.078,5.479,5.479,0,0,0,.9-3.5v-.41a6.385,6.385,0,0,0-.914-3.89,3.42,3.42,0,0,0-2.894-1.172,2.986,2.986,0,0,0-2.625,1.336,6.615,6.615,0,0,0-.9,3.75,6.339,6.339,0,0,0,.9,3.715A3.054,3.054,0,0,0,832.125,326.605ZM851.039,328l-4.875-12.844h2.086l2.766,7.617a35.963,35.963,0,0,1,1.1,3.469h.094a26.25,26.25,0,0,1,.809-2.566q.69-1.957,3.082-8.52h2.086L853.312,328Zm11.156,0H860.25V315.156H862.2Zm-2.109-16.324a1.27,1.27,0,0,1,.328-.973,1.134,1.134,0,0,1,.82-.316,1.147,1.147,0,0,1,.809.316,1.267,1.267,0,0,1,.34.973,1.307,1.307,0,0,1-.34.984,1.147,1.147,0,0,1-.809.317,1.135,1.135,0,0,1-.82-.317A1.336,1.336,0,0,1,860.086,311.676Zm14.976,14.6h-.105a4.569,4.569,0,0,1-4.031,1.957A4.787,4.787,0,0,1,867,326.512a7.606,7.606,0,0,1-1.4-4.9,7.706,7.706,0,0,1,1.407-4.933,4.731,4.731,0,0,1,3.914-1.758,4.673,4.673,0,0,1,4.008,1.9h.152l-.082-.925-.047-.9v-5.226H876.9V328H875.32Zm-3.89.328a3.534,3.534,0,0,0,2.883-1.078,5.479,5.479,0,0,0,.9-3.5v-.41a6.385,6.385,0,0,0-.914-3.89,3.422,3.422,0,0,0-2.9-1.172,2.989,2.989,0,0,0-2.625,1.336,6.623,6.623,0,0,0-.9,3.75,6.347,6.347,0,0,0,.9,3.715A3.057,3.057,0,0,0,871.172,326.605Zm15.293,1.629a5.919,5.919,0,0,1-4.5-1.734,6.727,6.727,0,0,1-1.641-4.816,7.464,7.464,0,0,1,1.524-4.934,5.1,5.1,0,0,1,4.113-1.828,4.833,4.833,0,0,1,3.82,1.594,6.06,6.06,0,0,1,1.407,4.183v1.231H882.34a5.106,5.106,0,0,0,1.137,3.433,3.967,3.967,0,0,0,3.058,1.172,10.35,10.35,0,0,0,4.1-.867V327.4a9.954,9.954,0,0,1-1.957.633A10.562,10.562,0,0,1,886.465,328.234Zm-.527-11.683a3.194,3.194,0,0,0-2.473,1.008,4.656,4.656,0,0,0-1.078,2.789H889.1a4.254,4.254,0,0,0-.821-2.813A2.879,2.879,0,0,0,885.938,316.551Zm19.664,5.015a7.114,7.114,0,0,1-1.582,4.911,5.585,5.585,0,0,1-4.372,1.757,5.787,5.787,0,0,1-3.058-.808,5.34,5.34,0,0,1-2.063-2.321,8.089,8.089,0,0,1-.726-3.539,7.05,7.05,0,0,1,1.57-4.886,5.544,5.544,0,0,1,4.359-1.758,5.418,5.418,0,0,1,4.278,1.793A7.039,7.039,0,0,1,905.6,321.566Zm-9.786,0a6.1,6.1,0,0,0,.985,3.75,3.907,3.907,0,0,0,5.789.012,6.065,6.065,0,0,0,1-3.762,5.913,5.913,0,0,0-1-3.714,3.956,3.956,0,0,0-5.8-.024A6.037,6.037,0,0,0,895.816,321.566Zm21.493,2.93a3.221,3.221,0,0,1-1.336,2.766,6.284,6.284,0,0,1-3.75.972,8.158,8.158,0,0,1-3.985-.808v-1.8a9.6,9.6,0,0,0,1.981.738,8.348,8.348,0,0,0,2.051.27,4.676,4.676,0,0,0,2.343-.481,1.621,1.621,0,0,0,.821-1.488,1.586,1.586,0,0,0-.657-1.277,9.9,9.9,0,0,0-2.531-1.266,14.346,14.346,0,0,1-2.555-1.16,3.615,3.615,0,0,1-1.125-1.137,2.986,2.986,0,0,1-.363-1.511,2.869,2.869,0,0,1,1.277-2.473,5.928,5.928,0,0,1,3.5-.914,10.244,10.244,0,0,1,4.055.844l-.691,1.582a9.293,9.293,0,0,0-3.5-.8,4.033,4.033,0,0,0-2.086.433,1.341,1.341,0,0,0-.7,1.2,1.488,1.488,0,0,0,.257.879,2.682,2.682,0,0,0,.856.691,19,19,0,0,0,2.25.949,8.334,8.334,0,0,1,3.082,1.676A2.945,2.945,0,0,1,917.309,324.5Zm2.894,2.262a1.739,1.739,0,0,1,.352-1.184,1.306,1.306,0,0,1,1.031-.41,1.359,1.359,0,0,1,1.055.41,1.991,1.991,0,0,1,0,2.356,1.383,1.383,0,0,1-1.055.41,1.422,1.422,0,0,1-1-.363A1.641,1.641,0,0,1,920.2,326.758Z" fill="#7f8699"/>
    <rect id="Rectangle_10" data-name="Rectangle 10" width="69.085" height="53.834" rx="6.5" transform="translate(301.903 283.361) rotate(5.735)" fill="#fff" stroke="#f9560f" stroke-width="3"/>
    <rect id="Rectangle_11" data-name="Rectangle 11" width="69.085" height="53.834" rx="6.5" transform="translate(288.195 298.75)" fill="#fff" stroke="#f9560f" stroke-width="3"/>
    <path id="Path_37" data-name="Path 37" d="M288,340.918l19.15-13.994a5,5,0,0,1,5.8-.068l14.023,9.755a5,5,0,0,0,5.25.285l25.246-13.771" fill="none" stroke="#f9560f" stroke-linecap="round" stroke-width="3"/>
    <circle id="Ellipse_2" data-name="Ellipse 2" cx="7.82" cy="7.82" r="7.82" transform="translate(321.695 308.528)" fill="none" stroke="#f9560f" stroke-width="3"/>
    <path id="Path_38" data-name="Path 38" d="M428.355,742V724.867h1.993V742Zm15.2,0v-8.309a3.353,3.353,0,0,0-.715-2.343,2.912,2.912,0,0,0-2.238-.774,3.7,3.7,0,0,0-2.954,1.09,5.5,5.5,0,0,0-.937,3.6V742h-1.945V729.156h1.582l.316,1.758h.094a3.931,3.931,0,0,1,1.676-1.465,5.4,5.4,0,0,1,2.4-.527,4.861,4.861,0,0,1,3.492,1.125,4.742,4.742,0,0,1,1.172,3.574V742Zm10.1-1.371a7,7,0,0,0,1-.07,7.339,7.339,0,0,0,.762-.164v1.488a3.487,3.487,0,0,1-.937.246,6.563,6.563,0,0,1-1.1.1q-3.726,0-3.727-3.925v-7.641h-1.839v-.938l1.839-.808.821-2.742h1.125v2.976h3.726v1.512h-3.726v7.559a2.6,2.6,0,0,0,.551,1.781A1.916,1.916,0,0,0,453.656,740.629Zm10.2-11.707a7.668,7.668,0,0,1,1.535.14l-.27,1.8a6.638,6.638,0,0,0-1.406-.176,3.44,3.44,0,0,0-2.672,1.266,4.632,4.632,0,0,0-1.1,3.152V742h-1.946V729.156H459.6l.222,2.379h.094a5.646,5.646,0,0,1,1.723-1.933A3.872,3.872,0,0,1,463.852,728.922Zm15.023,6.644a7.109,7.109,0,0,1-1.582,4.911,5.584,5.584,0,0,1-4.371,1.757,5.79,5.79,0,0,1-3.059-.808A5.338,5.338,0,0,1,467.8,739.1a8.073,8.073,0,0,1-.727-3.539,7.051,7.051,0,0,1,1.571-4.886A5.543,5.543,0,0,1,473,728.922a5.415,5.415,0,0,1,4.277,1.793A7.034,7.034,0,0,1,478.875,735.566Zm-9.785,0a6.1,6.1,0,0,0,.984,3.75,3.907,3.907,0,0,0,5.789.012,6.065,6.065,0,0,0,1-3.762,5.913,5.913,0,0,0-1-3.714,3.956,3.956,0,0,0-5.8-.024A6.037,6.037,0,0,0,469.09,735.566Zm21.949,4.711h-.105a4.572,4.572,0,0,1-4.032,1.957,4.785,4.785,0,0,1-3.925-1.722,7.607,7.607,0,0,1-1.395-4.9,7.712,7.712,0,0,1,1.406-4.933,4.732,4.732,0,0,1,3.914-1.758,4.671,4.671,0,0,1,4.008,1.9h.152l-.082-.925-.046-.9v-5.226h1.945V742H491.3Zm-3.891.328a3.531,3.531,0,0,0,2.883-1.078,5.472,5.472,0,0,0,.9-3.5v-.41a6.385,6.385,0,0,0-.914-3.89,3.423,3.423,0,0,0-2.895-1.172,2.986,2.986,0,0,0-2.625,1.336,6.615,6.615,0,0,0-.9,3.75,6.339,6.339,0,0,0,.9,3.715A3.055,3.055,0,0,0,487.148,740.6Zm11.7-11.449v8.332a3.351,3.351,0,0,0,.715,2.344,2.908,2.908,0,0,0,2.238.773,3.633,3.633,0,0,0,2.941-1.1,5.532,5.532,0,0,0,.938-3.6v-6.75h1.945V742h-1.605l-.282-1.723h-.105a3.865,3.865,0,0,1-1.664,1.453,5.534,5.534,0,0,1-2.414.5,4.932,4.932,0,0,1-3.516-1.113,4.755,4.755,0,0,1-1.16-3.562v-8.4Zm18.047,13.078a5.51,5.51,0,0,1-4.325-1.711,7.1,7.1,0,0,1-1.523-4.863,7.3,7.3,0,0,1,1.547-4.98,5.608,5.608,0,0,1,4.43-1.758,8.76,8.76,0,0,1,1.851.2,6.085,6.085,0,0,1,1.453.469l-.6,1.652a8.8,8.8,0,0,0-1.407-.422,6.086,6.086,0,0,0-1.347-.175q-3.915,0-3.914,4.992a5.972,5.972,0,0,0,.949,3.633,3.34,3.34,0,0,0,2.836,1.265,8.652,8.652,0,0,0,3.293-.691v1.722A7.013,7.013,0,0,1,516.891,742.234Zm11.73,0a5.922,5.922,0,0,1-4.5-1.734,6.728,6.728,0,0,1-1.641-4.816A7.464,7.464,0,0,1,524,730.75a5.1,5.1,0,0,1,4.113-1.828,4.835,4.835,0,0,1,3.821,1.594,6.064,6.064,0,0,1,1.406,4.183v1.231H524.5a5.106,5.106,0,0,0,1.137,3.433,3.967,3.967,0,0,0,3.058,1.172,10.351,10.351,0,0,0,4.1-.867V741.4a9.954,9.954,0,0,1-1.957.633A10.552,10.552,0,0,1,528.621,742.234Zm-.527-11.683a3.194,3.194,0,0,0-2.473,1.008,4.663,4.663,0,0,0-1.078,2.789h6.715a4.259,4.259,0,0,0-.82-2.813A2.881,2.881,0,0,0,528.094,730.551Zm12.773-1.4h2.086l2.813,7.324a27.768,27.768,0,0,1,1.148,3.622h.094q.152-.6.633-2.04t3.187-8.906h2.086L547.4,743.781a7.217,7.217,0,0,1-1.922,3.071,4.038,4.038,0,0,1-2.684.914,7.815,7.815,0,0,1-1.758-.2v-1.558a6.77,6.77,0,0,0,1.442.14,2.97,2.97,0,0,0,2.859-2.25l.715-1.828Zm25.219,6.41a7.109,7.109,0,0,1-1.582,4.911,5.584,5.584,0,0,1-4.371,1.757,5.791,5.791,0,0,1-3.059-.808,5.338,5.338,0,0,1-2.062-2.321,8.073,8.073,0,0,1-.727-3.539,7.055,7.055,0,0,1,1.57-4.886,5.545,5.545,0,0,1,4.36-1.758,5.415,5.415,0,0,1,4.277,1.793A7.034,7.034,0,0,1,566.086,735.566Zm-9.785,0a6.1,6.1,0,0,0,.984,3.75,3.907,3.907,0,0,0,5.789.012,6.065,6.065,0,0,0,1-3.762,5.913,5.913,0,0,0-1-3.714,3.956,3.956,0,0,0-5.8-.024A6.037,6.037,0,0,0,556.3,735.566Zm15.035-6.41v8.332a3.351,3.351,0,0,0,.715,2.344,2.908,2.908,0,0,0,2.238.773,3.633,3.633,0,0,0,2.941-1.1,5.532,5.532,0,0,0,.938-3.6v-6.75h1.945V742h-1.6l-.281-1.723h-.106a3.859,3.859,0,0,1-1.664,1.453,5.534,5.534,0,0,1-2.414.5,4.934,4.934,0,0,1-3.516-1.113,4.755,4.755,0,0,1-1.16-3.562v-8.4Zm18.773-.234a7.678,7.678,0,0,1,1.536.14l-.27,1.8a6.638,6.638,0,0,0-1.406-.176,3.44,3.44,0,0,0-2.672,1.266,4.628,4.628,0,0,0-1.1,3.152V742H584.25V729.156h1.6l.223,2.379h.094A5.636,5.636,0,0,1,587.9,729.6,3.869,3.869,0,0,1,590.109,728.922Zm14.321,11.707a7.021,7.021,0,0,0,1-.07,7.458,7.458,0,0,0,.762-.164v1.488a3.5,3.5,0,0,1-.938.246,6.545,6.545,0,0,1-1.1.1q-3.726,0-3.726-3.925v-7.641h-1.84v-.938l1.84-.808.82-2.742h1.125v2.976h3.727v1.512h-3.727v7.559a2.6,2.6,0,0,0,.551,1.781A1.916,1.916,0,0,0,604.43,740.629Zm9.761,1.6a5.922,5.922,0,0,1-4.5-1.734,6.732,6.732,0,0,1-1.64-4.816,7.469,7.469,0,0,1,1.523-4.934,5.1,5.1,0,0,1,4.114-1.828,4.834,4.834,0,0,1,3.82,1.594,6.064,6.064,0,0,1,1.406,4.183v1.231h-8.848a5.106,5.106,0,0,0,1.137,3.433,3.969,3.969,0,0,0,3.059,1.172,10.342,10.342,0,0,0,4.1-.867V741.4a9.93,9.93,0,0,1-1.957.633A10.545,10.545,0,0,1,614.191,742.234Zm-.527-11.683a3.2,3.2,0,0,0-2.473,1.008,4.669,4.669,0,0,0-1.078,2.789h6.715a4.254,4.254,0,0,0-.82-2.813A2.88,2.88,0,0,0,613.664,730.551ZM630.141,742l-.387-1.828h-.094a5.433,5.433,0,0,1-1.922,1.64,5.858,5.858,0,0,1-2.379.422,4.314,4.314,0,0,1-3-.984,3.6,3.6,0,0,1-1.078-2.8q0-3.891,6.223-4.078l2.18-.07v-.8a3.212,3.212,0,0,0-.657-2.227,2.643,2.643,0,0,0-2.074-.726,8.482,8.482,0,0,0-3.633.984l-.6-1.488a9.291,9.291,0,0,1,4.347-1.1,4.869,4.869,0,0,1,3.4,1.02,4.242,4.242,0,0,1,1.113,3.269V742Zm-4.4-1.371a3.929,3.929,0,0,0,2.848-1,3.675,3.675,0,0,0,1.043-2.789v-1.16l-1.946.082a7.045,7.045,0,0,0-3.351.726,2.163,2.163,0,0,0-1.02,1.981,2.012,2.012,0,0,0,.633,1.6A2.675,2.675,0,0,0,625.746,740.629Zm14.988,1.6a5.509,5.509,0,0,1-4.324-1.711,7.1,7.1,0,0,1-1.523-4.863,7.294,7.294,0,0,1,1.547-4.98,5.607,5.607,0,0,1,4.429-1.758,8.771,8.771,0,0,1,1.852.2,6.1,6.1,0,0,1,1.453.469l-.6,1.652a8.757,8.757,0,0,0-1.406-.422,6.087,6.087,0,0,0-1.348-.175q-3.914,0-3.914,4.992a5.972,5.972,0,0,0,.95,3.633,3.34,3.34,0,0,0,2.836,1.265,8.647,8.647,0,0,0,3.292-.691v1.722A7.007,7.007,0,0,1,640.734,742.234ZM655.828,742v-8.309a3.348,3.348,0,0,0-.715-2.343,2.909,2.909,0,0,0-2.238-.774,3.684,3.684,0,0,0-2.965,1.1,5.6,5.6,0,0,0-.926,3.609V742h-1.945V723.766h1.945v5.519a12.136,12.136,0,0,1-.093,1.653h.117a3.937,3.937,0,0,1,1.629-1.454,5.305,5.305,0,0,1,2.425-.539,4.917,4.917,0,0,1,3.528,1.125,4.679,4.679,0,0,1,1.183,3.551V742Zm11.379.234a5.922,5.922,0,0,1-4.5-1.734,6.728,6.728,0,0,1-1.641-4.816,7.464,7.464,0,0,1,1.524-4.934,5.1,5.1,0,0,1,4.113-1.828,4.833,4.833,0,0,1,3.82,1.594,6.06,6.06,0,0,1,1.407,4.183v1.231h-8.848a5.106,5.106,0,0,0,1.137,3.433,3.967,3.967,0,0,0,3.058,1.172,10.351,10.351,0,0,0,4.1-.867V741.4a9.954,9.954,0,0,1-1.957.633A10.558,10.558,0,0,1,667.207,742.234Zm-.527-11.683a3.194,3.194,0,0,0-2.473,1.008,4.663,4.663,0,0,0-1.078,2.789h6.715a4.254,4.254,0,0,0-.821-2.813A2.878,2.878,0,0,0,666.68,730.551Zm14.437-1.629a7.66,7.66,0,0,1,1.535.14l-.269,1.8a6.638,6.638,0,0,0-1.406-.176,3.44,3.44,0,0,0-2.672,1.266,4.628,4.628,0,0,0-1.1,3.152V742h-1.945V729.156h1.6l.223,2.379h.094A5.634,5.634,0,0,1,678.9,729.6,3.872,3.872,0,0,1,681.117,728.922ZM693.34,738.5A3.218,3.218,0,0,1,692,741.262a6.285,6.285,0,0,1-3.75.972,8.154,8.154,0,0,1-3.984-.808v-1.805a9.591,9.591,0,0,0,1.98.738,8.354,8.354,0,0,0,2.051.27,4.68,4.68,0,0,0,2.344-.481,1.623,1.623,0,0,0,.82-1.488,1.588,1.588,0,0,0-.656-1.277,9.927,9.927,0,0,0-2.532-1.266,14.29,14.29,0,0,1-2.554-1.16,3.615,3.615,0,0,1-1.125-1.137,2.976,2.976,0,0,1-.364-1.511,2.867,2.867,0,0,1,1.278-2.473,5.923,5.923,0,0,1,3.5-.914,10.243,10.243,0,0,1,4.054.844l-.691,1.582a9.292,9.292,0,0,0-3.5-.8,4.033,4.033,0,0,0-2.086.433,1.341,1.341,0,0,0-.7,1.2,1.482,1.482,0,0,0,.258.879,2.678,2.678,0,0,0,.855.691,19.01,19.01,0,0,0,2.25.949,8.325,8.325,0,0,1,3.082,1.676A2.945,2.945,0,0,1,693.34,738.5ZM704.7,742H702.75V729.156H704.7Zm-2.109-16.324a1.27,1.27,0,0,1,.328-.973,1.134,1.134,0,0,1,.82-.316,1.147,1.147,0,0,1,.809.316,1.267,1.267,0,0,1,.34.973,1.307,1.307,0,0,1-.34.984,1.147,1.147,0,0,1-.809.317,1.135,1.135,0,0,1-.82-.317A1.336,1.336,0,0,1,702.586,725.676ZM717.609,742v-8.309a3.353,3.353,0,0,0-.714-2.343,2.913,2.913,0,0,0-2.239-.774,3.693,3.693,0,0,0-2.953,1.09,5.5,5.5,0,0,0-.937,3.6V742H708.82V729.156H710.4l.317,1.758h.093a3.943,3.943,0,0,1,1.676-1.465,5.405,5.405,0,0,1,2.4-.527,4.861,4.861,0,0,1,3.492,1.125,4.742,4.742,0,0,1,1.172,3.574V742Zm18.3,0h-2.8V727.27h-5.039v-2.4h12.879v2.4h-5.039Zm13.043.234a6.3,6.3,0,0,1-4.734-1.757,6.731,6.731,0,0,1-1.7-4.864,7.349,7.349,0,0,1,1.582-4.992,5.465,5.465,0,0,1,4.348-1.816,5.341,5.341,0,0,1,4.055,1.558A5.957,5.957,0,0,1,754,734.652v1.489h-8.637a4.28,4.28,0,0,0,1.02,2.906,3.563,3.563,0,0,0,2.707,1.008,10.222,10.222,0,0,0,2.133-.211,11.539,11.539,0,0,0,2.133-.727v2.238a8.434,8.434,0,0,1-2.04.68A12.474,12.474,0,0,1,748.957,742.234Zm-.5-11.343a2.784,2.784,0,0,0-2.109.832,3.983,3.983,0,0,0-.938,2.425h5.883a3.564,3.564,0,0,0-.773-2.425A2.636,2.636,0,0,0,748.453,730.891ZM765.234,742l-.55-1.8h-.094a5.372,5.372,0,0,1-1.887,1.617,6.026,6.026,0,0,1-2.437.422,4.145,4.145,0,0,1-2.989-1.031,3.869,3.869,0,0,1-1.066-2.918,3.424,3.424,0,0,1,1.488-3.023,8.582,8.582,0,0,1,4.535-1.114l2.239-.07v-.691a2.586,2.586,0,0,0-.586-1.852,2.334,2.334,0,0,0-1.793-.621,6.228,6.228,0,0,0-1.91.293,14.388,14.388,0,0,0-1.758.691l-.891-1.968a9.359,9.359,0,0,1,2.309-.832,10.381,10.381,0,0,1,2.367-.293,5.583,5.583,0,0,1,3.727,1.078,4.212,4.212,0,0,1,1.265,3.387V742Zm-4.1-1.875a3.4,3.4,0,0,0,2.4-.832,3.045,3.045,0,0,0,.914-2.355v-1.126l-1.664.071a5.679,5.679,0,0,0-2.836.656,1.966,1.966,0,0,0-.879,1.77,1.749,1.749,0,0,0,.516,1.347A2.231,2.231,0,0,0,761.133,740.125Zm15.14,2.109a5.7,5.7,0,0,1-4.476-1.711,8.736,8.736,0,0,1,.07-9.961A5.956,5.956,0,0,1,776.5,728.8a8.681,8.681,0,0,1,3.692.761l-.833,2.215a8.34,8.34,0,0,0-2.882-.679q-3.365,0-3.364,4.464a5.41,5.41,0,0,0,.832,3.282,2.926,2.926,0,0,0,2.461,1.09,7.04,7.04,0,0,0,3.481-.915v2.4a5.435,5.435,0,0,1-1.582.621A9.386,9.386,0,0,1,776.273,742.234ZM794.332,742h-2.766v-7.969a3.463,3.463,0,0,0-.609-2.238,2.314,2.314,0,0,0-1.91-.738,3.049,3.049,0,0,0-2.555,1.043,5.716,5.716,0,0,0-.808,3.468V742H782.93V723.766h2.754V728.4a21.524,21.524,0,0,1-.141,2.378h.176a3.833,3.833,0,0,1,1.558-1.453,5.088,5.088,0,0,1,2.344-.515q4.712,0,4.711,4.746Zm9.492.234a6.3,6.3,0,0,1-4.734-1.757,6.73,6.73,0,0,1-1.7-4.864,7.344,7.344,0,0,1,1.582-4.992,5.463,5.463,0,0,1,4.347-1.816,5.341,5.341,0,0,1,4.055,1.558,5.957,5.957,0,0,1,1.488,4.289v1.489h-8.636a4.28,4.28,0,0,0,1.019,2.906,3.563,3.563,0,0,0,2.707,1.008,10.215,10.215,0,0,0,2.133-.211,11.539,11.539,0,0,0,2.133-.727v2.238a8.441,8.441,0,0,1-2.039.68A12.492,12.492,0,0,1,803.824,742.234Zm-.5-11.343a2.784,2.784,0,0,0-2.109.832,3.989,3.989,0,0,0-.938,2.425h5.883a3.559,3.559,0,0,0-.773-2.425A2.636,2.636,0,0,0,803.32,730.891Zm15.246-2.086a6.651,6.651,0,0,1,1.372.117l-.27,2.566a5.252,5.252,0,0,0-1.219-.14,3.543,3.543,0,0,0-2.683,1.078,3.909,3.909,0,0,0-1.02,2.8V742h-2.754V729.039h2.156l.364,2.285h.14a5.175,5.175,0,0,1,1.676-1.84A4.026,4.026,0,0,1,818.566,728.8Zm12.493,9.5a3.408,3.408,0,0,1-1.383,2.918,6.657,6.657,0,0,1-3.961,1.007,9.346,9.346,0,0,1-4.16-.785V739.07a10.213,10.213,0,0,0,4.254,1.055q2.543,0,2.543-1.535a1.212,1.212,0,0,0-.282-.82,3.313,3.313,0,0,0-.925-.68,15.906,15.906,0,0,0-1.793-.8,8.371,8.371,0,0,1-3.036-1.734,3.229,3.229,0,0,1-.785-2.25,2.947,2.947,0,0,1,1.336-2.579,6.367,6.367,0,0,1,3.656-.925,10.345,10.345,0,0,1,4.325.925l-.891,2.075a9.616,9.616,0,0,0-3.527-.867q-2.18,0-2.18,1.242a1.255,1.255,0,0,0,.562,1.031,12.725,12.725,0,0,0,2.485,1.16,11.31,11.31,0,0,1,2.332,1.137,3.175,3.175,0,0,1,1.43,2.8Zm2.578,2.226a1.8,1.8,0,0,1,.445-1.312,1.719,1.719,0,0,1,1.289-.457,1.689,1.689,0,0,1,1.3.48,1.8,1.8,0,0,1,.445,1.289,1.866,1.866,0,0,1-.457,1.324,1.968,1.968,0,0,1-2.578,0A1.87,1.87,0,0,1,833.637,740.535Z" fill="#7f8699"/>
    <path id="Path_39" data-name="Path 39" d="M332,769.672l13.325-20.656m0,0,11.757,20.656m-11.757-20.656v20.656" fill="none" stroke="#f9560f" stroke-linecap="round" stroke-width="3"/>
    <rect id="Rectangle_12" data-name="Rectangle 12" width="41.311" height="33.934" transform="translate(319.885 715.082)" fill="#fff"/>
    <path id="Path_40" data-name="Path 40" d="M317,718.033v-4.377a3,3,0,0,1,3-3h50.065a3,3,0,0,1,3,3v33.836a3,3,0,0,1-3,3H320a3,3,0,0,1-3-3v-5.853" fill="none" stroke="#f9560f" stroke-width="3"/>
    <circle id="Ellipse_3" data-name="Ellipse 3" cx="11.041" cy="11.041" r="11.041" transform="translate(285.975 691.5)" fill="none" stroke="#f9560f" stroke-width="3"/>
    <path id="Path_41" data-name="Path 41" d="M288.392,721.774l-5.133,23.967a1,1,0,0,0,.978,1.209h5.913l2.284,20.358a1,1,0,0,0,.993.888h9.335a1,1,0,0,0,.993-.888l3.747-33.4a1,1,0,0,1,1.224-.862l14.356,3.386a1,1,0,0,0,1.229-.973v-4.423a1,1,0,0,0-.541-.889l-17.515-9.051a.992.992,0,0,0-.459-.112H289.37A1,1,0,0,0,288.392,721.774Z" fill="#fff" stroke="#f9560f" stroke-linecap="round" stroke-width="3"/>
    <path id="Path_42" data-name="Path 42" d="M297.754,720.983v14.754" fill="none" stroke="#f9560f" stroke-linecap="round" stroke-width="3"/>
    <path id="Path_43" data-name="Path 43" d="M349.807,721.869l-25.495,7.967" fill="none" stroke="#f9560f" stroke-linecap="round" stroke-width="3"/>
    <rect id="Rectangle_13" data-name="Rectangle 13" width="80" height="59" rx="8.5" transform="translate(288.5 426.5)" fill="none" stroke="#f9560f" stroke-width="3"/>
    <path id="Path_44" data-name="Path 44" d="M318.088,464.787l-.083-18.356a5.5,5.5,0,0,1,8.229-4.8l15.938,9.106a5.5,5.5,0,0,1,.043,9.527l-15.856,9.249A5.5,5.5,0,0,1,318.088,464.787Z" fill="#fff" stroke="#f9560f" stroke-width="3"/>
  </g>
</svg>
