<svg width="154" height="128" viewBox="0 0 154 128" fill="none" xmlns="http://www.w3.org/2000/svg">
<path d="M152 111.727C152 115.344 150.563 118.812 148.006 121.37C145.449 123.927 141.98 125.364 138.364 125.364H15.6364C12.0198 125.364 8.55131 123.927 5.994 121.37C3.43668 118.812 2 115.344 2 111.727V36.7273C2 33.1107 3.43668 29.6422 5.994 27.0849C8.55131 24.5276 12.0198 23.0909 15.6364 23.0909H42.9091L56.5455 2.63635H97.4545L111.091 23.0909H138.364C141.98 23.0909 145.449 24.5276 148.006 27.0849C150.563 29.6422 152 33.1107 152 36.7273V111.727Z" stroke="#7F8699" stroke-width="4" stroke-linecap="round" stroke-linejoin="round"/>
<path d="M77.0003 98.0909C92.0626 98.0909 104.273 85.8805 104.273 70.8182C104.273 55.7559 92.0626 43.5454 77.0003 43.5454C61.938 43.5454 49.7275 55.7559 49.7275 70.8182C49.7275 85.8805 61.938 98.0909 77.0003 98.0909Z" stroke="#7F8699" stroke-width="4" stroke-linecap="round" stroke-linejoin="round"/>
</svg>
