<svg width="90" height="90" viewBox="0 0 90 90" fill="none" xmlns="http://www.w3.org/2000/svg">
<circle cx="45" cy="45" r="45" fill="#F3F4F9"/>
<path d="M54.707 44.8482C55.1874 44.907 55.5559 45.2117 55.9299 45.5936C58.4945 48.2076 59.9754 51.7214 59.9999 55.3423C60.0163 57.7812 57.393 59.5583 54.6974 60.509C50.3421 62.0442 45.5296 62.2783 40.8617 61.733C37.7894 61.3747 34.6529 60.7575 32.1088 58.911C30.9514 58.0715 29.9905 56.8383 30.0001 55.3437C30.0246 51.6547 31.5506 48.0952 34.197 45.4641C34.8699 44.7946 36.1352 44.7109 36.591 45.6406C36.8681 46.2056 36.617 46.8202 36.1079 47.3302C34.0196 49.446 32.7858 52.3242 32.7298 55.2142C32.708 56.2996 33.8818 57.0175 34.9818 57.5406C37.8194 58.8901 41.0937 59.2863 44.3271 59.3491C47.8539 59.4171 51.4654 59.0823 54.6414 57.7106C55.5436 57.3209 56.4717 56.8671 57.0341 56.0707C57.3425 55.6353 57.2784 55.0154 57.2292 54.4479C56.9917 51.6939 55.6897 49.0406 53.6287 47.0752C53.6287 47.0752 53.3134 46.7221 53.2493 46.3795C53.1046 45.6066 53.8266 44.8129 54.707 44.8482ZM45.0614 28C48.5528 28.0314 51.9499 30.04 53.5263 33.032C54.838 35.5218 54.8666 38.5962 53.6028 41.1095C51.5377 45.2143 46.0073 47.4531 41.3394 45.5923C38.293 44.3774 36.0055 41.5568 35.5469 38.4222C35.1279 35.5558 36.228 32.5246 38.4159 30.5264C40.152 28.9402 42.5023 28.0222 44.9386 28C44.9795 28 45.0205 28 45.0614 28ZM44.9563 30.6128C41.8431 30.6415 38.9454 32.9077 38.3203 35.8291C37.8645 37.9593 38.6097 40.2948 40.238 41.8183C42.1201 43.5797 45.1065 44.163 47.5755 43.1953C50.4567 42.0654 52.287 38.8629 51.6961 35.9089C51.116 33.0124 48.2866 30.6808 45.1324 30.6141C45.0737 30.6128 45.015 30.6128 44.9563 30.6128Z" fill="#7F8699"/>
</svg>
