<svg width="131" height="131" viewBox="0 0 131 131" fill="none" xmlns="http://www.w3.org/2000/svg">
<path d="M58.75 16H15C11.6848 16 8.50537 17.317 6.16116 19.6612C3.81696 22.0054 2.5 25.1848 2.5 28.5V116C2.5 119.315 3.81696 122.495 6.16116 124.839C8.50537 127.183 11.6848 128.5 15 128.5H102.5C105.815 128.5 108.995 127.183 111.339 124.839C113.683 122.495 115 119.315 115 116V72.25" stroke="#7F8699" stroke-width="4" stroke-linecap="round" stroke-linejoin="round"/>
<path d="M105.625 6.62501C108.111 4.13861 111.484 2.74176 115 2.74176C118.516 2.74176 121.889 4.13861 124.375 6.62501C126.861 9.11142 128.258 12.4837 128.258 16C128.258 19.5163 126.861 22.8886 124.375 25.375L65 84.75L40 91L46.25 66L105.625 6.62501Z" stroke="#7F8699" stroke-width="4" stroke-linecap="round" stroke-linejoin="round"/>
</svg>
