<svg width="15" height="27" viewBox="0 0 15 27" fill="none" xmlns="http://www.w3.org/2000/svg">
<path d="M2.76808 1.31853C2.20726 0.708797 1.25834 0.669149 0.648606 1.22997C0.0388755 1.79079 -0.000773072 2.73971 0.560048 3.34944L2.76808 1.31853ZM12.3307 13.9309L13.4109 14.9717L14.3907 13.9548L13.4347 12.9154L12.3307 13.9309ZM0.583918 23.9598C0.00909388 24.5564 0.026704 25.506 0.623251 26.0808C1.2198 26.6556 2.16938 26.638 2.74421 26.0415L0.583918 23.9598ZM0.560048 3.34944L11.2267 14.9463L13.4347 12.9154L2.76808 1.31853L0.560048 3.34944ZM11.2506 12.8901L0.583918 23.9598L2.74421 26.0415L13.4109 14.9717L11.2506 12.8901Z" fill="#7F8699"/>
</svg>
