<svg width="30" height="27" viewBox="0 0 30 27" fill="none" xmlns="http://www.w3.org/2000/svg">
<path d="M28.2134 10.7092L4.0086 0.233189C2.9889 -0.208194 1.83688 -0.014027 1.00221 0.739661C0.167544 1.49347 -0.181557 2.65493 0.0912554 3.77073L2.24569 12.5832H12.7941C13.2795 12.5832 13.6731 12.9937 13.6731 13.5C13.6731 14.0063 13.2796 14.4168 12.7941 14.4168H2.24569L0.0912554 23.2293C-0.181557 24.3451 0.167486 25.5066 1.00221 26.2603C1.83858 27.0156 2.99071 27.2073 4.00866 26.7668L28.2134 16.2909C29.3154 15.814 30 14.7445 30 13.5C30 12.2555 29.3154 11.186 28.2134 10.7092Z" fill="#7F8699"/>
</svg>
