<svg width="146" height="128" viewBox="0 0 146 128" fill="none" xmlns="http://www.w3.org/2000/svg">
<path d="M132.67 13.1175C129.223 9.66827 125.129 6.93211 120.624 5.06531C116.119 3.19851 111.29 2.23767 106.413 2.23767C101.536 2.23767 96.707 3.19851 92.2017 5.06531C87.6963 6.93211 83.6029 9.66827 80.1553 13.1175L73.0003 20.2725L65.8453 13.1175C58.8814 6.15357 49.4363 2.24128 39.5878 2.24128C29.7393 2.24128 20.2942 6.15357 13.3303 13.1175C6.36639 20.0814 2.4541 29.5265 2.4541 39.375C2.4541 49.2235 6.36639 58.6686 13.3303 65.6325L20.4853 72.7875L73.0003 125.302L125.515 72.7875L132.67 65.6325C136.12 62.1849 138.856 58.0915 140.722 53.5861C142.589 49.0808 143.55 44.2518 143.55 39.375C143.55 34.4982 142.589 29.6692 140.722 25.1638C138.856 20.6585 136.12 16.5651 132.67 13.1175V13.1175Z" stroke="#7F8699" stroke-width="4" stroke-linecap="round" stroke-linejoin="round"/>
</svg>
