<svg width="18" height="18" viewBox="0 0 18 18" fill="none" xmlns="http://www.w3.org/2000/svg">
<circle cx="9" cy="9" r="9" fill="white"/>
<path d="M10.9414 8.96964C11.0375 8.98141 11.1112 9.04235 11.186 9.11872C11.6989 9.64153 11.9951 10.3443 12 11.0685C12.0033 11.5562 11.4786 11.9117 10.9395 12.1018C10.0684 12.4088 9.10591 12.4557 8.17234 12.3466C7.55788 12.2749 6.93058 12.1515 6.42176 11.7822C6.19028 11.6143 5.9981 11.3677 6.00001 11.0687C6.00493 10.3309 6.31011 9.61904 6.83941 9.09282C6.97399 8.95892 7.22703 8.94218 7.31821 9.12813C7.37362 9.24112 7.32339 9.36404 7.22157 9.46604C6.80392 9.8892 6.55715 10.4648 6.54596 11.0428C6.54159 11.2599 6.77635 11.4035 6.99637 11.5081C7.56388 11.778 8.21875 11.8573 8.86542 11.8698C9.57079 11.8834 10.2931 11.8165 10.9283 11.5421C11.1087 11.4642 11.2943 11.3734 11.4068 11.2141C11.4685 11.1271 11.4557 11.0031 11.4458 10.8896C11.3983 10.3388 11.1379 9.80813 10.7257 9.41504C10.7257 9.41504 10.6627 9.34442 10.6499 9.2759C10.6209 9.12133 10.7653 8.96258 10.9414 8.96964ZM9.01228 5.6C9.71055 5.60628 10.39 6.008 10.7053 6.6064C10.9676 7.10436 10.9733 7.71923 10.7206 8.22191C10.3075 9.04287 9.20145 9.49062 8.26788 9.11845C7.6586 8.87549 7.2011 8.31135 7.10938 7.68445C7.02558 7.11116 7.24559 6.50492 7.68317 6.10529C8.0304 5.78805 8.50046 5.60445 8.98772 5.6C8.9959 5.6 9.00409 5.6 9.01228 5.6ZM8.99126 6.12255C8.36861 6.12831 7.78909 6.58155 7.66406 7.16582C7.57289 7.59187 7.72193 8.05897 8.04759 8.36366C8.42402 8.71595 9.02129 8.83259 9.5151 8.63906C10.0913 8.41309 10.4574 7.77259 10.3392 7.18178C10.2232 6.60247 9.65732 6.13615 9.02648 6.12281C9.01474 6.12255 9.003 6.12255 8.99126 6.12255Z" fill="#C4C4C4"/>
</svg>
