<svg width="22" height="25" viewBox="0 0 22 25" fill="none" xmlns="http://www.w3.org/2000/svg">
<path d="M7.49478 25C3.77402 24.9786 0.696289 17.3833 0.696289 13.5151C0.696289 7.19659 5.43628 5.81329 7.26304 5.81329C8.08628 5.81329 8.96533 6.13658 9.74067 6.42266C10.2829 6.62222 10.8436 6.82823 11.1555 6.82823C11.3421 6.82823 11.782 6.65298 12.1704 6.49923C12.9987 6.16949 14.0293 5.75967 15.2295 5.75967C15.2317 5.75967 15.2346 5.75967 15.2367 5.75967C16.1329 5.75967 18.8501 5.95635 20.4838 8.40967L20.8665 8.98472L20.3157 9.4003C19.529 9.99395 18.0934 11.0769 18.0934 13.2219C18.0934 15.7625 19.7192 16.7396 20.5002 17.2095C20.845 17.4169 21.2019 17.6308 21.2019 18.0985C21.2019 18.404 18.7643 24.9621 15.2245 24.9621C14.3583 24.9621 13.7461 24.7018 13.2061 24.4722C12.6596 24.2397 12.1882 24.0395 11.4093 24.0395C11.0145 24.0395 10.5152 24.2261 9.98667 24.4243C9.26436 24.6939 8.44678 25 7.51909 25H7.49478Z" fill="white"/>
<path d="M15.6044 0C15.6966 3.32402 13.3194 5.63008 10.945 5.48545C10.5537 2.83276 13.3191 0 15.6044 0Z" fill="white"/>
</svg>
