<svg width="27" height="22" viewBox="0 0 27 22" fill="none" xmlns="http://www.w3.org/2000/svg">
<path d="M18.6077 20.9999V18.7777C18.6077 17.599 18.1439 16.4685 17.3184 15.635C16.4928 14.8015 15.3732 14.3333 14.2057 14.3333H5.40191C4.23445 14.3333 3.11481 14.8015 2.28929 15.635C1.46377 16.4685 1 17.599 1 18.7777V20.9999" stroke="#F9560F" stroke-width="2" stroke-linecap="round" stroke-linejoin="round"/>
<path d="M9.80383 9.88889C12.2349 9.88889 14.2057 7.89904 14.2057 5.44444C14.2057 2.98985 12.2349 1 9.80383 1C7.37272 1 5.40192 2.98985 5.40192 5.44444C5.40192 7.89904 7.37272 9.88889 9.80383 9.88889Z" stroke="#F9560F" stroke-width="2" stroke-linecap="round" stroke-linejoin="round"/>
<path d="M25.2105 21V18.7778C25.2098 17.793 24.8852 16.8364 24.2876 16.0581C23.6901 15.2798 22.8534 14.724 21.9091 14.4778" stroke="#F9560F" stroke-width="2" stroke-linecap="round" stroke-linejoin="round"/>
<path d="M17.5072 1.14453C18.454 1.38931 19.2933 1.94531 19.8926 2.72488C20.4919 3.50444 20.8172 4.46323 20.8172 5.45009C20.8172 6.43694 20.4919 7.39573 19.8926 8.1753C19.2933 8.95486 18.454 9.51086 17.5072 9.75564" stroke="#F9560F" stroke-width="2" stroke-linecap="round" stroke-linejoin="round"/>
</svg>
