<svg width="12" height="12" viewBox="0 0 12 12" fill="none" xmlns="http://www.w3.org/2000/svg">
<path d="M10.3753 11.6875H10.3009C1.70401 11.1931 0.483386 3.93938 0.312761 1.72563C0.299013 1.5535 0.319362 1.38036 0.372644 1.21612C0.425925 1.05187 0.511091 0.899758 0.623262 0.768485C0.735433 0.637213 0.872405 0.529363 1.02633 0.451117C1.18025 0.372871 1.3481 0.325766 1.52026 0.3125H3.93089C4.10613 0.312331 4.27739 0.364786 4.42247 0.463071C4.56756 0.561356 4.6798 0.700943 4.74464 0.863751L5.40964 2.5C5.47366 2.65905 5.48955 2.83341 5.45533 3.00142C5.42111 3.16942 5.33828 3.32367 5.21714 3.445L4.28526 4.38563C4.43082 5.21283 4.82697 5.97535 5.42009 6.57004C6.01321 7.16473 6.77469 7.56288 7.60151 7.71062L8.55089 6.77C8.67404 6.65019 8.82974 6.5693 8.99857 6.5374C9.1674 6.5055 9.34188 6.52401 9.50026 6.59063L11.1496 7.25125C11.31 7.31814 11.4468 7.43125 11.5426 7.57617C11.6385 7.72109 11.689 7.89126 11.6878 8.065V10.375C11.6878 10.7231 11.5495 11.0569 11.3033 11.3031C11.0572 11.5492 10.7234 11.6875 10.3753 11.6875ZM1.62526 1.1875C1.50923 1.1875 1.39795 1.23359 1.3159 1.31564C1.23385 1.39769 1.18776 1.50897 1.18776 1.625V1.66C1.38901 4.25 2.67964 10.375 10.349 10.8125C10.4065 10.8161 10.4641 10.8082 10.5185 10.7895C10.573 10.7707 10.6232 10.7414 10.6663 10.7032C10.7094 10.665 10.7445 10.6186 10.7696 10.5668C10.7948 10.515 10.8094 10.4587 10.8128 10.4012V8.065L9.16338 7.40437L7.90776 8.65125L7.69776 8.625C3.89151 8.14813 3.37526 4.34188 3.37526 4.3025L3.34901 4.0925L4.59151 2.83688L3.93526 1.1875H1.62526Z" fill="#7F8699"/>
</svg>
