<svg width="13" height="13" viewBox="0 0 13 13" fill="none" xmlns="http://www.w3.org/2000/svg">
<path d="M6.5 12.5C8.0913 12.5 9.61742 11.8679 10.7426 10.7426C11.8679 9.61742 12.5 8.0913 12.5 6.5C12.5 4.9087 11.8679 3.38258 10.7426 2.25736C9.61742 1.13214 8.0913 0.5 6.5 0.5C4.9087 0.5 3.38258 1.13214 2.25736 2.25736C1.13214 3.38258 0.5 4.9087 0.5 6.5C0.5 8.0913 1.13214 9.61742 2.25736 10.7426C3.38258 11.8679 4.9087 12.5 6.5 12.5ZM6.5 1.25C6.99275 1.25 7.55525 1.6925 8.0165 2.681C8.17925 3.0305 8.321 3.4325 8.43575 3.875H4.56425C4.679 3.4325 4.82075 3.0305 4.98425 2.681C5.444 1.6925 6.0065 1.25 6.5 1.25ZM4.304 2.36375C4.08253 2.84886 3.9109 3.35521 3.79175 3.875H1.952C2.58518 2.78065 3.59092 1.95061 4.7855 1.5365C4.60475 1.784 4.4435 2.0645 4.304 2.36375ZM3.644 4.625C3.54693 5.24526 3.49879 5.87219 3.5 6.5C3.5 7.1525 3.55025 7.784 3.64475 8.375H1.595C1.36627 7.77637 1.24933 7.14084 1.25 6.5C1.25 5.84 1.37225 5.207 1.595 4.625H3.64475H3.644ZM3.79175 9.125C3.92375 9.68225 4.097 10.1915 4.304 10.6362C4.4435 10.9355 4.60475 11.216 4.7855 11.4635C3.59092 11.0494 2.58518 10.2193 1.952 9.125H3.7925H3.79175ZM4.56425 9.125H8.43575C8.33243 9.53497 8.19185 9.93463 8.01575 10.319C7.556 11.3075 6.9935 11.75 6.5 11.75C6.00725 11.75 5.44475 11.3075 4.9835 10.319C4.80794 9.93457 4.66786 9.53491 4.565 9.125H4.56425ZM8.5955 8.375H4.4045C4.30028 7.75547 4.2486 7.12824 4.25 6.5C4.25 5.83775 4.30475 5.20625 4.4045 4.625H8.5955C8.69525 5.20625 8.75 5.83775 8.75 6.5C8.75 7.16225 8.69525 7.79375 8.5955 8.375ZM9.20825 9.125H11.048C10.4148 10.2193 9.40908 11.0494 8.2145 11.4635C8.39525 11.216 8.5565 10.9355 8.696 10.6362C8.903 10.1915 9.07625 9.68225 9.20825 9.125ZM11.4057 8.375H9.35525C9.44975 7.784 9.5 7.1525 9.5 6.5C9.5 5.8475 9.44975 5.216 9.35525 4.625H11.405C11.6277 5.207 11.75 5.84 11.75 6.5C11.75 7.16 11.6277 7.793 11.405 8.375H11.4057ZM8.2145 1.5365C9.40911 1.95055 10.4149 2.78061 11.048 3.875H9.2075C9.08834 3.35521 8.91671 2.84886 8.69525 2.36375C8.5617 2.07317 8.40046 1.79614 8.21375 1.5365H8.2145Z" fill="#7F8699"/>
</svg>
