<svg width="65" height="65" viewBox="0 0 65 65" fill="none" xmlns="http://www.w3.org/2000/svg">
<rect width="65" height="65" rx="6" fill="#22BCE0"/>
<path d="M32 62C48.5685 62 62 48.5685 62 32C62 15.4315 48.5685 2 32 2C15.4315 2 2 15.4315 2 32C2 48.5685 15.4315 62 32 62Z" fill="#22BCE0"/>
<path d="M44.7573 25.8276V51.239C44.7573 51.9079 44.5864 52.5358 44.2854 53.0833C43.9238 53.7423 43.3738 54.2836 42.7074 54.6341C42.1748 54.9152 41.5667 55.0737 40.9225 55.0737H23.0792C22.4326 55.0737 21.8244 54.914 21.2907 54.6316C20.6268 54.2811 20.078 53.7411 19.7164 53.0833C19.4154 52.5358 19.2444 51.9079 19.2444 51.239V25.8276C19.2444 24.3561 20.0731 23.0779 21.2907 22.435C21.8246 22.1526 22.4326 21.9929 23.0792 21.9929H40.9226C41.5667 21.9929 42.1749 22.1514 42.7075 22.4326C43.9262 23.0755 44.7573 24.3536 44.7573 25.8276V25.8276Z" fill="#E9465E"/>
<path d="M23.3359 25.8276V51.239C23.3359 52.7106 22.5072 53.9887 21.2896 54.6316C20.6258 54.2811 20.077 53.7411 19.7154 53.0833C19.4144 52.5358 19.2434 51.9079 19.2434 51.239V25.8276C19.2434 24.3561 20.0721 23.0779 21.2896 22.4351C22.5072 23.0779 23.3359 24.3561 23.3359 25.8276V25.8276Z" fill="#C0405C"/>
<path d="M44.7564 25.8276V51.239C44.7564 51.9079 44.5855 52.5358 44.2845 53.0833C43.9229 53.7422 43.3729 54.2835 42.7065 54.634C41.4877 53.9912 40.6566 52.713 40.6566 51.239V25.8276C40.6566 24.3536 41.4877 23.0754 42.7065 22.4326C43.9253 23.0754 44.7564 24.3536 44.7564 25.8276Z" fill="#EE6781"/>
<path d="M44.2845 53.0833C43.9229 53.7423 43.3729 54.2836 42.7065 54.6341C42.1739 54.9152 41.5658 55.0738 40.9216 55.0738H23.0783C22.4318 55.0738 21.8236 54.914 21.2898 54.6316C20.6259 54.2811 20.0771 53.7411 19.7155 53.0833C20.367 51.8967 21.6292 51.0929 23.0783 51.0929H40.9217C42.3709 51.0929 43.6331 51.8967 44.2845 53.0833Z" fill="#C0405C"/>
<path d="M42.7066 43.5508C41.5744 43.5508 40.6566 42.633 40.6566 41.5009V33.5451C40.6566 32.413 41.5744 31.4951 42.7065 31.4951C43.8386 31.4951 44.7563 32.413 44.7563 33.5451V41.5009C44.7564 42.633 43.8387 43.5508 42.7066 43.5508V43.5508Z" fill="#F0A6B3"/>
<path d="M37.9373 24.1201H30.8353C30.2479 24.1201 29.7718 23.6439 29.7718 23.0566C29.7718 22.4692 30.2479 21.9931 30.8353 21.9931H37.9373C38.5246 21.9931 39.0008 22.4692 39.0008 23.0566C39.0008 23.6439 38.5246 24.1201 37.9373 24.1201Z" fill="#F0A6B3"/>
<path d="M38.4417 31.8805H27.05C26.4627 31.8805 25.9865 31.4043 25.9865 30.817C25.9865 30.2296 26.4627 29.7535 27.05 29.7535H38.4417C39.029 29.7535 39.5052 30.2296 39.5052 30.817C39.5052 31.4043 39.029 31.8805 38.4417 31.8805Z" fill="#C0405C"/>
<path d="M42.8292 26.2252V27.6484C42.8292 27.7036 42.8264 27.7588 42.8223 27.8127C42.7394 28.899 41.8311 29.7535 40.724 29.7535H23.276C22.1689 29.7535 21.2606 28.8991 21.1777 27.8127C21.1736 27.7589 21.1708 27.7036 21.1708 27.6484V26.2252C21.1708 25.063 22.1136 24.1202 23.2759 24.1202H40.7239C41.8863 24.1201 42.8292 25.063 42.8292 26.2252V26.2252Z" fill="#2D2C33"/>
<path d="M42.8223 27.8126C42.7394 28.899 41.8311 29.7535 40.724 29.7535H23.276C22.1689 29.7535 21.2606 28.8991 21.1777 27.8126C21.2606 26.7249 22.1689 25.8705 23.276 25.8705H40.724C41.8311 25.8704 42.7394 26.7249 42.8223 27.8126Z" fill="#334353"/>
<path d="M25.5623 28.2903C25.5623 28.4638 25.4642 28.5504 25.2679 28.5504H23.4036C23.3185 28.5504 23.2515 28.525 23.2024 28.4743C23.1533 28.4236 23.1288 28.3606 23.1288 28.2854C23.1288 28.1873 23.1664 28.0989 23.2418 28.0204L24.3603 26.8184C24.4977 26.6681 24.5982 26.5298 24.6621 26.4038C24.7258 26.278 24.7577 26.1528 24.7577 26.0285C24.7577 25.8747 24.7135 25.7571 24.6253 25.6753C24.537 25.5936 24.411 25.5526 24.2475 25.5526C24.1133 25.5526 23.9832 25.5779 23.8574 25.6286C23.7314 25.6795 23.6047 25.7489 23.4773 25.8372C23.4446 25.8602 23.4118 25.8789 23.3792 25.8936C23.3465 25.9084 23.3137 25.9157 23.2811 25.9157C23.2255 25.9157 23.1772 25.8896 23.1363 25.8372C23.0954 25.785 23.075 25.7229 23.075 25.6508C23.075 25.6017 23.0839 25.5593 23.102 25.5232C23.1199 25.4872 23.1485 25.4529 23.1879 25.4202C23.3318 25.3057 23.5002 25.2148 23.6932 25.1478C23.8861 25.0808 24.0791 25.0471 24.2722 25.0471C24.609 25.0471 24.8781 25.1322 25.0793 25.3024C25.2805 25.4724 25.381 25.7014 25.381 25.9892C25.381 26.1888 25.3385 26.3761 25.2535 26.551C25.1684 26.726 25.0245 26.9214 24.8218 27.1373L23.973 28.04H25.2683C25.4641 28.04 25.5623 28.1234 25.5623 28.2903V28.2903Z" fill="#CDE6F6"/>
<path d="M29.7105 26.9927C29.7513 27.0336 29.7718 27.085 29.7718 27.1473C29.7718 27.2095 29.7513 27.2609 29.7105 27.3018C29.6695 27.3427 29.618 27.3631 29.5559 27.3631H28.7906V28.1234C28.7906 28.1857 28.7701 28.2379 28.7293 28.2803C28.6883 28.3229 28.6368 28.3442 28.5747 28.3442C28.5125 28.3442 28.4609 28.3229 28.4202 28.2803C28.3791 28.2379 28.3589 28.1855 28.3589 28.1234V27.3631H27.5935C27.5313 27.3631 27.4797 27.3427 27.4388 27.3018C27.3979 27.2609 27.3775 27.2095 27.3775 27.1473C27.3775 27.085 27.3979 27.0336 27.4388 26.9927C27.4797 26.9518 27.5313 26.9314 27.5935 26.9314H28.3589V26.1661C28.3589 26.1038 28.3793 26.0524 28.4202 26.0114C28.4609 25.9706 28.5125 25.9501 28.5747 25.9501C28.6368 25.9501 28.6883 25.9705 28.7293 26.0114C28.7701 26.0524 28.7906 26.1038 28.7906 26.1661V26.9314H29.5559C29.618 26.9313 29.6695 26.9518 29.7105 26.9927Z" fill="#CDE6F6"/>
<path d="M34.1137 28.2903C34.1137 28.4638 34.0156 28.5504 33.8193 28.5504H31.9549C31.8698 28.5504 31.8028 28.525 31.7537 28.4743C31.7046 28.4236 31.6801 28.3606 31.6801 28.2854C31.6801 28.1873 31.7177 28.0989 31.7931 28.0204L32.9117 26.8184C33.0491 26.6681 33.1496 26.5298 33.2135 26.4038C33.2772 26.278 33.3091 26.1528 33.3091 26.0285C33.3091 25.8747 33.2649 25.7571 33.1767 25.6753C33.0884 25.5936 32.9623 25.5526 32.7989 25.5526C32.6647 25.5526 32.5346 25.5779 32.4088 25.6286C32.2828 25.6795 32.1561 25.7489 32.0286 25.8372C31.9959 25.8602 31.9631 25.8789 31.9305 25.8936C31.8978 25.9084 31.865 25.9157 31.8324 25.9157C31.7768 25.9157 31.7285 25.8896 31.6876 25.8372C31.6467 25.785 31.6263 25.7229 31.6263 25.6508C31.6263 25.6017 31.6352 25.5593 31.6532 25.5232C31.6712 25.4872 31.6998 25.4529 31.7391 25.4202C31.8831 25.3057 32.0515 25.2148 32.2445 25.1478C32.4374 25.0808 32.6304 25.0471 32.8235 25.0471C33.1603 25.0471 33.4295 25.1322 33.6306 25.3024C33.8318 25.4724 33.9322 25.7014 33.9322 25.9892C33.9322 26.1888 33.8897 26.3761 33.8048 26.551C33.7197 26.726 33.5758 26.9214 33.3731 27.1373L32.5243 28.04H33.8196C34.0156 28.04 34.1137 28.1234 34.1137 28.2903V28.2903Z" fill="#CDE6F6"/>
<path d="M25.501 33.8449V35.2062C25.501 35.3127 25.4788 35.413 25.4366 35.5035C25.3238 35.7561 25.0699 35.932 24.7752 35.932H21.8966C21.6018 35.932 21.3479 35.7561 21.2352 35.5035C21.1931 35.413 21.1707 35.3127 21.1707 35.2062V33.8449C21.1707 33.4448 21.4952 33.119 21.8966 33.119H24.7752C25.1764 33.119 25.501 33.4448 25.501 33.8449V33.8449Z" fill="#334353"/>
<path d="M25.4366 35.5033C25.3238 35.756 25.0699 35.9319 24.7752 35.9319H21.8966C21.6018 35.9319 21.3479 35.756 21.2352 35.5033C21.3479 35.2518 21.6018 35.076 21.8966 35.076H24.7752C25.07 35.076 25.3238 35.2519 25.4366 35.5033Z" fill="#2E3140"/>
<path d="M25.501 33.8449V34.6611H22.9482C22.5468 34.6611 22.2223 34.3366 22.2223 33.9353V33.119H24.7751C25.1764 33.119 25.501 33.4448 25.501 33.8449Z" fill="#3E4E60"/>
<path d="M31.2771 33.8449V35.2062C31.2771 35.3127 31.2548 35.413 31.2126 35.5035C31.0999 35.7561 30.8459 35.932 30.5512 35.932H27.6726C27.3779 35.932 27.1239 35.7561 27.0112 35.5035C26.9691 35.413 26.9468 35.3127 26.9468 35.2062V33.8449C26.9468 33.4448 27.2713 33.119 27.6726 33.119H30.5512C30.9525 33.119 31.2771 33.4448 31.2771 33.8449V33.8449Z" fill="#334353"/>
<path d="M31.2126 35.5033C31.0999 35.756 30.8459 35.9319 30.5512 35.9319H27.6726C27.3779 35.9319 27.1239 35.756 27.0112 35.5033C27.1239 35.2518 27.3779 35.076 27.6726 35.076H30.5512C30.846 35.076 31.0999 35.2519 31.2126 35.5033Z" fill="#2E3140"/>
<path d="M31.2771 33.8449V34.6611H28.7243C28.3229 34.6611 27.9984 34.3366 27.9984 33.9353V33.119H30.5512C30.9525 33.119 31.2771 33.4448 31.2771 33.8449Z" fill="#3E4E60"/>
<path d="M37.0531 33.8449V35.2062C37.0531 35.3127 37.0309 35.413 36.9887 35.5035C36.8759 35.7561 36.622 35.932 36.3273 35.932H33.4487C33.1539 35.932 32.9 35.7561 32.7873 35.5035C32.7452 35.413 32.7228 35.3127 32.7228 35.2062V33.8449C32.7228 33.4448 33.0473 33.119 33.4487 33.119H36.3273C36.7285 33.119 37.0531 33.4448 37.0531 33.8449Z" fill="#334353"/>
<path d="M36.9887 35.5033C36.8759 35.756 36.622 35.9319 36.3273 35.9319H33.4487C33.1539 35.9319 32.9 35.756 32.7873 35.5033C32.9 35.2518 33.1539 35.076 33.4487 35.076H36.3273C36.6221 35.076 36.8759 35.2519 36.9887 35.5033Z" fill="#2E3140"/>
<path d="M37.0531 33.8449V34.6611H34.5003C34.0991 34.6611 33.7744 34.3366 33.7744 33.9353V33.119H36.3273C36.7285 33.119 37.0531 33.4448 37.0531 33.8449Z" fill="#3E4E60"/>
<path d="M42.8292 33.8449V35.2062C42.8292 35.3127 42.8069 35.413 42.7647 35.5035C42.652 35.7561 42.398 35.932 42.1033 35.932H39.2247C38.93 35.932 38.676 35.7561 38.5633 35.5035C38.5212 35.413 38.4989 35.3127 38.4989 35.2062V33.8449C38.4989 33.4448 38.8233 33.119 39.2247 33.119H42.1033C42.5046 33.119 42.8292 33.4448 42.8292 33.8449Z" fill="#334353"/>
<path d="M42.7647 35.5033C42.652 35.756 42.3981 35.9319 42.1033 35.9319H39.2247C38.93 35.9319 38.6761 35.756 38.5633 35.5033C38.6761 35.2518 38.93 35.076 39.2247 35.076H42.1033C42.3981 35.076 42.652 35.2519 42.7647 35.5033Z" fill="#2E3140"/>
<path d="M42.8292 33.8449V34.6611H40.2764C39.875 34.6611 39.5505 34.3366 39.5505 33.9353V33.119H42.1033C42.5046 33.119 42.8292 33.4448 42.8292 33.8449Z" fill="#3E4E60"/>
<path d="M25.501 37.8964V39.2577C25.501 39.3642 25.4788 39.4645 25.4366 39.555C25.3238 39.8076 25.0699 39.9835 24.7752 39.9835H21.8966C21.6018 39.9835 21.3479 39.8076 21.2352 39.555C21.1931 39.4645 21.1707 39.3642 21.1707 39.2577V37.8964C21.1707 37.4963 21.4952 37.1706 21.8966 37.1706H24.7752C25.1764 37.1706 25.501 37.4963 25.501 37.8964V37.8964Z" fill="#334353"/>
<path d="M25.4366 39.5548C25.3238 39.8075 25.0699 39.9834 24.7752 39.9834H21.8966C21.6018 39.9834 21.3479 39.8075 21.2352 39.5548C21.3479 39.3033 21.6018 39.1274 21.8966 39.1274H24.7752C25.07 39.1276 25.3238 39.3035 25.4366 39.5548Z" fill="#2E3140"/>
<path d="M25.501 37.8964V38.7126H22.9482C22.5468 38.7126 22.2223 38.3881 22.2223 37.9868V37.1706H24.7751C25.1764 37.1706 25.501 37.4963 25.501 37.8964Z" fill="#3E4E60"/>
<path d="M31.2771 37.8964V39.2577C31.2771 39.3642 31.2548 39.4645 31.2126 39.555C31.0999 39.8076 30.8459 39.9835 30.5512 39.9835H27.6726C27.3779 39.9835 27.1239 39.8076 27.0112 39.555C26.9691 39.4645 26.9468 39.3642 26.9468 39.2577V37.8964C26.9468 37.4963 27.2713 37.1706 27.6726 37.1706H30.5512C30.9525 37.1706 31.2771 37.4963 31.2771 37.8964V37.8964Z" fill="#334353"/>
<path d="M31.2126 39.5548C31.0999 39.8075 30.8459 39.9834 30.5512 39.9834H27.6726C27.3779 39.9834 27.1239 39.8075 27.0112 39.5548C27.1239 39.3033 27.3779 39.1274 27.6726 39.1274H30.5512C30.846 39.1276 31.0999 39.3035 31.2126 39.5548Z" fill="#2E3140"/>
<path d="M31.2771 37.8964V38.7126H28.7243C28.3229 38.7126 27.9984 38.3881 27.9984 37.9868V37.1706H30.5512C30.9525 37.1706 31.2771 37.4963 31.2771 37.8964Z" fill="#3E4E60"/>
<path d="M37.0531 37.8964V39.2577C37.0531 39.3642 37.0309 39.4645 36.9887 39.555C36.8759 39.8076 36.622 39.9835 36.3273 39.9835H33.4487C33.1539 39.9835 32.9 39.8076 32.7873 39.555C32.7452 39.4645 32.7228 39.3642 32.7228 39.2577V37.8964C32.7228 37.4963 33.0473 37.1706 33.4487 37.1706H36.3273C36.7285 37.1706 37.0531 37.4963 37.0531 37.8964Z" fill="#334353"/>
<path d="M36.9887 39.5548C36.8759 39.8075 36.622 39.9834 36.3273 39.9834H33.4487C33.1539 39.9834 32.9 39.8075 32.7873 39.5548C32.9 39.3033 33.1539 39.1274 33.4487 39.1274H36.3273C36.6221 39.1276 36.8759 39.3035 36.9887 39.5548Z" fill="#2E3140"/>
<path d="M37.0531 37.8964V38.7126H34.5003C34.0991 38.7126 33.7744 38.3881 33.7744 37.9868V37.1706H36.3273C36.7285 37.1706 37.0531 37.4963 37.0531 37.8964Z" fill="#3E4E60"/>
<path d="M42.8292 37.8964V39.2577C42.8292 39.3642 42.8069 39.4645 42.7647 39.555C42.652 39.8076 42.398 39.9835 42.1033 39.9835H39.2247C38.93 39.9835 38.676 39.8076 38.5633 39.555C38.5212 39.4645 38.4989 39.3642 38.4989 39.2577V37.8964C38.4989 37.4963 38.8233 37.1706 39.2247 37.1706H42.1033C42.5046 37.1706 42.8292 37.4963 42.8292 37.8964Z" fill="#334353"/>
<path d="M42.7647 39.5548C42.652 39.8075 42.3981 39.9834 42.1033 39.9834H39.2247C38.93 39.9834 38.6761 39.8075 38.5633 39.5548C38.6761 39.3033 38.93 39.1274 39.2247 39.1274H42.1033C42.3981 39.1276 42.652 39.3035 42.7647 39.5548Z" fill="#2E3140"/>
<path d="M42.8292 37.8964V38.7126H40.2764C39.875 38.7126 39.5505 38.3881 39.5505 37.9868V37.1706H42.1033C42.5046 37.1706 42.8292 37.4963 42.8292 37.8964Z" fill="#3E4E60"/>
<path d="M25.501 41.9479V43.3092C25.501 43.4157 25.4788 43.516 25.4366 43.6065C25.3238 43.8591 25.0699 44.035 24.7752 44.035H21.8966C21.6018 44.035 21.3479 43.8591 21.2352 43.6065C21.1931 43.516 21.1707 43.4157 21.1707 43.3092V41.9479C21.1707 41.5478 21.4952 41.222 21.8966 41.222H24.7752C25.1764 41.222 25.501 41.5478 25.501 41.9479V41.9479Z" fill="#334353"/>
<path d="M25.4366 43.6064C25.3238 43.859 25.0699 44.0349 24.7752 44.0349H21.8966C21.6018 44.0349 21.3479 43.859 21.2352 43.6064C21.3479 43.3549 21.6018 43.1791 21.8966 43.1791H24.7752C25.07 43.1791 25.3238 43.355 25.4366 43.6064Z" fill="#2E3140"/>
<path d="M25.501 41.9479V42.7641H22.9482C22.5468 42.7641 22.2223 42.4396 22.2223 42.0383V41.222H24.7751C25.1764 41.222 25.501 41.5478 25.501 41.9479Z" fill="#3E4E60"/>
<path d="M31.2771 41.9479V43.3092C31.2771 43.4157 31.2548 43.516 31.2126 43.6065C31.0999 43.8591 30.8459 44.035 30.5512 44.035H27.6726C27.3779 44.035 27.1239 43.8591 27.0112 43.6065C26.9691 43.516 26.9468 43.4157 26.9468 43.3092V41.9479C26.9468 41.5478 27.2713 41.222 27.6726 41.222H30.5512C30.9525 41.222 31.2771 41.5478 31.2771 41.9479V41.9479Z" fill="#334353"/>
<path d="M31.2126 43.6064C31.0999 43.859 30.8459 44.0349 30.5512 44.0349H27.6726C27.3779 44.0349 27.1239 43.859 27.0112 43.6064C27.1239 43.3549 27.3779 43.1791 27.6726 43.1791H30.5512C30.846 43.1791 31.0999 43.355 31.2126 43.6064Z" fill="#2E3140"/>
<path d="M31.2771 41.9479V42.7641H28.7243C28.3229 42.7641 27.9984 42.4396 27.9984 42.0383V41.222H30.5512C30.9525 41.222 31.2771 41.5478 31.2771 41.9479Z" fill="#3E4E60"/>
<path d="M37.0531 41.9479V43.3092C37.0531 43.4157 37.0309 43.516 36.9887 43.6065C36.8759 43.8591 36.622 44.035 36.3273 44.035H33.4487C33.1539 44.035 32.9 43.8591 32.7873 43.6065C32.7452 43.516 32.7228 43.4157 32.7228 43.3092V41.9479C32.7228 41.5478 33.0473 41.222 33.4487 41.222H36.3273C36.7285 41.222 37.0531 41.5478 37.0531 41.9479Z" fill="#334353"/>
<path d="M36.9887 43.6064C36.8759 43.859 36.622 44.0349 36.3273 44.0349H33.4487C33.1539 44.0349 32.9 43.859 32.7873 43.6064C32.9 43.3549 33.1539 43.1791 33.4487 43.1791H36.3273C36.6221 43.1791 36.8759 43.355 36.9887 43.6064Z" fill="#2E3140"/>
<path d="M37.0531 41.9479V42.7641H34.5003C34.0991 42.7641 33.7744 42.4396 33.7744 42.0383V41.222H36.3273C36.7285 41.222 37.0531 41.5478 37.0531 41.9479Z" fill="#3E4E60"/>
<path d="M42.8292 41.9479V43.3092C42.8292 43.4157 42.8069 43.516 42.7647 43.6065C42.652 43.8591 42.398 44.035 42.1033 44.035H39.2247C38.93 44.035 38.676 43.8591 38.5633 43.6065C38.5212 43.516 38.4989 43.4157 38.4989 43.3092V41.9479C38.4989 41.5478 38.8233 41.222 39.2247 41.222H42.1033C42.5046 41.222 42.8292 41.5478 42.8292 41.9479Z" fill="#334353"/>
<path d="M42.7647 43.6064C42.652 43.859 42.3981 44.0349 42.1033 44.0349H39.2247C38.93 44.0349 38.6761 43.859 38.5633 43.6064C38.6761 43.3549 38.93 43.1791 39.2247 43.1791H42.1033C42.3981 43.1791 42.652 43.355 42.7647 43.6064Z" fill="#2E3140"/>
<path d="M42.8292 41.9479V42.7641H40.2764C39.875 42.7641 39.5505 42.4396 39.5505 42.0383V41.222H42.1033C42.5046 41.222 42.8292 41.5478 42.8292 41.9479Z" fill="#3E4E60"/>
<path d="M25.501 45.9994V47.3606C25.501 47.4671 25.4788 47.5674 25.4366 47.6579C25.3238 47.9106 25.0699 48.0865 24.7752 48.0865H21.8966C21.6018 48.0865 21.3479 47.9106 21.2352 47.6579C21.1931 47.5674 21.1707 47.4671 21.1707 47.3606V45.9994C21.1707 45.5993 21.4952 45.2735 21.8966 45.2735H24.7752C25.1764 45.2736 25.501 45.5994 25.501 45.9994V45.9994Z" fill="#334353"/>
<path d="M25.4366 47.6579C25.3238 47.9105 25.0699 48.0864 24.7752 48.0864H21.8966C21.6018 48.0864 21.3479 47.9105 21.2352 47.6579C21.3479 47.4064 21.6018 47.2306 21.8966 47.2306H24.7752C25.07 47.2306 25.3238 47.4065 25.4366 47.6579Z" fill="#2E3140"/>
<path d="M25.501 45.9994V46.8156H22.9482C22.5468 46.8156 22.2223 46.4911 22.2223 46.0897V45.2735H24.7751C25.1764 45.2736 25.501 45.5994 25.501 45.9994Z" fill="#3E4E60"/>
<path d="M31.2771 45.9994V47.3606C31.2771 47.4671 31.2548 47.5674 31.2126 47.6579C31.0999 47.9106 30.8459 48.0865 30.5512 48.0865H27.6726C27.3779 48.0865 27.1239 47.9106 27.0112 47.6579C26.9691 47.5674 26.9468 47.4671 26.9468 47.3606V45.9994C26.9468 45.5993 27.2713 45.2735 27.6726 45.2735H30.5512C30.9525 45.2736 31.2771 45.5994 31.2771 45.9994V45.9994Z" fill="#334353"/>
<path d="M31.2126 47.6579C31.0999 47.9105 30.8459 48.0864 30.5512 48.0864H27.6726C27.3779 48.0864 27.1239 47.9105 27.0112 47.6579C27.1239 47.4064 27.3779 47.2306 27.6726 47.2306H30.5512C30.846 47.2306 31.0999 47.4065 31.2126 47.6579Z" fill="#2E3140"/>
<path d="M31.2771 45.9994V46.8156H28.7243C28.3229 46.8156 27.9984 46.4911 27.9984 46.0897V45.2735H30.5512C30.9525 45.2736 31.2771 45.5994 31.2771 45.9994Z" fill="#3E4E60"/>
<path d="M37.0531 45.9994V47.3606C37.0531 47.4671 37.0309 47.5674 36.9887 47.6579C36.8759 47.9106 36.622 48.0865 36.3273 48.0865H33.4487C33.1539 48.0865 32.9 47.9106 32.7873 47.6579C32.7452 47.5674 32.7228 47.4671 32.7228 47.3606V45.9994C32.7228 45.5993 33.0473 45.2735 33.4487 45.2735H36.3273C36.7285 45.2736 37.0531 45.5994 37.0531 45.9994Z" fill="#334353"/>
<path d="M36.9887 47.6579C36.8759 47.9105 36.622 48.0864 36.3273 48.0864H33.4487C33.1539 48.0864 32.9 47.9105 32.7873 47.6579C32.9 47.4064 33.1539 47.2306 33.4487 47.2306H36.3273C36.6221 47.2306 36.8759 47.4065 36.9887 47.6579Z" fill="#2E3140"/>
<path d="M37.0531 45.9994V46.8156H34.5003C34.0991 46.8156 33.7744 46.4911 33.7744 46.0897V45.2735H36.3273C36.7285 45.2736 37.0531 45.5994 37.0531 45.9994Z" fill="#3E4E60"/>
<path d="M42.8292 45.9994V47.3606C42.8292 47.4671 42.8069 47.5674 42.7647 47.6579C42.652 47.9106 42.398 48.0865 42.1033 48.0865H39.2247C38.93 48.0865 38.676 47.9106 38.5633 47.6579C38.5212 47.5674 38.4989 47.4671 38.4989 47.3606V45.9994C38.4989 45.5993 38.8233 45.2735 39.2247 45.2735H42.1033C42.5046 45.2736 42.8292 45.5994 42.8292 45.9994Z" fill="#334353"/>
<path d="M42.7647 47.6579C42.652 47.9105 42.3981 48.0864 42.1033 48.0864H39.2247C38.93 48.0864 38.6761 47.9105 38.5633 47.6579C38.6761 47.4064 38.93 47.2306 39.2247 47.2306H42.1033C42.3981 47.2306 42.652 47.4065 42.7647 47.6579Z" fill="#2E3140"/>
<path d="M42.8292 45.9994V46.8156H40.2764C39.875 46.8156 39.5505 46.4911 39.5505 46.0897V45.2735H42.1033C42.5046 45.2736 42.8292 45.5994 42.8292 45.9994Z" fill="#3E4E60"/>
<path d="M13.8112 25.3515C13.9479 25.4888 14.0176 25.6617 14.0176 25.8702C14.0176 26.0792 13.9479 26.2521 13.8112 26.3888C13.6746 26.5262 13.5016 26.5952 13.2925 26.5952H10.7234V29.1475C10.7234 29.3559 10.6551 29.5322 10.5171 29.6742C10.3804 29.8169 10.2075 29.8886 9.99841 29.8886C9.79063 29.8886 9.61778 29.8169 9.47973 29.6742C9.34309 29.5322 9.27466 29.3559 9.27466 29.1475V26.5952H6.70555C6.49649 26.5952 6.32364 26.5262 6.18688 26.3888C6.04884 26.2522 5.98051 26.0792 5.98051 25.8702C5.98051 25.6618 6.04884 25.4888 6.18688 25.3515C6.32352 25.2141 6.49649 25.1458 6.70555 25.1458H9.27466V22.5767C9.27466 22.3684 9.34298 22.1954 9.47973 22.0581C9.61778 21.9207 9.79063 21.8524 9.99841 21.8524C10.2075 21.8524 10.3803 21.9207 10.5171 22.0581C10.6551 22.1954 10.7234 22.3682 10.7234 22.5767V25.1458H13.2925C13.5016 25.1457 13.6745 25.2141 13.8112 25.3515Z" fill="#CDE6F6"/>
<path d="M37.5311 14.2986C37.378 14.1616 37.3015 13.9717 37.3015 13.7292C37.3015 13.4873 37.378 13.2943 37.5311 13.152C37.6836 13.0099 37.9127 12.9384 38.2189 12.9384H45.0297C45.3354 12.9384 45.565 13.0098 45.7175 13.152C45.8707 13.2942 45.9472 13.4872 45.9472 13.7292C45.9472 13.9717 45.8707 14.1616 45.7175 14.2986C45.565 14.4356 45.3354 14.5038 45.0297 14.5038H38.2189C37.9127 14.5039 37.6836 14.4357 37.5311 14.2986V14.2986Z" fill="#CDE6F6"/>
<path d="M18.6429 12.7784C18.2154 12.2783 18.0016 11.546 18.0016 10.5816C18.0016 9.62679 18.2154 8.89894 18.6429 8.39866C19.0704 7.89839 19.666 7.64808 20.43 7.64808C21.1944 7.64808 21.7924 7.89851 22.2242 8.39866C22.6562 8.89882 22.8722 9.62667 22.8722 10.5816C22.8722 11.546 22.6562 12.2783 22.2242 12.7784C21.7923 13.2786 21.1944 13.5284 20.43 13.5284C19.666 13.5284 19.0704 13.2786 18.6429 12.7784ZM21.1872 11.994C21.3466 11.7075 21.426 11.2367 21.426 10.5816C21.426 9.94484 21.3444 9.48124 21.1806 9.1898C21.0167 8.89894 20.7664 8.75339 20.43 8.75339C20.0935 8.75339 19.8454 8.89659 19.6867 9.18312C19.5273 9.46964 19.4479 9.93593 19.4479 10.5816C19.4479 11.2367 19.5273 11.7075 19.6867 11.994C19.8454 12.2805 20.0936 12.4237 20.43 12.4237C20.7758 12.4237 21.0279 12.2804 21.1872 11.994V11.994ZM21.6446 17.5401C21.5258 17.6129 21.4076 17.649 21.2899 17.649C21.1261 17.649 20.9829 17.5901 20.8597 17.4719C20.737 17.3537 20.676 17.2038 20.676 17.0217C20.676 16.8667 20.721 16.7124 20.812 16.5576L25.7785 7.97585C25.8607 7.83042 25.9606 7.72108 26.0789 7.64831C26.1965 7.57554 26.3154 7.53944 26.4336 7.53944C26.5974 7.53944 26.7406 7.59827 26.8633 7.71651C26.986 7.83476 27.0477 7.98464 27.0477 8.16675C27.0477 8.32167 27.0016 8.47601 26.9111 8.63081L21.9446 17.2126C21.8628 17.358 21.7624 17.4667 21.6446 17.5401V17.5401ZM25.5058 16.7484C25.0777 16.2482 24.8641 15.5115 24.8641 14.5382C24.8641 13.5834 25.0801 12.8578 25.5125 12.3619C25.9445 11.8661 26.5379 11.6186 27.2929 11.6186C28.0569 11.6186 28.6526 11.8691 29.0801 12.3686C29.5076 12.8694 29.7218 13.5966 29.7218 14.5521C29.7218 15.5158 29.5074 16.2481 29.0801 16.7483C28.6526 17.249 28.0569 17.4989 27.2929 17.4989C26.529 17.499 25.9327 17.2491 25.5058 16.7484ZM28.0435 15.9639C28.2074 15.6774 28.2889 15.2067 28.2889 14.5522C28.2889 13.9154 28.2074 13.4513 28.0435 13.1603C27.8797 12.8694 27.6294 12.7235 27.2929 12.7235C26.9565 12.7235 26.7062 12.8695 26.5424 13.1603C26.3785 13.4512 26.297 13.9154 26.297 14.5522C26.297 15.2067 26.3785 15.6775 26.5424 15.9639C26.7062 16.2505 26.9565 16.3937 27.2929 16.3937C27.6294 16.3937 27.8797 16.2505 28.0435 15.9639Z" fill="#CDE6F6"/>
<path d="M50.0314 32.7868C49.8841 32.8523 49.7303 32.8706 49.5717 32.8411C49.3714 32.8039 49.2057 32.703 49.0756 32.5394C48.9455 32.3757 48.9007 32.1887 48.9397 31.9787C48.9563 31.8889 48.9877 31.8013 49.035 31.7172L54.54 21.4544C54.635 21.2756 54.7551 21.1527 54.9024 21.0872C55.0485 21.0214 55.2022 21.0033 55.3621 21.0329C55.5624 21.07 55.7269 21.17 55.8582 21.3345C55.987 21.498 56.0333 21.6847 55.9943 21.8947C55.9775 21.985 55.9462 22.0721 55.8989 22.1568L50.3939 32.4197C50.2987 32.5983 50.1775 32.7204 50.0314 32.7868V32.7868Z" fill="#CDE6F6"/>
<path d="M55.4778 41.7854C55.5921 41.9155 55.6491 42.0741 55.6491 42.2614C55.6491 42.4487 55.5921 42.6098 55.4778 42.745C55.3623 42.8803 55.2023 42.9424 54.9942 42.9323L53.4658 42.8543L54.3075 44.1173C54.3798 44.2321 54.4167 44.3464 54.4167 44.4607C54.4167 44.6377 54.3418 44.7907 54.1907 44.9209C54.0397 45.0509 53.8708 45.1157 53.6842 45.1157C53.4444 45.1157 53.2679 45.0065 53.1536 44.7882L52.4669 43.4313L51.7802 44.7882C51.6557 45.0173 51.4794 45.1316 51.2508 45.1316C51.063 45.1316 50.8941 45.0669 50.7431 44.9367C50.592 44.8066 50.5171 44.653 50.5171 44.4765C50.5171 44.3514 50.5539 44.2372 50.6264 44.1331L51.4692 42.8543L49.9395 42.9323C49.7314 42.9425 49.5714 42.8829 49.4572 42.7527C49.3416 42.6226 49.2846 42.4639 49.2846 42.2766C49.2846 42.0901 49.3416 41.9288 49.4572 41.7936C49.5714 41.6584 49.7314 41.5963 49.9395 41.6063L51.4692 41.6844L50.6264 40.4207C50.5541 40.3167 50.5171 40.2024 50.5171 40.0774C50.5171 39.9009 50.592 39.7498 50.7431 39.6255C50.8941 39.5005 51.063 39.4382 51.2508 39.4382C51.4894 39.4382 51.6659 39.5475 51.7802 39.7658L52.4669 41.1227L53.1536 39.7658C53.2679 39.5373 53.4494 39.4224 53.6995 39.4224C53.876 39.4224 54.0397 39.4878 54.1907 39.6173C54.3418 39.7474 54.4167 39.901 54.4167 40.0775C54.4167 40.2025 54.3799 40.3168 54.3075 40.4209L53.4658 41.6845L54.9942 41.6064C55.2023 41.5963 55.3623 41.6559 55.4778 41.7854Z" fill="#CDE6F6"/>
<path d="M8.80812 41.234C8.80812 39.5231 9.2225 37.9502 10.0508 36.5156C10.143 36.3699 10.2484 36.2608 10.3673 36.1878C10.4862 36.1148 10.6071 36.0782 10.7298 36.0782C10.8604 36.0782 10.9695 36.1186 11.058 36.1995C11.146 36.28 11.1901 36.3891 11.1901 36.5273C11.1901 36.635 11.1709 36.7305 11.133 36.8148C10.565 38.2111 10.2813 39.6841 10.2813 41.234C10.2813 42.009 10.3501 42.7549 10.4882 43.4722C10.6264 44.1895 10.8413 44.9083 11.133 45.6299C11.171 45.7141 11.1901 45.8096 11.1901 45.9173C11.1901 46.0555 11.146 46.1646 11.058 46.2451C10.9695 46.3256 10.8604 46.3659 10.7298 46.3659C10.6071 46.3659 10.4844 46.3317 10.3617 46.2624C10.239 46.1936 10.135 46.0859 10.0508 45.9403C9.2225 44.4907 8.80812 42.9215 8.80812 41.234V41.234Z" fill="#CDE6F6"/>
<path d="M13.4914 46.2624C13.3687 46.3317 13.2456 46.3659 13.1229 46.3659C12.9927 46.3659 12.8831 46.3256 12.7951 46.2451C12.7066 46.1646 12.6626 46.0555 12.6626 45.9173C12.6626 45.8096 12.6818 45.7141 12.7201 45.6299C13.0118 44.9083 13.2267 44.1895 13.3644 43.4722C13.5026 42.7549 13.5718 42.009 13.5718 41.234C13.5718 39.6841 13.2881 38.2111 12.7201 36.8148C12.6817 36.7305 12.6626 36.635 12.6626 36.5273C12.6626 36.3891 12.7066 36.28 12.7951 36.1995C12.8831 36.1186 12.9927 36.0782 13.1229 36.0782C13.2456 36.0782 13.3664 36.1148 13.4858 36.1878C13.6043 36.2608 13.7101 36.3699 13.8018 36.5156C14.6306 37.9503 15.045 39.5231 15.045 41.234C15.045 42.9215 14.6306 44.4907 13.8018 45.9403C13.7176 46.0859 13.6141 46.1936 13.4914 46.2624Z" fill="#CDE6F6"/>
</svg>
