<svg width="65" height="65" viewBox="0 0 65 65" fill="none" xmlns="http://www.w3.org/2000/svg">
<rect width="65" height="65" rx="6" fill="#F39E22"/>
<path d="M64 33C64 34.165 63.9375 35.3162 63.8162 36.4487C63.7625 36.9512 63.6975 37.45 63.62 37.9463C63.5687 38.2788 63.5112 38.61 63.4487 38.94C60.665 53.775 47.6425 65 32 65C29.0638 65 26.2213 64.605 23.52 63.8638C23.1 63.7488 22.6837 63.625 22.2712 63.4938C17.345 61.9238 12.935 59.1925 9.36625 55.6213C8.48 54.7338 7.645 53.7963 6.8675 52.81C2.5675 47.3613 0 40.48 0 33C0 15.3275 14.3275 1 32 1C39.6413 1 46.6562 3.67875 52.1587 8.1475C52.5562 8.46875 52.945 8.80125 53.325 9.14125C53.8638 9.62375 54.3863 10.1225 54.8913 10.6388C60.5263 16.4088 64 24.2987 64 33V33Z" fill="#F39E22"/>
<path d="M29.9512 34.4487V8.63874H54.8912C54.0285 7.75837 53.1175 6.92424 52.1587 6.14749H28.7062C28.0187 6.14749 27.46 6.70624 27.46 7.39374V35.695C27.46 36.3825 28.0187 36.94 28.7062 36.94H63.4487C63.6052 36.1144 63.7266 35.2862 63.8162 34.4487H29.9512Z" fill="#A26D5A"/>
<path d="M29.9512 34.4487V8.63875H54.8912C54.3862 8.1225 53.8637 7.62375 53.325 7.14125H29.775C29.1312 7.14125 28.61 7.6625 28.61 8.305V34.7825C28.61 35.425 29.1312 35.9463 29.775 35.9463H63.62C63.6975 35.45 63.7625 34.9512 63.8162 34.4487H29.9512Z" fill="#D48D77"/>
<path d="M29.9514 13.2636V24.7182C29.9514 25.0887 29.651 25.3892 29.2804 25.3892C28.9099 25.3892 28.6094 25.0889 28.6094 24.7182V13.2636C28.6354 12.3801 29.9232 12.3739 29.9514 13.2636V13.2636Z" fill="#EEA47D"/>
<path d="M47.543 8.63911H34.7556C34.342 8.63911 34.0066 8.30374 34.0066 7.89011C34.0066 7.47649 34.342 7.14111 34.7556 7.14111H47.5429C48.5307 7.17374 48.5376 8.60399 47.543 8.63911V8.63911Z" fill="#EEA47D"/>
<path d="M59.7067 35.9469H43.1695C42.183 35.9149 42.1737 34.4844 43.1695 34.4489H59.7067C60.6932 34.4809 60.7025 35.9113 59.7067 35.9469Z" fill="#EEA47D"/>
<path d="M64 31C64 32.165 63.9375 33.3162 63.8162 34.4487H29.9512V8.63875H54.8912C60.5262 14.4087 64 22.2987 64 31V31Z" fill="#50755C"/>
<path d="M43.005 21.585L39.5587 14.205C39.27 13.5301 38.1787 13.5295 37.8912 14.205L34.4562 21.585C34.1172 22.2395 34.9512 22.8457 35.5262 22.4875C35.6425 22.4162 35.7337 22.3062 35.8 22.1575L36.5475 20.49H40.9275L41.6737 22.1575C41.74 22.3062 41.8312 22.4162 41.9475 22.4875C42.529 22.847 43.3409 22.2364 43.005 21.585V21.585ZM37.095 19.245L38.7375 15.55L40.38 19.245H37.095Z" fill="white"/>
<path d="M48.6738 16.9375C48.0596 16.248 46.5938 16.1976 45.6 16.445C45.0604 16.5886 44.5253 16.7261 44.2063 17.1112C43.9664 17.4514 44.1399 18.0789 44.61 18.0637C44.71 18.0637 44.8675 18.0087 45.0838 17.9012C45.6865 17.678 46.1161 17.4961 46.7013 17.4912C47.672 17.4791 47.8468 18.0806 47.8088 18.9462C46.5324 18.9631 44.9886 18.9186 44.2563 19.6812C43.8175 20.1565 43.8019 21.1487 44.2 21.7087C44.9569 22.914 47.2116 23.0275 47.8088 21.61V21.8837C47.7735 22.5652 48.6521 22.821 49.09 22.4125C49.2225 22.2837 49.29 22.1075 49.29 21.8837V18.8475C49.29 17.9925 49.0838 17.3562 48.6738 16.9375V16.9375ZM47.8088 20.03C47.8088 20.4687 47.6775 20.8275 47.4163 21.1062C47.0256 21.5489 46.1751 21.6984 45.7113 21.2675C45.3924 21.0034 45.3168 20.3904 45.6313 20.1037C45.7638 19.98 45.9838 19.8925 46.29 19.8425C46.6101 19.7835 47.273 19.7619 47.8088 19.7675V20.03Z" fill="white"/>
<path d="M27.6791 54.9424C25.123 54.9424 22.3746 52.7002 18.7069 47.688L22.0358 45.252C26.2011 50.9441 27.7269 50.8145 27.7405 50.8104C27.7445 50.8096 28.1751 50.6405 28.7658 49.2316C29.36 47.814 29.8406 45.8172 30.282 43.8936L34.3025 44.816C33.2031 49.4899 32.068 54.846 27.6791 54.9424V54.9424Z" fill="#C0405C"/>
<path d="M29.9887 44.3558C29.989 45.2791 30.7372 46.03 31.6624 46.0295H36.2074C37.14 46.032 37.8847 45.2618 37.8812 44.3558C37.8809 43.4305 37.1327 42.6823 36.2074 42.682H31.6624C30.7559 42.6784 29.9865 43.4221 29.9887 44.3558Z" fill="#723E33"/>
<path d="M30.7386 43.6049C30.739 44.5283 31.4871 45.2791 32.4124 45.2786H36.9574C37.2261 45.2786 37.4786 45.2161 37.7036 45.1036C38.2693 44.0265 37.4313 42.6583 36.2074 42.6811H31.6624C31.3936 42.6811 31.1399 42.7449 30.9149 42.8574C30.8024 43.0824 30.7386 43.3361 30.7386 43.6049V43.6049Z" fill="#9B5B42"/>
<path d="M23.52 49.8513V63.8638C16.8969 62.0513 11.0599 58.1268 6.86752 52.81V49.8513C6.98515 41.1605 18.3961 38.3734 22.54 45.93C23.1665 47.0974 23.5196 48.4349 23.52 49.8513V49.8513Z" fill="#C0405C"/>
<path d="M23.52 49.8512V63.8637C18.138 62.3952 13.2245 59.4911 9.36627 55.6212C9.41827 54.2966 9.21552 49.327 9.54752 48.1175C10.0671 45.599 11.8296 43.3922 14.16 42.3112C14.883 41.9721 15.654 41.7397 16.4438 41.6175C19.0883 42.0149 21.3263 43.6595 22.54 45.93C23.1665 47.0974 23.5196 48.4349 23.52 49.8512V49.8512Z" fill="#EE6781"/>
<path d="M22.2713 49.8512V63.4937C17.345 61.9237 12.935 59.1925 9.36627 55.6212C9.41827 54.2966 9.21552 49.327 9.54752 48.1175C10.175 45.0237 12.7039 42.4416 15.7825 41.7475C19.5066 42.5077 22.3056 46.0156 22.2713 49.8512V49.8512Z" fill="#E9465E"/>
<path d="M19.2454 42.589C19.2454 43.754 19.1329 44.8752 18.9454 45.9352C18.0079 51.239 15.1929 55.0127 15.1929 55.0127C14.3011 53.9389 11.008 48.1322 11.1404 42.589C11.7779 42.234 12.4679 41.959 13.1941 41.7802V42.2077C13.1941 43.3126 14.0889 44.2076 15.1929 44.2077C16.2979 44.2077 17.1929 43.3115 17.1929 42.2077V41.7802C17.9191 41.959 18.6079 42.2327 19.2454 42.589V42.589Z" fill="#E8F3FC"/>
<path d="M19.2454 42.589C19.2454 43.754 19.1329 44.8752 18.9454 45.9352C18.9454 45.9352 16.4841 45.934 15.1929 44.2077C16.2979 44.2077 17.1929 43.3115 17.1929 42.2077V41.7802C17.9191 41.959 18.6079 42.2327 19.2454 42.589V42.589Z" fill="#B7DBF6"/>
<path d="M15.1939 44.2077C13.9039 45.934 11.4426 45.9352 11.4426 45.9352C11.2539 44.8752 11.1414 43.754 11.1414 42.589C11.7789 42.234 12.4689 41.959 13.1951 41.7802V42.2077C13.1952 43.3126 14.0899 44.2076 15.1939 44.2077V44.2077Z" fill="#B7DBF6"/>
<path d="M10.7695 35.0031C10.8614 36.1179 10.0019 37.1086 8.86989 37.1025H7.26501C4.72514 37.0404 4.72514 33.1655 7.26501 33.1035H8.86989C9.91901 33.1035 10.7695 33.954 10.7695 35.0031Z" fill="#8E4E3F"/>
<path d="M25.0215 35.0031C25.1134 36.1179 24.2539 37.1086 23.1219 37.1025H21.517C18.9772 37.0404 18.9772 33.1655 21.517 33.1035H23.1219C24.171 33.1035 25.0215 33.954 25.0215 35.0031Z" fill="#8E4E3F"/>
<path d="M11.4429 35.103C11.4429 35.543 11.0863 35.8996 10.6463 35.8996H7.65789C7.21789 35.8996 6.86127 35.543 6.86127 35.103C6.86127 34.663 7.21789 34.3064 7.65789 34.3064H10.6463C11.0863 34.3064 11.4429 34.663 11.4429 35.103Z" fill="#723E33"/>
<path d="M23.5256 35.103C23.5256 35.543 23.169 35.8996 22.729 35.8996H19.7406C19.3006 35.8996 18.944 35.543 18.944 35.103C18.944 34.663 19.3006 34.3064 19.7406 34.3064H22.729C23.169 34.3064 23.5256 34.663 23.5256 35.103Z" fill="#723E33"/>
<path d="M15.1934 44.2072C14.0891 44.2072 13.1939 43.312 13.1939 42.2077V40.2195C13.299 37.5677 17.0878 37.5675 17.1929 40.2195V42.2077C17.193 43.312 16.2978 44.2072 15.1934 44.2072V44.2072Z" fill="#723E33"/>
<path d="M16.1934 44.2072C15.0891 44.2072 14.1939 43.312 14.1939 42.2077V40.2195C14.299 37.5677 18.0878 37.5675 18.1929 40.2195V42.2077C18.193 43.312 17.2978 44.2072 16.1934 44.2072Z" fill="#8E4E3F"/>
<path d="M15.7371 24.544H14.6496C11.0144 24.544 8.06738 27.491 8.06738 31.1263V35.6314C8.06738 39.2666 11.0144 42.2136 14.6496 42.2136H15.7371C19.3724 42.2136 22.3194 39.2666 22.3194 35.6314V31.1263C22.3194 27.491 19.3725 24.544 15.7371 24.544V24.544Z" fill="#723E33"/>
<path d="M15.7371 23.544H14.6496C11.0144 23.544 8.06738 26.491 8.06738 30.1263V34.6314C8.06738 38.2666 11.0144 41.2136 14.6496 41.2136H15.7371C19.3724 41.2136 22.3194 38.2666 22.3194 34.6314V30.1263C22.3194 26.491 19.3725 23.544 15.7371 23.544V23.544Z" fill="#8E4E3F"/>
<path d="M17.8621 23.544H16.7746C13.1394 23.544 10.1924 26.491 10.1924 30.1263V34.6314C10.1924 38.2666 13.1394 41.2136 16.7746 41.2136H17.8621C21.4974 41.2136 24.4444 38.2666 24.4444 34.6314V30.1263C24.4444 26.491 21.4975 23.544 17.8621 23.544V23.544Z" fill="#9B5B42"/>
<path d="M20.6069 35.8144C20.6069 35.2679 20.1639 34.8249 19.6174 34.8249C18.3063 34.8734 18.3066 36.7556 19.6174 36.8039C20.1638 36.8039 20.6069 36.3609 20.6069 35.8144Z" fill="#8E4E3F"/>
<path d="M11.759 35.8144C11.759 35.2679 11.316 34.8249 10.7695 34.8249C9.45839 34.8734 9.45877 36.7556 10.7695 36.8039C11.316 36.8039 11.759 36.3609 11.759 35.8144Z" fill="#8E4E3F"/>
<path d="M15.1935 38.0513C14.3686 38.0513 13.6228 37.7984 13.247 37.3914C13.0289 37.1464 13.3866 36.8144 13.6145 37.0523C14.1876 37.7094 16.1996 37.7091 16.7725 37.0523C16.9983 36.8146 17.3594 37.146 17.1399 37.3914C16.764 37.7984 16.0183 38.0513 15.1935 38.0513Z" fill="#723E33"/>
<path d="M17.635 36.511C17.6445 37.8408 16.5301 38.9627 15.1938 38.951C13.9869 38.9533 12.9631 38.0656 12.7851 36.879C12.7839 36.878 12.7825 36.877 12.7813 36.876C12.763 36.7545 12.7545 36.6341 12.7538 36.511H17.635Z" fill="#961B3B"/>
<path d="M17.1929 37.0428C17.1951 37.5486 17.0174 38.0443 16.7241 38.4103C16.3054 38.749 15.7729 38.9503 15.1929 38.9503C14.6129 38.9503 14.0816 38.749 13.6629 38.4103C13.3694 38.0438 13.1915 37.5479 13.1941 37.0428H17.1929Z" fill="#CC2561"/>
<path d="M17.47 36.666V36.9859C16.3123 37.9115 14.171 37.932 12.9835 37.035V36.666H17.47Z" fill="#E8F3FC"/>
<path d="M12.7805 36.8751C12.908 36.9845 13.0483 37.0851 13.1995 37.1756C13.1969 37.1316 13.1939 36.8379 13.1939 36.7933H17.1929C17.1929 36.8379 17.1916 37.1314 17.1891 37.1753C17.3404 37.0846 17.4788 36.9845 17.6063 36.8751C17.6243 36.7559 17.6345 36.6341 17.6345 36.5098H12.7523C12.7523 36.634 12.7625 36.7559 12.7805 36.8751V36.8751Z" fill="#723E33"/>
<path d="M16.2898 35.7925H14.0971C13.7691 35.7871 13.768 35.2981 14.0971 35.2925H16.2898C16.6176 35.2979 16.6189 35.7869 16.2898 35.7925Z" fill="#723E33"/>
<path d="M13.4308 33.3269C13.4308 32.7865 12.9928 32.3485 12.4524 32.3485C11.156 32.3965 11.1564 34.2575 12.4524 34.3053C12.9928 34.3053 13.4308 33.8673 13.4308 33.3269Z" fill="#723E33"/>
<path d="M18.9129 33.3269C18.9129 32.7865 18.4749 32.3485 17.9345 32.3485C16.6381 32.3965 16.6385 34.2575 17.9345 34.3053C18.4749 34.3053 18.9129 33.8673 18.9129 33.3269Z" fill="#723E33"/>
<path d="M13.3639 33.6921C13.3639 33.1886 12.9558 32.7805 12.4523 32.7805C11.2455 32.8221 11.2459 34.5621 12.4523 34.6036C12.9558 34.6036 13.3639 34.1955 13.3639 33.6921Z" fill="#122894"/>
<path d="M13.09 33.711C13.512 33.2671 12.8773 32.6325 12.4334 33.0545C12.0115 33.4984 12.6463 34.133 13.09 33.711Z" fill="#E8F3FC"/>
<path d="M18.8461 33.6921C18.8461 33.1886 18.438 32.7805 17.9345 32.7805C16.7278 32.8221 16.7281 34.5621 17.9345 34.6036C18.438 34.6036 18.8461 34.1955 18.8461 33.6921Z" fill="#122894"/>
<path d="M18.5721 33.711C18.9941 33.2671 18.3594 32.6325 17.9155 33.0545C17.4936 33.4984 18.1284 34.133 18.5721 33.711Z" fill="#E8F3FC"/>
<path d="M23.2988 37.0937C23.2289 37.1105 21.9473 37.0996 21.8388 37.1025C21.3175 38.3862 20.4038 39.4675 19.245 40.1987H23.47V37.0687C23.4138 37.08 23.3563 37.0875 23.2988 37.0937V37.0937ZM8.5475 37.1025C8.28038 37.0924 7.158 37.1315 6.91625 37.0687V40.1987H11.14C9.9825 39.4675 9.06875 38.3862 8.5475 37.1025V37.1025ZM23.46 29.7662C23.3368 26.572 21.0056 23.6439 17.9213 22.805C17.2445 22.6106 16.5355 22.5122 15.825 22.5112C15.1315 22.5207 14.0929 22.477 13.4163 22.5962C10.8095 22.9724 8.49 24.7936 7.49625 27.2312C7.17088 28.0176 6.97825 28.8551 6.93 29.715C6.90075 29.9526 6.92288 32.8259 6.91625 33.1362C7.14875 33.0811 7.82075 33.1107 8.0675 33.1037V30.19C10.6209 31.0182 13.6294 29.7882 14.9 27.5112C15.5445 30.7351 19.0883 32.9147 22.3188 31.935V33.1037C22.4044 33.1057 23.1815 33.0987 23.245 33.1087C23.3199 33.1115 23.3959 33.1234 23.47 33.1362C23.4668 32.904 23.4791 29.8986 23.46 29.7662V29.7662Z" fill="#442A21"/>
<path d="M23.4704 30.1565V33.1365C23.2379 33.0812 22.5659 33.111 22.3191 33.104V31.9352C19.0881 32.9149 15.5451 30.7354 14.9004 27.5115C13.9329 29.1565 12.1966 30.294 10.1854 30.4302V29.1652C10.1375 25.3432 13.745 21.8442 17.5616 22.7114C18.1624 22.8516 18.7468 23.0637 19.2954 23.3452C21.8189 24.6047 23.497 27.3352 23.4704 30.1565V30.1565Z" fill="#543029"/>
<path d="M23.1216 37.1027C23.2416 37.1027 23.3579 37.0903 23.4704 37.069V40.199H19.2454C20.4041 39.4678 21.3179 38.3865 21.8391 37.1027H23.1216Z" fill="#543029"/>
<path d="M32.8963 42.1429C31.8134 43.242 33.3794 44.8432 34.504 43.7506L47.2716 30.1751C47.6096 29.83 47.3435 29.2172 46.8685 29.2222C46.7254 29.2205 46.583 29.2709 46.4716 29.3751L32.8963 42.1429Z" fill="#DAAB42"/>
<path d="M32.8963 42.1429C32.7654 42.2666 32.67 42.4134 32.6099 42.5706C32.986 43.1914 33.8794 43.2992 34.3865 42.7756C37.4636 39.6792 44.2834 32.8147 47.4114 29.6659C47.3305 29.2497 46.7754 29.073 46.4718 29.3751C43.3076 32.3506 35.9873 39.2347 32.8963 42.1429V42.1429Z" fill="#F9C744"/>
<path d="M37.9583 37.3814C38.3703 37.9064 39.1619 37.9551 39.6368 37.4919C39.654 37.478 47.3931 29.682 47.4114 29.666C47.3311 29.2493 46.775 29.0736 46.4718 29.3752L37.9583 37.3814V37.3814Z" fill="#FAD98F"/>
</svg>
