<svg width="65" height="65" viewBox="0 0 65 65" fill="none" xmlns="http://www.w3.org/2000/svg">
<rect width="65" height="65" rx="6" fill="#6C53A2"/>
<path d="M65 32.5C65 38.0466 63.6099 43.2682 61.1597 47.8359C60.9096 48.3057 60.6468 48.7678 60.3713 49.2235C60.0514 49.7567 59.7149 50.2811 59.3645 50.7939C59.0637 51.2357 58.7526 51.6699 58.4289 52.0952C52.4964 59.9346 43.0892 65 32.5 65C14.5514 65 0 50.4486 0 32.5C0 14.5514 14.5514 0 32.5 0C50.4486 0 65 14.5514 65 32.5Z" fill="#6C53A2"/>
<path d="M37.2614 51.7951C36.0761 49.3434 33.4673 43.9555 32.2602 41.4629C31.5443 40.2315 30.6836 37.3209 29.2326 36.7269C27.5186 35.9199 25.0176 36.1511 23.9189 37.8445C23.9528 37.5915 20.8423 44.172 20.7995 44.2102L17.1294 51.795C15.9885 54.1239 17.7807 56.7877 20.238 56.753H34.1529C36.6392 56.8068 38.4029 54.0205 37.2614 51.7951Z" fill="#C1B7D3"/>
<path d="M23.9191 30.3466H30.4711V40.247H23.9191V30.3466Z" fill="#C1B7D3"/>
<path d="M37.561 53.8829H24.3995C21.8514 53.8829 20.1797 51.2174 21.2899 48.9237L27.3915 36.3184H27.6049C28.9286 36.3184 30.1368 37.0762 30.7134 38.2671L37.2613 51.7951C37.5955 52.485 37.6774 53.2082 37.561 53.8829Z" fill="#EBD9EA"/>
<path d="M30.8708 40.6048H30.5021C29.9063 40.6048 29.3631 40.9454 29.1035 41.4817L26.1577 47.5676C25.6582 48.5994 26.4099 49.7984 27.5563 49.7984H33.8165C34.9629 49.7984 35.7146 48.5994 35.2151 47.5676L32.2693 41.4817C32.0098 40.9454 31.4665 40.6048 30.8708 40.6048Z" fill="white"/>
<path d="M26.458 32.4198H30.4712V38.7022H26.458V32.4198Z" fill="#EBD9EA"/>
<path d="M29.2069 38.7022C28.5087 38.7022 27.9427 38.1362 27.9427 37.438V34.6387C27.9427 33.9404 28.5087 33.3745 29.2069 33.3745C29.9052 33.3745 30.4711 33.9404 30.4711 34.6387V37.438C30.4711 38.1361 29.9052 38.7022 29.2069 38.7022Z" fill="white"/>
<path d="M35.6543 56.4137C35.207 56.6304 34.7004 56.7532 34.1528 56.7532H20.238C19.6904 56.7532 19.1839 56.6303 18.7365 56.4147C18.8885 55.7627 19.4727 55.2776 20.1711 55.2776H34.2197C34.6271 55.2776 34.9958 55.4425 35.263 55.7097C35.4528 55.9007 35.5907 56.1421 35.6543 56.4137V56.4137Z" fill="#9F90AE"/>
<path d="M33.6194 30.8107C33.6194 31.1986 33.4835 31.5555 33.2561 31.8347C32.9576 32.2022 32.5027 32.436 31.993 32.436H22.397C21.9475 32.436 21.5422 32.2539 21.248 31.9596C21.2082 31.9197 21.1705 31.8787 21.1359 31.8345V31.8335C20.9074 31.5544 20.7716 31.1986 20.7716 30.8107C20.7716 30.4086 20.9182 30.0401 21.1607 29.7554C21.4581 29.4062 21.9012 29.1841 22.397 29.1841H31.993C32.4414 29.1841 32.8488 29.3663 33.143 29.6606C33.1732 29.6908 33.2023 29.7231 33.2304 29.7554C33.4727 30.0401 33.6194 30.4086 33.6194 30.8107V30.8107Z" fill="#EBD9EA"/>
<path d="M33.2561 31.8347C32.9575 32.2022 32.5027 32.4361 31.993 32.4361H22.397C21.9475 32.4361 21.5422 32.2539 21.248 31.9596C21.2082 31.9198 21.1705 31.8787 21.1359 31.8346V31.8336C21.4334 31.466 21.8872 31.2322 22.397 31.2322H31.993C32.4414 31.2322 32.8487 31.4144 33.143 31.7086C33.1828 31.7484 33.2206 31.7905 33.2561 31.8347V31.8347Z" fill="#C1B7D3"/>
<path d="M33.2302 29.7555C32.9316 30.1047 32.4887 30.3268 31.9928 30.3268H22.3968C21.9474 30.3268 21.542 30.1446 21.2479 29.8503C21.2177 29.8201 21.1886 29.7878 21.1606 29.7555C21.458 29.4062 21.9011 29.1842 22.3968 29.1842H31.9928C32.4412 29.1842 32.8486 29.3664 33.1429 29.6606C33.1731 29.6908 33.2022 29.7232 33.2302 29.7555V29.7555Z" fill="white"/>
<path d="M32.2516 53.8441H32.2506C32.1147 53.87 31.9757 53.883 31.8312 53.883H22.5596C22.3472 53.883 22.1446 53.8549 21.9527 53.8033C20.613 53.4432 19.8413 51.916 20.488 50.5794L23.979 43.3676L24.851 41.5655C25.2346 40.7722 26.0399 40.2666 26.9214 40.2666H27.4678C27.609 40.2666 27.747 40.2796 27.8829 40.3055H27.8839C28.5963 40.4359 29.2161 40.8994 29.5395 41.5655L30.0644 42.6508L32.7816 48.2642L33.9014 50.5794C34.5786 51.9763 33.7056 53.5822 32.2516 53.8441V53.8441Z" fill="#D7156F"/>
<path d="M32.2516 53.8441C32.2516 53.8441 32.2516 53.8453 32.2506 53.8441C31.5381 53.7138 30.9194 53.2513 30.5961 52.5841L26.233 43.5712C25.5572 42.1732 26.4303 40.5684 27.8831 40.3054C27.8831 40.3054 27.8831 40.3043 27.8841 40.3054C28.5966 40.4357 29.2164 40.8992 29.5397 41.5654L33.9017 50.5793C34.5786 51.9763 33.7056 53.5822 32.2516 53.8441Z" fill="#DF3D81"/>
<path d="M25.444 46.5913L21.9529 53.8031C20.6131 53.4431 19.8414 51.9159 20.4881 50.5793L23.9792 43.3675C25.3189 43.7275 26.0907 45.2537 25.444 46.5913Z" fill="#B82065"/>
<path d="M32.7819 48.2642H31.0185C30.8061 48.2642 30.6035 48.2361 30.4116 48.1845C29.0719 47.8244 28.3002 46.2972 28.9469 44.9606L30.0646 42.6508L32.7819 48.2642Z" fill="#ED72AB"/>
<path d="M48.202 40.187L50.0044 38.3845L53.4209 41.8009L51.6184 43.6034L48.202 40.187Z" fill="#C1B7D3"/>
<path d="M50.0141 38.383L53.431 41.7999C53.0578 42.1732 52.4525 42.1737 52.0787 41.7999L50.0141 39.7353C49.641 39.3622 49.641 38.7562 50.0141 38.383V38.383Z" fill="#EBD9EA"/>
<path d="M51.6283 43.6027L48.87 40.8444C49.1713 40.5431 49.6599 40.5427 49.9617 40.8444L51.6283 42.511C51.9296 42.8123 51.9296 43.3014 51.6283 43.6027Z" fill="#9F90AE"/>
<path d="M50.0141 38.383L52.3234 40.6923C51.9501 41.0655 51.3448 41.066 50.9711 40.6923L50.0141 39.7353C49.641 39.3622 49.641 38.7562 50.0141 38.383Z" fill="white"/>
<path d="M61.1597 47.8359C60.9096 48.3057 60.6468 48.7678 60.3713 49.2235C60.0514 49.7567 59.715 50.281 59.3646 50.7939C59.0637 51.2357 58.7527 51.6699 58.4289 52.0952L51.9632 45.6295C51.4567 45.1229 51.2167 44.4526 51.2421 43.7887C51.2485 43.6211 51.2726 43.4535 51.3132 43.2885C51.378 43.0219 51.4884 42.7641 51.6433 42.528C51.7347 42.3884 51.8413 42.2576 51.9632 42.1357C52.0394 42.0596 52.1206 41.9885 52.2032 41.925C52.2082 41.9212 52.212 41.9174 52.2171 41.9148C52.2514 41.8894 52.2857 41.8641 52.3212 41.8399C52.3555 41.8158 52.391 41.793 52.4279 41.7714C52.4444 41.7612 52.4609 41.7511 52.4774 41.7409C52.5053 41.7244 52.5332 41.7092 52.5624 41.6952C52.5891 41.68 52.6158 41.6673 52.6424 41.6546C52.7948 41.5809 52.9534 41.5238 53.1147 41.4845C53.1337 41.4794 53.1515 41.4756 53.1705 41.4718L53.2429 41.4565C53.3978 41.4261 53.5539 41.4108 53.7114 41.4108C54.3436 41.4108 54.9758 41.652 55.4582 42.1345L61.1597 47.8359Z" fill="#22BCE0"/>
<path d="M59.3646 50.794C59.0637 51.2358 58.7527 51.6699 58.4289 52.0952L51.9632 45.6295C51.4567 45.123 51.2167 44.4527 51.2421 43.7887C51.2726 43.7874 51.3043 43.7874 51.3348 43.7874C51.967 43.7874 52.5992 44.0286 53.0817 44.511L59.3646 50.794Z" fill="#22A8B9"/>
<path d="M61.1597 47.8359C60.9096 48.3057 60.6468 48.7678 60.3713 49.2235C59.7924 49.1867 59.2249 48.9468 58.7831 48.5037L52.7554 42.476L52.2032 41.925C52.2082 41.9212 52.212 41.9174 52.2171 41.9148C52.2514 41.8894 52.2857 41.8641 52.3212 41.8399C52.3555 41.8158 52.391 41.793 52.4279 41.7714C52.4634 41.7485 52.499 41.7282 52.5358 41.7092C52.5713 41.6889 52.6069 41.6711 52.6424 41.6546C52.6729 41.6393 52.7034 41.6254 52.7351 41.6127C52.7656 41.5987 52.7973 41.586 52.829 41.5746C52.857 41.5632 52.8862 41.553 52.9141 41.5441C52.9801 41.5213 53.0474 41.501 53.1147 41.4845C53.1261 41.4819 53.1363 41.4794 53.1477 41.4768C53.182 41.4692 53.215 41.4616 53.2492 41.4553C53.2594 41.4527 53.2683 41.4515 53.2784 41.4502C53.3178 41.4426 53.3572 41.4375 53.3965 41.4324C53.4054 41.4299 53.4156 41.4286 53.4257 41.4286C53.4638 41.4235 53.5019 41.4197 53.54 41.4184C53.5539 41.4159 53.5692 41.4146 53.5831 41.4146C53.625 41.4121 53.6682 41.4108 53.7114 41.4108C54.3436 41.4108 54.9758 41.652 55.4582 42.1345L61.1597 47.8359Z" fill="#4FCAE8"/>
<path d="M53.7108 41.4111C54.3438 41.4111 54.9757 41.6519 55.4585 42.1347L58.8835 45.5598C57.9146 46.3083 56.517 46.2381 55.6281 45.3492L52.2035 41.9246C52.6463 41.5824 53.1789 41.4117 53.7108 41.4111V41.4111Z" fill="#83D5EF"/>
<path d="M44.4615 26.8493C40.1629 26.8493 36.678 30.3342 36.678 34.6328C36.678 38.9327 40.1629 42.4163 44.4615 42.4163C46.1513 42.4163 47.7141 41.8793 48.99 40.964C49.1436 40.856 49.2921 40.7405 49.4368 40.6199C49.7022 40.399 49.9535 40.1616 50.1871 39.9077C50.4042 39.6728 50.6073 39.4227 50.794 39.1625C51.708 37.8866 52.2463 36.3225 52.2463 34.6328C52.2463 30.3342 48.7614 26.8493 44.4615 26.8493ZM44.4615 29.1345C47.4983 29.1345 49.9599 31.5961 49.9599 34.6328C49.9599 37.6695 47.4983 40.1311 44.4615 40.1311C41.4261 40.1311 38.9645 37.6695 38.9645 34.6328C38.9645 31.5961 41.4261 29.1345 44.4615 29.1345Z" fill="#F39E22"/>
<path d="M44.4615 28.0554C40.8294 28.0554 37.8841 30.9994 37.8841 34.6328C37.8841 38.2649 40.8294 41.2102 44.4615 41.2102C48.0949 41.2102 51.0402 38.2649 51.0402 34.6328C51.0402 30.9994 48.0949 28.0554 44.4615 28.0554ZM44.4615 40.1311C41.4261 40.1311 38.9645 37.6695 38.9645 34.6328C38.9645 31.5961 41.4261 29.1345 44.4615 29.1345C47.4983 29.1345 49.9599 31.5961 49.9599 34.6328C49.9599 37.6695 47.4983 40.1311 44.4615 40.1311Z" fill="#DD8C29"/>
<path d="M48.2037 35.2823C47.8452 35.2823 47.5545 34.9916 47.5545 34.6331C47.5545 32.9278 46.1672 31.5406 44.462 31.5406C44.1035 31.5406 43.8128 31.2499 43.8128 30.8914C43.8128 30.5328 44.1035 30.2421 44.462 30.2421C46.8832 30.2421 48.853 32.2119 48.853 34.6331C48.8528 34.9916 48.5622 35.2823 48.2037 35.2823V35.2823Z" fill="white"/>
<path d="M44.462 39.024C42.0409 39.024 40.0711 37.0542 40.0711 34.6331C40.0711 34.2746 40.3618 33.9838 40.7203 33.9838C41.0789 33.9838 41.3696 34.2746 41.3696 34.6331C41.3696 36.3383 42.7569 37.7255 44.4622 37.7255C44.8207 37.7255 45.1114 38.0162 45.1114 38.3748C45.1114 38.7333 44.8206 39.024 44.462 39.024V39.024Z" fill="#C2AACF"/>
<path d="M17.228 10.3976C22.0684 12.7309 30.0268 16.5674 23.4887 23.1055C16.9506 29.6436 13.1141 21.6852 10.7808 16.8448C9.46828 14.122 9.7199 11.6995 10.9013 10.5181C12.0828 9.33664 14.5053 9.08502 17.228 10.3976Z" fill="#53B976"/>
<path d="M22.4501 22.067L11.9399 11.5567C12.2267 11.2699 12.2267 10.805 11.9399 10.5182C11.6531 10.2314 11.1882 10.2314 10.9014 10.5182C9.72002 11.6996 9.4684 14.122 10.781 16.8449C13.1144 21.6853 16.9508 29.6437 23.4888 23.1056C23.7756 22.8188 23.7756 22.3539 23.4888 22.0671C23.2021 21.7803 22.7369 21.7802 22.4501 22.067V22.067Z" fill="#528F66"/>
<path d="M17.2226 11.456C21.2642 13.4044 27.9095 16.6076 22.4501 22.067C16.9908 27.5264 13.7875 20.8811 11.8391 16.8395C10.7431 14.566 10.9532 12.5432 11.9398 11.5567C12.9264 10.5701 14.9491 10.36 17.2226 11.456Z" fill="#53B976"/>
<path d="M16.5524 18.3369C16.3389 18.5504 15.9925 18.5504 15.779 18.3369L15.0979 17.6558C14.8844 17.4422 14.8844 17.0959 15.0979 16.8824C15.3114 16.6688 15.6578 16.6688 15.8713 16.8824L16.5524 17.5635C16.7659 17.777 16.7659 18.1233 16.5524 18.3369Z" fill="#78C795"/>
<path d="M13.1875 14.972C12.974 15.1855 12.6276 15.1855 12.4141 14.972L11.733 14.2909C11.5195 14.0773 11.5195 13.731 11.733 13.5175C11.9465 13.3039 12.2929 13.3039 12.5064 13.5175L13.1875 14.1986C13.401 14.4121 13.401 14.7583 13.1875 14.972Z" fill="#78C795"/>
<path d="M20.4178 22.2022C20.2043 22.4157 19.858 22.4157 19.6444 22.2022L18.9633 21.5211C18.7498 21.3076 18.7498 20.9612 18.9633 20.7477C19.1769 20.5342 19.5232 20.5342 19.7367 20.7477L20.4178 21.4288C20.6314 21.6425 20.6314 21.9887 20.4178 22.2022Z" fill="#78C795"/>
<path d="M24.0383 21.0176C23.8577 21.1983 23.569 21.2326 23.3483 21.0852C23.0972 20.9175 23.0295 20.5779 23.1973 20.3266C24.2225 18.791 24.2304 17.4469 23.2221 16.0968C23.0414 15.8548 23.0919 15.5117 23.3331 15.3314C23.5751 15.1506 23.9178 15.2004 24.0984 15.4423C25.3859 17.1662 25.3887 19.0139 24.1069 20.934C24.0863 20.9647 24.0633 20.9926 24.0383 21.0176Z" fill="#9ACDAE"/>
<path d="M21.4791 13.915C21.3008 14.0932 21.0167 14.1295 20.7962 13.9875C20.2371 13.6268 19.5958 13.2596 18.8358 12.8648C18.5678 12.7255 18.4634 12.3955 18.6027 12.1275C18.7416 11.8593 19.072 11.7551 19.34 11.8943C20.1307 12.305 20.8009 12.689 21.389 13.0683C21.6428 13.232 21.7159 13.5705 21.5522 13.8242C21.5307 13.8577 21.5061 13.8879 21.4791 13.915V13.915Z" fill="#9ACDAE"/>
<path d="M16.5323 11.4118C16.3926 11.5516 16.1816 11.6105 15.9801 11.5467C15.065 11.2568 14.1961 11.1911 13.4672 11.3569C13.1727 11.4239 12.8796 11.2394 12.8126 10.9448C12.7456 10.6504 12.93 10.3572 13.2247 10.2902C14.1431 10.0814 15.2101 10.1554 16.3104 10.504C16.5984 10.5952 16.7578 10.9025 16.6665 11.1904C16.6391 11.277 16.5923 11.3518 16.5323 11.4118V11.4118Z" fill="#9ACDAE"/>
<path d="M22.2121 14.3249C21.9789 14.1395 21.6355 14.2012 21.4749 14.4521L19.7809 17.0997C19.4571 17.6059 18.8581 17.6798 18.4431 17.2648L17.1012 15.9229C16.6862 15.5078 16.6123 14.7611 16.9362 14.2549L18.0624 12.4946C18.2258 12.2393 18.1297 11.8986 17.8571 11.7662L17.5386 11.6114C17.3075 11.4992 17.0291 11.5776 16.8907 11.794L15.9482 13.267C15.6244 13.7732 15.0254 13.847 14.6104 13.432L13.3684 12.1901C13.3684 12.1901 13.2934 12.115 13.2685 12.0901C12.4754 11.2971 11.9985 10.5842 11.9985 10.5842C11.805 10.3907 11.5787 10.708 11.3792 10.8953C11.3618 10.9115 11.3448 10.9281 11.328 10.9449C11.3243 10.9486 11.3207 10.9523 11.317 10.9561C11.1245 11.1513 11.1334 11.4685 11.3273 11.6623L12.5117 12.8468L12.572 12.9071L13.8536 14.1887C14.2686 14.6037 14.1947 15.2027 13.6886 15.5265L12.172 16.4968C11.9557 16.6352 11.8772 16.9136 11.9893 17.1447L12.1439 17.4632C12.2764 17.7359 12.6171 17.832 12.8725 17.6686L14.6765 16.5145C15.1827 16.1906 15.9294 16.2645 16.3444 16.6795L17.6863 18.0214C18.1013 18.4364 18.0275 19.0354 17.5213 19.3592L14.8279 21.0825C14.5771 21.2428 14.5154 21.5861 14.7004 21.8192C14.7797 21.9192 14.8602 22.0172 14.9417 22.113C15.1054 22.305 15.3868 22.3449 15.5994 22.2089L18.5094 20.3472C19.0155 20.0233 19.7623 20.0972 20.1773 20.5122L21.2787 21.6137L22.327 22.6619L22.5408 22.8757C22.7375 23.0725 23.0575 23.0751 23.2542 22.8785L23.2579 22.8748C23.2724 22.8603 23.2866 22.846 23.3008 22.8316C23.4962 22.634 23.4936 22.3153 23.297 22.1187L23.3873 21.9825C23.3873 21.9825 22.5715 21.3931 22.0352 20.857C21.7599 20.5817 20.9338 19.7556 20.9338 19.7556C20.5188 19.3406 20.4449 18.5938 20.7688 18.0877L22.6009 15.224C22.7368 15.0116 22.6972 14.7305 22.5055 14.5667C22.4099 14.4849 22.312 14.4044 22.2121 14.3249V14.3249Z" fill="#528F66"/>
<path d="M37.2652 10.3976C32.4248 12.7309 24.4664 16.5674 31.0045 23.1055C37.5426 29.6436 41.3791 21.6853 43.7124 16.8448C45.0249 14.122 44.7733 11.6995 43.5919 10.5181C42.4105 9.33666 39.9879 9.08504 37.2652 10.3976Z" fill="#53B976"/>
<path d="M32.0431 22.067L42.5534 11.5567C42.2666 11.2699 42.2666 10.805 42.5534 10.5182C42.8402 10.2314 43.3051 10.2314 43.5919 10.5182C44.7733 11.6996 45.0249 14.122 43.7124 16.8449C41.3791 21.6853 37.5427 29.6437 31.0045 23.1055C30.7177 22.8187 30.7177 22.3538 31.0045 22.067C31.2913 21.7802 31.7563 21.7802 32.0431 22.067V22.067Z" fill="#528F66"/>
<path d="M37.2707 11.456C33.229 13.4044 26.5837 16.6077 32.0431 22.067C37.5025 27.5264 40.7057 20.8811 42.6541 16.8395C43.7501 14.566 43.54 12.5432 42.5534 11.5567C41.5669 10.5701 39.5441 10.36 37.2707 11.456V11.456Z" fill="#53B976"/>
<path d="M37.9408 18.3369C38.1544 18.5504 38.5007 18.5504 38.7142 18.3369L39.3953 17.6558C39.6089 17.4422 39.6089 17.0959 39.3953 16.8824C39.1818 16.6688 38.8355 16.6688 38.6219 16.8824L37.9408 17.5635C37.7273 17.777 37.7273 18.1233 37.9408 18.3369Z" fill="#78C795"/>
<path d="M41.3057 14.972C41.5193 15.1855 41.8656 15.1855 42.0791 14.972L42.7602 14.2909C42.9738 14.0774 42.9738 13.731 42.7602 13.5175C42.5467 13.304 42.2004 13.304 41.9868 13.5175L41.3057 14.1986C41.0922 14.4121 41.0922 14.7583 41.3057 14.972Z" fill="#78C795"/>
<path d="M34.0754 22.2022C34.2889 22.4158 34.6352 22.4158 34.8488 22.2022L35.5299 21.5211C35.7434 21.3076 35.7434 20.9613 35.5299 20.7477C35.3163 20.5342 34.97 20.5342 34.7565 20.7477L34.0754 21.4288C33.8618 21.6425 33.8618 21.9887 34.0754 22.2022Z" fill="#78C795"/>
<path d="M30.455 21.0176C30.6357 21.1983 30.9244 21.2326 31.145 21.0852C31.3962 20.9175 31.4638 20.5779 31.2961 20.3266C30.2708 18.791 30.263 17.447 31.2712 16.0968C31.452 15.8548 31.4015 15.5117 31.1603 15.3314C30.9183 15.1506 30.5755 15.2004 30.395 15.4424C29.1074 17.1663 29.1046 19.0139 30.3865 20.934C30.4069 20.9647 30.4299 20.9926 30.455 21.0176Z" fill="#9ACDAE"/>
<path d="M33.0142 13.915C33.1924 14.0932 33.4765 14.1295 33.697 13.9875C34.2561 13.6268 34.8974 13.2597 35.6574 12.8648C35.9254 12.7256 36.0298 12.3955 35.8905 12.1275C35.7516 11.8594 35.4212 11.7551 35.1532 11.8943C34.3625 12.305 33.6923 12.689 33.1042 13.0683C32.8504 13.232 32.7773 13.5706 32.941 13.8242C32.9625 13.8577 32.9871 13.8879 33.0142 13.915V13.915Z" fill="#9ACDAE"/>
<path d="M37.9609 11.4119C38.1007 11.5516 38.3117 11.6105 38.5131 11.5467C39.4282 11.2568 40.2971 11.1911 41.0261 11.3569C41.3206 11.4239 41.6136 11.2395 41.6806 10.9448C41.7477 10.6504 41.5632 10.3573 41.2685 10.2902C40.3502 10.0814 39.2831 10.1554 38.1828 10.504C37.8949 10.5952 37.7354 10.9025 37.8267 11.1905C37.8541 11.277 37.901 11.3518 37.9609 11.4119V11.4119Z" fill="#9ACDAE"/>
<path d="M32.2812 14.3249C32.5145 14.1396 32.8579 14.2013 33.0185 14.4521L34.7124 17.0997C35.0363 17.6059 35.6352 17.6798 36.0502 17.2648L37.3921 15.9229C37.8071 15.5079 37.881 14.7611 37.5572 14.255L36.431 12.4946C36.2676 12.2393 36.3637 11.8986 36.6362 11.7662L36.9548 11.6114C37.1858 11.4992 37.4642 11.5776 37.6026 11.794L38.5451 13.267C38.869 13.7732 39.4679 13.8471 39.8829 13.4321L41.1249 12.1901C41.1249 12.1901 41.2 12.115 41.2248 12.0902C42.0179 11.2971 42.4949 10.5842 42.4949 10.5842C42.6884 10.3908 42.9146 10.708 43.1142 10.8953C43.1315 10.9115 43.1486 10.9282 43.1653 10.9449C43.169 10.9486 43.1727 10.9523 43.1764 10.9561C43.3688 11.1513 43.3599 11.4685 43.1661 11.6623L41.9816 12.8468L41.9213 12.9071L40.6397 14.1887C40.2247 14.6037 40.2986 15.2027 40.8047 15.5265L42.3213 16.4968C42.5377 16.6352 42.6161 16.9136 42.504 17.1447L42.3494 17.4632C42.217 17.7359 41.8762 17.832 41.6208 17.6686L39.8168 16.5145C39.3106 16.1906 38.5639 16.2645 38.1489 16.6795L36.807 18.0214C36.392 18.4364 36.4659 19.0354 36.972 19.3592L39.6655 21.0825C39.9162 21.2428 39.9779 21.5861 39.7929 21.8192C39.7136 21.9192 39.6331 22.0173 39.5516 22.113C39.388 22.3051 39.1065 22.3449 38.894 22.209L35.984 20.3472C35.4778 20.0233 34.7311 20.0972 34.316 20.5122L33.2146 21.6137L32.1664 22.6619L31.9526 22.8757C31.7558 23.0725 31.4359 23.0752 31.2391 22.8785C31.2378 22.8772 31.2367 22.8761 31.2354 22.8748C31.2211 22.8604 31.2067 22.846 31.1925 22.8317C30.9971 22.634 30.9998 22.3153 31.1963 22.1187L31.106 21.9825C31.106 21.9825 31.9218 21.3932 32.4581 20.857C32.7335 20.5817 33.5595 19.7556 33.5595 19.7556C33.9745 19.3406 34.0484 18.5938 33.7246 18.0877L31.8924 15.224C31.7565 15.0116 31.7962 14.7305 31.9879 14.5668C32.0833 14.4849 32.1812 14.4044 32.2812 14.3249V14.3249Z" fill="#528F66"/>
<path d="M28.0947 22.8821V29.184H26.2971V22.8821C26.2971 22.6332 26.3974 22.4085 26.5599 22.246C26.6766 22.1292 26.8226 22.0454 26.9877 22.0074C27.055 21.9909 27.1235 21.982 27.1959 21.982C27.6923 21.982 28.0947 22.3857 28.0947 22.8821V22.8821Z" fill="#53B976"/>
<path d="M27.1959 21.982V29.184H26.2971V22.8821C26.2971 22.6332 26.3974 22.4085 26.5599 22.246C26.6766 22.1292 26.8226 22.0454 26.9877 22.0074C27.055 21.9909 27.1235 21.982 27.1959 21.982V21.982Z" fill="#528F66"/>
</svg>
