<svg width="65" height="65" viewBox="0 0 65 65" fill="none" xmlns="http://www.w3.org/2000/svg">
<rect width="65" height="65" rx="6" fill="#22BCE0"/>
<path d="M65 32.5C65 47.1974 55.2437 59.6159 41.8539 63.634C41.435 63.7597 41.0122 63.8765 40.5856 63.9856C38.0009 64.6483 35.2917 65 32.5 65C30.7925 65 29.1154 64.868 27.479 64.6141C26.6221 64.482 25.7753 64.3145 24.9412 64.1151C10.6374 60.709 0 47.8461 0 32.5C0 23.8989 3.34141 16.0786 8.79658 10.2654C9.59639 9.41357 10.4406 8.60488 11.328 7.84316C13.523 5.95537 15.9745 4.35576 18.6215 3.10527C22.83 1.11338 27.5349 0 32.5 0C50.4486 0 65 14.5514 65 32.5Z" fill="#22BCE0"/>
<path d="M46.7034 58.8146C44.2946 58.8146 41.0893 57.4858 36.0265 54.4987L38.1555 50.8904C44.2152 54.4658 46.4251 54.85 47.2117 54.5427C48.4469 54.0075 49.4726 48.8989 50.2817 46.8126L54.2497 48.1567C52.643 52.6801 52.0515 58.841 46.7034 58.8146Z" fill="#2D2667"/>
<path d="M50.253 46.734C50.2534 47.6718 51.0132 48.4344 51.9529 48.4339H56.5689C57.5161 48.4365 58.2724 47.6542 58.2688 46.734C58.2686 45.7943 57.5086 45.0344 56.5689 45.0341H51.9529C51.0322 45.0305 50.2508 45.7858 50.253 46.734Z" fill="#A26D5A"/>
<path d="M51.0147 45.9715C51.0151 46.9093 51.7749 47.6719 52.7146 47.6714H57.3306C57.6036 47.6714 57.86 47.6079 58.0885 47.4937C58.663 46.3997 57.8118 45.0101 56.5689 45.0333H51.9529C51.6799 45.0333 51.4222 45.0981 51.1937 45.2123C51.0795 45.4408 51.0147 45.6985 51.0147 45.9715V45.9715Z" fill="#D48D77"/>
<path d="M26.7299 56.0189C18.3313 56.0779 15.7939 51.8684 14.6422 44.5808C14.4018 43.2971 14.0814 41.7889 13.7549 40.4793L18.1508 40.8518C19.9574 49.0407 19.1143 52.6656 29.6798 51.6705L30.0892 55.8398C28.8796 55.9585 27.7623 56.0189 26.7299 56.0189V56.0189Z" fill="#2D2667"/>
<path d="M17.6735 42.2534C17.0102 42.9164 15.9336 42.9183 15.2695 42.2534L12.0056 38.9895C11.334 38.3216 11.3523 37.2336 12.0056 36.5855C12.6703 35.9211 13.7448 35.9211 14.4096 36.5855L17.6735 39.8494C18.3271 40.4978 18.3455 41.5844 17.6735 42.2534Z" fill="#A26D5A"/>
<path d="M17.6735 41.1761C17.0101 41.839 15.9336 41.841 15.2696 41.1761L12.0056 37.9121C11.8126 37.7192 11.6761 37.4929 11.5953 37.2506C11.9627 36.0708 13.5471 35.6901 14.4096 36.5855L17.6735 39.8494C17.8665 40.0424 18.003 40.2704 18.0837 40.5128C18.003 40.7551 17.8665 40.9831 17.6735 41.1761V41.1761Z" fill="#D48D77"/>
<path d="M41.8539 57.7802V63.634C36.4809 65.2633 30.4412 65.4445 24.9412 64.1151V57.7802C24.9412 57.1568 25.0098 56.55 25.138 55.966C25.4871 54.3677 26.2869 52.9382 27.4003 51.8185C32.7403 46.502 41.8096 50.2328 41.8539 57.7802Z" fill="#2D2667"/>
<path d="M41.8539 57.7802V63.634C37.3123 65.0115 32.2203 65.3628 27.479 64.614V57.7802C27.4801 57.1888 27.5412 56.5968 27.6631 56.0193C27.9261 54.7888 28.4638 53.6165 29.236 52.6233C29.8483 51.8276 30.6067 51.138 31.4603 50.606H31.4615V50.6048C31.8313 50.3768 32.2145 50.1717 32.6143 50.0043C33.0709 49.805 33.5462 49.6553 34.0311 49.5409C34.2405 49.4927 34.4525 49.4495 34.6684 49.4178C34.9253 49.4556 35.1782 49.5074 35.4288 49.5688C39.1626 50.4633 41.8868 53.9474 41.8539 57.7802V57.7802Z" fill="#6C53A2"/>
<path d="M40.5856 57.7802V63.9856C36.4462 65.0646 31.7604 65.2938 27.479 64.6141V57.7802C27.4801 57.1888 27.5412 56.5968 27.6631 56.0193C27.9259 54.7885 28.464 53.6169 29.236 52.6233C29.8467 51.8272 30.608 51.1382 31.4603 50.6061H31.4615V50.6048C31.8313 50.3768 32.2145 50.1718 32.6143 50.0043C33.0601 49.8104 33.5232 49.6611 33.9968 49.5498C34.4897 49.6139 34.9686 49.8178 35.4288 49.9941C38.5185 51.2952 40.6056 54.3952 40.5856 57.7802V57.7802Z" fill="#57409B"/>
<path d="M28.9093 42.6909C29.0024 43.8223 28.1303 44.8278 26.9812 44.8216H25.3524C22.7746 44.7586 22.7746 40.8258 25.3524 40.7629H26.9812C28.046 40.763 28.9093 41.6262 28.9093 42.6909Z" fill="#C17E62"/>
<path d="M43.3739 42.6909C43.4671 43.8223 42.5949 44.8278 41.4459 44.8216H39.8171C37.2393 44.7586 37.2393 40.8258 39.8171 40.7629H41.4459C42.5108 40.763 43.3739 41.6262 43.3739 42.6909Z" fill="#C17E62"/>
<path d="M29.5926 42.7923C29.5926 43.2388 29.2307 43.6009 28.7841 43.6009H25.751C25.3045 43.6009 24.9425 43.2389 24.9425 42.7923C24.9425 42.3458 25.3044 41.9838 25.751 41.9838H28.7841C29.2306 41.9838 29.5926 42.3457 29.5926 42.7923Z" fill="#A26D5A"/>
<path d="M41.8557 42.7923C41.8557 43.2388 41.4937 43.6009 41.0471 43.6009H38.0141C37.5676 43.6009 37.2055 43.2389 37.2055 42.7923C37.2055 42.3458 37.5674 41.9838 38.0141 41.9838H41.0471C41.4937 41.9838 41.8557 42.3457 41.8557 42.7923V42.7923Z" fill="#A26D5A"/>
<path d="M35.4287 47.9848V50.0034C35.4347 51.1312 34.4914 52.0418 33.3987 52.0321C32.2777 52.0321 31.37 51.1244 31.37 50.0034V47.9848C31.3507 46.6767 32.6488 45.68 33.9065 46.0196C34.7929 46.2508 35.4282 47.0455 35.4287 47.9848Z" fill="#A26D5A"/>
<path d="M35.4287 47.9849V50.0034C35.4287 50.9492 34.7812 51.7427 33.9065 51.9686C33.0318 51.7427 32.3844 50.9492 32.3844 50.0034V47.9849C32.3844 47.0391 33.0318 46.2456 33.9065 46.0196C34.7929 46.2508 35.4282 47.0455 35.4287 47.9849Z" fill="#C17E62"/>
<path d="M35.4287 47.9851V49.8437C34.9539 49.9516 34.4588 50.0087 33.9509 50.0087C33.1499 50.0094 32.1422 50.0434 31.37 49.8437V47.9851C31.3507 46.677 32.6488 45.6804 33.9065 46.0199C34.7929 46.2511 35.4282 47.0458 35.4287 47.9851V47.9851Z" fill="#A26D5A"/>
<path d="M40.6312 37.741V42.3139C40.6448 46.0102 37.5907 49.011 33.9509 48.9941H32.8477C29.1572 48.9941 26.1662 46.0031 26.1662 42.3139V37.741C26.1662 34.0518 29.1572 31.0607 32.8477 31.0607H33.9509C37.5908 31.0444 40.6448 34.0444 40.6312 37.741Z" fill="#C17E62"/>
<path d="M40.6312 37.741V42.3139C40.6312 45.8254 37.9207 48.7047 34.4778 48.9738C31.0348 48.706 28.3231 45.8267 28.3231 42.3139V37.741C28.3231 34.2282 31.0348 31.3489 34.4778 31.0811C37.9207 31.3502 40.6312 34.2295 40.6312 37.741Z" fill="#D48D77"/>
<path d="M33.3991 45.7848C32.5619 45.7848 31.8049 45.5282 31.4234 45.1151C31.2018 44.8663 31.5654 44.5291 31.7965 44.7705C32.3784 45.4374 34.42 45.4372 35.0016 44.7705C35.2307 44.5293 35.5976 44.8659 35.3746 45.1151C34.9932 45.5281 34.2362 45.7848 33.3991 45.7848Z" fill="#A26D5A"/>
<path d="M34.5118 43.4922H32.2865C31.9533 43.4868 31.9522 42.9901 32.2865 42.9844H34.5118C34.8448 42.9899 34.846 43.4865 34.5118 43.4922Z" fill="#C17E62"/>
<path d="M31.6102 40.9897C31.6102 40.4413 31.1656 39.9967 30.6172 39.9967C29.3014 40.0453 29.3018 41.9341 30.6172 41.9826C31.1656 41.9826 31.6102 41.538 31.6102 40.9897V40.9897Z" fill="#EAB39B"/>
<path d="M37.174 40.9897C37.174 40.4413 36.7294 39.9967 36.181 39.9967C34.8653 40.0453 34.8656 41.9341 36.181 41.9826C36.7294 41.9826 37.174 41.538 37.174 40.9897V40.9897Z" fill="#EAB39B"/>
<path d="M31.5424 41.3603C31.5424 40.8493 31.1281 40.4351 30.6172 40.4351C29.3924 40.4774 29.3928 42.2433 30.6172 42.2854C31.1281 42.2856 31.5424 41.8713 31.5424 41.3603Z" fill="#122894"/>
<path d="M31.2644 41.3795C31.6927 40.9289 31.0484 40.2849 30.598 40.7131C30.1696 41.1637 30.8139 41.8078 31.2644 41.3795Z" fill="#E8F3FC"/>
<path d="M37.1062 41.3603C37.1062 40.8493 36.692 40.4351 36.181 40.4351C34.9563 40.4774 34.9566 42.2433 36.181 42.2854C36.6921 42.2856 37.1062 41.8713 37.1062 41.3603Z" fill="#122894"/>
<path d="M36.8284 41.3795C37.2567 40.9289 36.6124 40.2849 36.162 40.7131C35.7336 41.1637 36.3779 41.8078 36.8284 41.3795Z" fill="#E8F3FC"/>
<path d="M38.5227 39.6602C37.5059 39.2213 35.8949 39.2217 34.8799 39.6602C34.6469 39.7521 34.4947 39.9756 34.4947 40.2261V41.5904C34.6109 44.5171 38.7921 44.5168 38.908 41.5904V40.2262C38.9078 39.9756 38.7556 39.7521 38.5227 39.6602V39.6602Z" fill="#E8F3FC"/>
<path d="M36.7011 44.0517C35.3439 44.0517 34.2396 42.9475 34.2396 41.5902H34.7493C34.8569 44.1802 38.5463 44.1782 38.6529 41.5902H39.1626C39.1626 42.9475 38.0584 44.0517 36.7011 44.0517V44.0517Z" fill="#6C53A2"/>
<path d="M39.1626 41.5902H38.6529V40.226C38.6529 40.0799 38.565 39.9508 38.4291 39.8971C37.4735 39.4815 35.9268 39.4823 34.9733 39.8971C34.8373 39.9508 34.7493 40.0797 34.7493 40.226V41.5902H34.2396V40.226C34.2396 39.8691 34.4542 39.554 34.7862 39.423C35.1946 39.2618 35.8583 39.0696 36.7011 39.0696C37.5438 39.0696 38.2077 39.2618 38.6161 39.423C38.9481 39.554 39.1625 39.8693 39.1625 40.226V41.5902H39.1626Z" fill="#2D2667"/>
<path d="M31.8387 39.6534C30.8302 39.2232 29.2364 39.2237 28.2297 39.6534C27.986 39.7484 27.8276 39.9827 27.8276 40.2443V41.5901C27.9436 44.5167 32.1248 44.5166 32.2409 41.5901V40.2443C32.2409 39.9829 32.0824 39.7484 31.8387 39.6534Z" fill="#E8F3FC"/>
<path d="M30.0343 44.0517C28.6771 44.0517 27.5728 42.9475 27.5728 41.5902H28.0825C28.1901 44.1802 31.8794 44.1782 31.9861 41.5902H32.4958C32.4957 42.9475 31.3914 44.0517 30.0343 44.0517V44.0517Z" fill="#6C53A2"/>
<path d="M32.4957 41.5902H31.986V40.2444C31.986 40.0865 31.8918 39.9477 31.7461 39.8908C30.8003 39.4838 29.2661 39.4845 28.3222 39.8908C28.1765 39.9476 28.0824 40.0864 28.0824 40.2443V41.5901H27.5727V40.2443C27.5727 39.8746 27.7942 39.5495 28.1371 39.4159C28.5424 39.2579 29.2006 39.0695 30.0341 39.0695C30.8675 39.0695 31.5258 39.2579 31.9311 39.4159C32.274 39.5495 32.4956 39.8747 32.4956 40.2443V41.5902H32.4957Z" fill="#2D2667"/>
<path d="M34.2679 41.0919C34.09 40.9079 32.6553 40.9072 32.4771 41.0891C32.4774 41.0889 32.5074 41.0582 32.5051 40.9857L31.9956 41.0017C32.0372 40.5355 32.6409 40.4517 33.3677 40.4416C34.57 40.4416 34.7495 40.7875 34.7495 40.9937H34.2398C34.2396 41.0626 34.2677 41.0917 34.2679 41.0919V41.0919Z" fill="#2D2667"/>
<path d="M40.6315 40.0947H38.9077C38.767 40.0947 38.6529 39.9806 38.6529 39.8399C38.6529 39.6992 38.767 39.5851 38.9077 39.5851H40.6315C40.966 39.5906 40.9669 40.089 40.6315 40.0947Z" fill="#2D2667"/>
<path d="M27.8276 40.0947H26.104C25.7696 40.0891 25.7687 39.5908 26.104 39.585H27.8276C28.1621 39.5906 28.163 40.089 27.8276 40.0947Z" fill="#2D2667"/>
<path d="M31.571 40.9799C31.571 40.4291 31.1245 39.9826 30.5736 39.9826C29.2522 40.0315 29.2525 41.9285 30.5736 41.9772C31.1245 41.9772 31.571 41.5307 31.571 40.9799Z" fill="#98CBEF"/>
<path d="M37.1591 40.9799C37.1591 40.4291 36.7126 39.9826 36.1617 39.9826C34.8403 40.0315 34.8407 41.9285 36.1617 41.9772C36.7126 41.9772 37.1591 41.5307 37.1591 40.9799Z" fill="#98CBEF"/>
<path d="M31.5029 41.3522C31.5029 40.8391 31.0869 40.423 30.5737 40.423C29.3437 40.4656 29.3441 42.2391 30.5737 42.2814C31.0869 42.2814 31.5029 41.8653 31.5029 41.3522V41.3522Z" fill="#122894"/>
<path d="M31.2236 41.3715C31.6537 40.919 31.0068 40.2721 30.5543 40.7022C30.1242 41.1547 30.7713 41.8016 31.2236 41.3715Z" fill="#E8F3FC"/>
<path d="M37.091 41.3522C37.091 40.8391 36.675 40.423 36.1618 40.423C34.9318 40.4656 34.9322 42.2391 36.1618 42.2814C36.675 42.2814 37.091 41.8653 37.091 41.3522V41.3522Z" fill="#122894"/>
<path d="M36.8117 41.3715C37.2418 40.919 36.5949 40.2721 36.1424 40.7022C35.7123 41.1547 36.3594 41.8016 36.8117 41.3715Z" fill="#E8F3FC"/>
<path d="M58.1431 22.7803C58.1431 22.5661 58.0821 22.3497 57.9545 22.1582C54.7358 17.3202 49.9638 13.5395 44.518 11.5127C43.9356 11.2961 43.2878 11.5924 43.0709 12.1748C42.8544 12.757 43.1505 13.405 43.7329 13.6219C48.7376 15.4843 53.123 18.9586 56.081 23.4047C56.6915 24.3295 58.1521 23.8761 58.1431 22.7803Z" fill="#6C53A2"/>
<path d="M63.8672 18.9787C63.8672 18.7644 63.8061 18.5481 63.6786 18.3565C59.6615 12.3188 53.706 7.60049 46.9097 5.07092C46.3273 4.85429 45.6795 5.15059 45.4626 5.73298C45.2463 6.31553 45.5423 6.96334 46.1246 7.18012C52.4799 9.54542 58.0486 13.9573 61.8051 19.6031C62.4145 20.5274 63.8765 20.0751 63.8672 18.9787Z" fill="#6C53A2"/>
<path d="M11.5701 26.8662C12.0268 26.8662 12.4562 26.5863 12.6248 26.1332C14.4866 21.1306 17.961 16.7461 22.4082 13.7873C22.9255 13.4432 23.0661 12.7447 22.7218 12.2274C22.3778 11.7101 21.6791 11.5697 21.1618 11.9138C16.3226 15.1334 12.5418 19.9045 10.5157 25.3483C10.2328 26.064 10.8045 26.8799 11.5701 26.8662V26.8662Z" fill="#6C53A2"/>
<path d="M5.12789 24.4745C5.58457 24.4745 6.01394 24.1946 6.18257 23.7415C8.54771 17.3867 12.9595 11.8183 18.6055 8.06194C19.1228 7.71778 19.2634 7.01926 18.9191 6.50198C18.5749 5.98454 17.8764 5.84442 17.3591 6.18843C11.3211 10.2053 6.60294 16.1606 4.07352 22.9566C3.79072 23.6722 4.36232 24.4882 5.12789 24.4745V24.4745Z" fill="#6C53A2"/>
</svg>
