<svg width="65" height="65" viewBox="0 0 65 65" fill="none" xmlns="http://www.w3.org/2000/svg">
<rect width="65" height="65" rx="6" fill="#F39E22"/>
<path d="M32.5 65C50.4493 65 65 50.4493 65 32.5C65 14.5507 50.4493 0 32.5 0C14.5507 0 0 14.5507 0 32.5C0 50.4493 14.5507 65 32.5 65Z" fill="#F39E22"/>
<path d="M8.32863 15.5614H36.9974V49.3408H8.32863V15.5614Z" fill="#22BCE0"/>
<path d="M34.521 24.3101C34.521 25.5244 34.2876 26.6547 33.8856 27.6022C31.4784 32.921 26.5798 29.8323 26.6445 24.31C26.8391 16.3889 34.2549 16.1738 34.521 24.3101V24.3101Z" fill="#50755C"/>
<path d="M34.521 24.3103C34.521 25.5246 34.2876 26.6549 33.8856 27.6023C31.2579 28.1405 29.3651 25.2155 29.3204 21.6342C29.3204 20.4207 29.5538 19.2903 29.9551 18.3436C32.5835 17.8032 34.4763 20.7287 34.521 24.3103V24.3103Z" fill="#528F66"/>
<path d="M31.2303 24.8438V35.1726C31.2056 36.024 29.9631 36.0314 29.9358 35.1726V24.8438C29.9619 23.9889 31.2046 23.9881 31.2303 24.8438V24.8438Z" fill="#BF5E39"/>
<path d="M31.2303 24.8439V35.0746C30.8559 35.107 30.5284 34.8056 30.5303 34.4296V24.1988C30.9043 24.1667 31.2327 24.4677 31.2303 24.8439Z" fill="#EA792E"/>
<path d="M31.0408 24.3861C31.1582 24.5035 31.2303 24.6647 31.2303 24.8439V30.5608C30.8559 30.5932 30.5284 30.2918 30.5303 29.9158V24.1988C30.7225 24.1818 30.9132 24.2576 31.0408 24.3861V24.3861Z" fill="#F39E22"/>
<path d="M24.6933 26.5918C24.6933 27.8061 24.4599 28.9364 24.0579 29.8839C21.6507 35.2027 16.7521 32.1141 16.8168 26.5917C17.0115 18.6705 24.4273 18.4554 24.6933 26.5918V26.5918Z" fill="#50755C"/>
<path d="M24.6933 26.592C24.6933 27.8063 24.4599 28.9365 24.0579 29.884C21.4302 30.4221 19.5375 27.4971 19.4928 23.9159C19.4928 22.7024 19.7261 21.572 20.1274 20.6253C22.756 20.0849 24.6487 23.0102 24.6933 26.592Z" fill="#528F66"/>
<path d="M21.4028 27.1255V37.4543C21.378 38.3058 20.1355 38.3131 20.1082 37.4543V27.1255C20.1344 26.2706 21.377 26.2698 21.4028 27.1255Z" fill="#BF5E39"/>
<path d="M21.4028 27.1256V37.3564C21.0284 37.3887 20.7008 37.0873 20.7028 36.7113V26.4805C21.0768 26.4484 21.4051 26.7493 21.4028 27.1256V27.1256Z" fill="#EA792E"/>
<path d="M21.2132 26.6678C21.3307 26.7852 21.4028 26.9465 21.4028 27.1256V32.8426C21.0284 32.8749 20.7008 32.5735 20.7028 32.1975V26.4806C20.895 26.4634 21.0856 26.5392 21.2132 26.6678V26.6678Z" fill="#F39E22"/>
<path d="M22.4569 38.7211C22.4666 42.577 19.323 45.7878 15.3934 45.7853C11.1542 45.8192 7.79808 41.9665 8.39248 37.775C9.8014 29.1453 22.1908 29.917 22.4569 38.7211Z" fill="#53B976"/>
<path d="M21.3437 41.6788C21.3437 41.9999 21.3221 42.3164 21.2805 42.6263C20.0149 44.5302 17.851 45.7852 15.3934 45.7852C11.1542 45.8191 7.79808 41.9665 8.39248 37.775C12.2334 32.023 21.2924 34.6569 21.3437 41.6788Z" fill="#50755C"/>
<path d="M34.0445 39.977C34.0445 41.1638 33.6885 42.2682 33.077 43.1881C29.6568 48.246 21.7312 45.3421 22.48 39.1988C23.6379 32.1033 33.826 32.7386 34.0445 39.977V39.977Z" fill="#53B976"/>
<path d="M33.129 42.4086C33.129 42.6731 33.1111 42.9333 33.077 43.1881C32.0366 44.7531 30.2569 45.7853 28.2363 45.7853C24.7512 45.8131 21.9911 42.6448 22.48 39.1988C25.6386 34.4693 33.087 36.6359 33.129 42.4086Z" fill="#50755C"/>
<path d="M36.9974 39.3826V49.3408H8.32863V39.2308H35.6902C36.1406 39.2308 36.5775 39.2831 36.9974 39.3826V39.3826Z" fill="#53B976"/>
<path d="M25.8173 42.7252H22.1429C21.8022 42.7197 21.8001 42.2109 22.1429 42.2049H25.8173C26.158 42.2104 26.1601 42.7192 25.8173 42.7252Z" fill="#9ACDAE"/>
<path d="M24.7416 40.706H21.0672C20.7265 40.7006 20.7245 40.1917 21.0672 40.1858H24.7416C25.0824 40.1913 25.0844 40.7002 24.7416 40.706Z" fill="#9ACDAE"/>
<path d="M18.739 41.9363H15.0646C14.7239 41.9308 14.7219 41.422 15.0646 41.416H18.739C19.0798 41.4216 19.0818 41.9305 18.739 41.9363Z" fill="#9ACDAE"/>
<path d="M22.8377 44.3049H19.1634C18.8227 44.2994 18.8207 43.7906 19.1634 43.7846H22.8377C23.1785 43.7902 23.1805 44.299 22.8377 44.3049Z" fill="#9ACDAE"/>
<path d="M11.8578 45.2484H8.1834C7.84265 45.2429 7.84062 44.7341 8.1834 44.7281H11.8578C12.1985 44.7336 12.2006 45.2424 11.8578 45.2484Z" fill="#9ACDAE"/>
<path d="M19.6334 49.8617H15.959C15.6183 49.8563 15.6162 49.3474 15.959 49.3415H19.6334C19.9742 49.347 19.9762 49.8559 19.6334 49.8617Z" fill="#9ACDAE"/>
<path d="M16.8168 43.4325H13.1426C12.8018 43.427 12.7998 42.9182 13.1426 42.9122H16.8168C17.1576 42.9177 17.1596 43.4266 16.8168 43.4325Z" fill="#9ACDAE"/>
<path d="M14.5764 40.4605H10.902C10.5612 40.455 10.5592 39.9462 10.902 39.9402H14.5764C14.9171 39.9457 14.9191 40.4545 14.5764 40.4605Z" fill="#9ACDAE"/>
<path d="M15.6899 47.3469H12.0156C11.6749 47.3415 11.6728 46.8326 12.0156 46.8267H15.69C16.0306 46.8321 16.0326 47.3409 15.6899 47.3469V47.3469Z" fill="#9ACDAE"/>
<path d="M23.98 47.6069H20.3056C19.9649 47.6014 19.9629 47.0926 20.3056 47.0866H23.98C24.3208 47.0922 24.3228 47.6011 23.98 47.6069Z" fill="#9ACDAE"/>
<path d="M28.6316 45.4136H24.9572C24.6165 45.4081 24.6144 44.8993 24.9572 44.8933H28.6316C28.9723 44.8989 28.9744 45.4077 28.6316 45.4136Z" fill="#9ACDAE"/>
<path d="M36.7377 44.4444H33.0633C32.7225 44.4389 32.7205 43.9301 33.0633 43.9241H36.7377C37.0784 43.9297 37.0805 44.4385 36.7377 44.4444Z" fill="#9ACDAE"/>
<path d="M32.8261 47.0868H29.1519C28.8111 47.0813 28.8091 46.5725 29.1519 46.5665H32.8261C33.1669 46.572 33.1689 47.0809 32.8261 47.0868Z" fill="#9ACDAE"/>
<path d="M33.4731 42.7252H29.7988C29.4581 42.7197 29.456 42.2109 29.7988 42.2049H33.4731C33.814 42.2104 33.816 42.7192 33.4731 42.7252Z" fill="#9ACDAE"/>
<path d="M18.9004 45.955H15.226C14.8852 45.9496 14.8832 45.4407 15.226 45.4348H18.9004C19.2411 45.4402 19.2432 45.9492 18.9004 45.955Z" fill="#9ACDAE"/>
<path d="M31.376 40.706H27.7017C27.3609 40.7006 27.3589 40.1917 27.7017 40.1858H31.376C31.7167 40.1913 31.7187 40.7002 31.376 40.706Z" fill="#9ACDAE"/>
<path d="M37.0716 14.3942H8.32864C7.63039 14.3942 7.06367 14.9609 7.06367 15.6592V49.3408C7.06367 50.0409 7.63039 50.6058 8.32864 50.6058H37.0716C37.7698 50.6058 38.3365 50.0407 38.3365 49.3408V15.6592C38.3367 14.9609 37.77 14.3942 37.0716 14.3942ZM35.8066 48.0757H9.5936V16.9242H35.8065V48.0757H35.8066Z" fill="#A26D5A"/>
<path d="M36.1456 15.5614H9.25463C8.60183 15.5614 8.07231 16.0911 8.07231 16.7455V48.2564C8.07231 48.9109 8.60196 49.4405 9.25463 49.4405H36.1456C36.7984 49.4405 37.3279 48.9109 37.3279 48.2564V16.7454C37.328 16.091 36.7984 15.5614 36.1456 15.5614V15.5614ZM35.8066 48.0758H9.59359V16.9243H35.8065V48.0758H35.8066Z" fill="#D48D77"/>
<path d="M31.11 16.9242H19.4764C19.1001 16.9242 18.7949 16.6192 18.7949 16.2428C18.7949 15.8663 19.1 15.5613 19.4764 15.5613H31.11C32.0072 15.5877 32.0135 16.8957 31.11 16.9242Z" fill="#EEA47D"/>
<path d="M24.9138 49.4386H13.2802C12.9039 49.4386 12.5987 49.1335 12.5987 48.7572C12.5987 48.3809 12.9038 48.0757 13.2802 48.0757H24.9138C25.8111 48.1022 25.8174 49.4102 24.9138 49.4386Z" fill="#EEA47D"/>
<path d="M35.8066 34.7907V21.8035C35.8066 21.3835 36.1472 21.0428 36.5673 21.0428C36.9874 21.0428 37.328 21.3835 37.328 21.8035V34.7906C37.295 35.7939 35.8423 35.8009 35.8066 34.7907V34.7907Z" fill="#EEA47D"/>
<path d="M8.07219 43.336V30.3489C8.07219 29.9288 8.4128 29.5882 8.83289 29.5882C9.25298 29.5882 9.5936 29.9288 9.5936 30.3489V43.336C9.56059 44.3391 8.10799 44.3461 8.07219 43.336V43.336Z" fill="#EEA47D"/>
<path d="M41.2895 26.7538H45.4539V42.6292H41.2895V26.7538Z" fill="#528F66"/>
<path d="M42.5006 27.9649V41.418C42.5006 42.0865 41.9579 42.6292 41.2895 42.6292V26.7538C41.958 26.7538 42.5006 27.2955 42.5006 27.9649V27.9649Z" fill="#50755C"/>
<path d="M45.454 26.7538V42.6291C44.7846 42.6291 44.2419 42.0864 44.2419 41.418V27.9649C44.2419 27.2955 44.7846 26.7538 45.454 26.7538V26.7538Z" fill="#53B976"/>
<path d="M46.5554 43.5936C46.5554 44.1257 46.124 44.5581 45.5919 44.5581H41.1517C40.6207 44.5616 40.1836 44.1155 40.1883 43.5936C40.1883 43.0605 40.6197 42.6292 41.1517 42.6292H45.5919C46.1242 42.6295 46.5557 43.0614 46.5554 43.5936Z" fill="#EBD9EA"/>
<path d="M46.5554 43.5936H43.752C43.2199 43.5937 42.7876 43.1626 42.7875 42.6292H45.5919C46.1242 42.6295 46.5557 43.0614 46.5554 43.5936Z" fill="white"/>
<path d="M45.379 44.558H41.1516C40.7545 44.5573 40.4116 44.319 40.2626 43.9661H44.49C44.8876 43.9671 45.2292 44.2045 45.379 44.558Z" fill="#C1B7D3"/>
<path d="M45.4535 44.5581V45.9849C45.4549 47.1391 44.5122 48.0691 43.3718 48.0667C42.2291 48.069 41.2866 47.1355 41.2891 45.9849V44.5581H45.4535Z" fill="#EE6781"/>
<path d="M45.4535 44.5581V45.9849C45.4535 46.6175 45.1721 47.1835 44.727 47.5646C44.2782 47.1779 44.0028 46.6175 44.0014 45.9849V44.5581H45.4535Z" fill="#F0A6B3"/>
<path d="M42.5612 44.5581V45.9849C42.5612 46.5731 42.3183 47.1042 41.9257 47.4815C41.5305 47.1043 41.2901 46.5726 41.2891 45.9849V44.5581H42.5612Z" fill="#D65171"/>
<path d="M45.4535 26.7538H41.289L43.0303 22.4094H43.7133C43.9583 23.021 45.239 26.2187 45.4535 26.7538V26.7538Z" fill="#F5B890"/>
<path d="M45.1237 25.9307H43.0158C42.6579 25.9307 42.414 25.5688 42.5466 25.2371L43.6794 22.4095H43.7133L45.1237 25.9307Z" fill="#FBD9A3"/>
<path d="M43.8138 20.5385V22.5922C43.8223 22.979 43.3229 23.1801 43.0592 22.9046C42.9789 22.8244 42.9296 22.7141 42.9296 22.5922V20.5385C42.9457 19.9544 43.7997 19.9565 43.8138 20.5385V20.5385Z" fill="#50755C"/>
<path d="M43.8138 20.5385V21.7951C43.5485 21.8408 43.2985 21.6277 43.3012 21.3588V20.1022C43.5661 20.0569 43.8163 20.2685 43.8138 20.5385Z" fill="#528F66"/>
<path d="M48.3667 26.7538H52.5312V42.6292H48.3667V26.7538Z" fill="#22BCE0"/>
<path d="M49.5779 27.9649V41.418C49.5779 42.0865 49.0352 42.6292 48.3667 42.6292V26.7538C49.0353 26.7538 49.5779 27.2955 49.5779 27.9649V27.9649Z" fill="#22A8B9"/>
<path d="M52.5313 26.7538V42.6291C51.8619 42.6291 51.3192 42.0864 51.3192 41.418V27.9649C51.3192 27.2955 51.8619 26.7538 52.5313 26.7538V26.7538Z" fill="#4FCAE8"/>
<path d="M53.6326 43.5936C53.6326 44.1257 53.2012 44.5581 52.6692 44.5581H48.229C47.698 44.5616 47.2609 44.1155 47.2656 43.5936C47.2656 43.0605 47.6969 42.6292 48.229 42.6292H52.6692C53.2015 42.6295 53.633 43.0614 53.6326 43.5936Z" fill="#EBD9EA"/>
<path d="M53.6326 43.5936H50.8293C50.2972 43.5937 49.8649 43.1626 49.8648 42.6292H52.6692C53.2015 42.6295 53.633 43.0614 53.6326 43.5936Z" fill="white"/>
<path d="M52.4563 44.558H48.2289C47.8318 44.5573 47.4889 44.319 47.3398 43.9661H51.5672C51.9649 43.9671 52.3065 44.2045 52.4563 44.558Z" fill="#C1B7D3"/>
<path d="M52.5308 44.5581V45.9849C52.5322 47.1391 51.5894 48.0691 50.449 48.0667C49.3063 48.069 48.3638 47.1355 48.3664 45.9849V44.5581H52.5308Z" fill="#EE6781"/>
<path d="M52.5308 44.5581V45.9849C52.5308 46.6175 52.2493 47.1835 51.8042 47.5646C51.3555 47.1779 51.0801 46.6175 51.0787 45.9849V44.5581H52.5308Z" fill="#F0A6B3"/>
<path d="M49.6384 44.5581V45.9849C49.6384 46.5731 49.3956 47.1042 49.0029 47.4815C48.6077 47.1043 48.3674 46.5726 48.3664 45.9849V44.5581H49.6384Z" fill="#D65171"/>
<path d="M52.5308 26.7538H48.3664L50.1077 22.4094H50.7907C51.0356 23.021 52.3163 26.2187 52.5308 26.7538Z" fill="#F5B890"/>
<path d="M52.201 25.9307H50.0931C49.7352 25.9307 49.4913 25.5688 49.6238 25.2371L50.7566 22.4095H50.7905L52.201 25.9307Z" fill="#FBD9A3"/>
<path d="M50.8911 20.5385V22.5922C50.8996 22.979 50.4002 23.1801 50.1365 22.9046C50.0562 22.8244 50.0069 22.7141 50.0069 22.5922V20.5385C50.023 19.9544 50.877 19.9565 50.8911 20.5385V20.5385Z" fill="#22A8B9"/>
<path d="M50.8911 20.5385V21.7951C50.6257 21.8408 50.3758 21.6277 50.3784 21.3588V20.1022C50.6434 20.0569 50.8936 20.2685 50.8911 20.5385Z" fill="#22BCE0"/>
<path d="M55.444 26.7538H59.6084V42.6292H55.444V26.7538Z" fill="#DD5E26"/>
<path d="M56.6551 27.9649V41.418C56.6551 42.0865 56.1124 42.6292 55.444 42.6292V26.7538C56.1125 26.7538 56.6551 27.2955 56.6551 27.9649V27.9649Z" fill="#BF5E39"/>
<path d="M59.6085 26.7538V42.6291C58.9391 42.6291 58.3964 42.0864 58.3964 41.418V27.9649C58.3964 27.2955 58.9391 26.7538 59.6085 26.7538V26.7538Z" fill="#EA792E"/>
<path d="M60.7099 43.5936C60.7099 44.1257 60.2785 44.5581 59.7464 44.5581H55.3062C54.7752 44.5616 54.3381 44.1155 54.3428 43.5936C54.3428 43.0605 54.7742 42.6292 55.3062 42.6292H59.7464C60.2787 42.6295 60.7102 43.0614 60.7099 43.5936Z" fill="#EBD9EA"/>
<path d="M60.7099 43.5936H57.9065C57.3744 43.5937 56.9421 43.1626 56.942 42.6292H59.7464C60.2787 42.6295 60.7102 43.0614 60.7099 43.5936Z" fill="white"/>
<path d="M59.5335 44.558H55.3061C54.909 44.5573 54.5661 44.319 54.4171 43.9661H58.6445C59.0421 43.9671 59.3837 44.2045 59.5335 44.558Z" fill="#C1B7D3"/>
<path d="M59.608 44.5581V45.9849C59.6094 47.1391 58.6667 48.0691 57.5263 48.0667C56.3836 48.069 55.4411 47.1355 55.4436 45.9849V44.5581H59.608Z" fill="#EE6781"/>
<path d="M59.608 44.5581V45.9849C59.608 46.6175 59.3266 47.1835 58.8815 47.5646C58.4327 47.1779 58.1573 46.6175 58.1559 45.9849V44.5581H59.608Z" fill="#F0A6B3"/>
<path d="M56.7157 44.5581V45.9849C56.7157 46.5731 56.4728 47.1042 56.0802 47.4815C55.685 47.1043 55.4446 46.5726 55.4436 45.9849V44.5581H56.7157Z" fill="#D65171"/>
<path d="M59.608 26.7538H55.4436L57.1849 22.4094H57.8679C58.1128 23.021 59.3935 26.2187 59.608 26.7538Z" fill="#F5B890"/>
<path d="M59.2782 25.9307H57.1703C56.8124 25.9307 56.5685 25.5688 56.7011 25.2371L57.8339 22.4095H57.8678L59.2782 25.9307Z" fill="#FBD9A3"/>
<path d="M57.9683 20.5385V22.5922C57.9768 22.979 57.4774 23.1801 57.2137 22.9046C57.1335 22.8244 57.0841 22.7141 57.0841 22.5922V20.5385C57.1002 19.9544 57.9542 19.9565 57.9683 20.5385V20.5385Z" fill="#BF5E39"/>
<path d="M57.9683 20.5385V21.7951C57.703 21.8408 57.453 21.6277 57.4557 21.3588V20.1022C57.7206 20.0569 57.9709 20.2685 57.9683 20.5385Z" fill="#DD5E26"/>
</svg>
