<svg width="65" height="65" viewBox="0 0 65 65" fill="none" xmlns="http://www.w3.org/2000/svg">
<rect width="65" height="65" rx="6" fill="#434D70"/>
<path d="M65 32.5C65 47.1974 55.2437 59.6159 41.8539 63.634C41.435 63.7597 41.0122 63.8765 40.5856 63.9856C38.0009 64.6483 35.2917 65 32.5 65C30.7925 65 29.1154 64.868 27.479 64.6141C26.6221 64.482 25.7753 64.3145 24.9412 64.1151C10.6374 60.709 0 47.8461 0 32.5C0 23.8989 3.34141 16.0786 8.79658 10.2654C9.59639 9.41357 10.4406 8.60488 11.328 7.84316C13.523 5.95537 15.9745 4.35576 18.6215 3.10527C22.83 1.11338 27.5349 0 32.5 0C50.4486 0 65 14.5514 65 32.5Z" fill="#434D70"/>
<path d="M32 56C44.7025 56 55 45.7025 55 33C55 20.2975 44.7025 10 32 10C19.2975 10 9 20.2975 9 33C9 45.7025 19.2975 56 32 56Z" fill="#434D70"/>
<path d="M26.8731 16.0548C23.8666 28.4047 27.5837 39.9144 35.1754 41.7626C42.7671 43.6107 51.3586 35.0973 54.3651 22.7476C57.3715 10.3978 49.1321 17.4647 41.5405 15.6166C33.9489 13.7685 29.8795 3.70502 26.8731 16.0548Z" fill="#F9CB3F"/>
<path d="M35.1749 41.7623C27.583 39.9144 23.8664 28.4047 26.873 16.0549C28.6616 8.70698 30.8266 9.2933 33.8856 11.3643C33.1363 12.0848 32.3923 13.8238 31.5707 17.1988C28.5641 29.5484 30.1776 40.546 35.1749 41.7623Z" fill="#E5B832"/>
<path d="M33.4008 22.5201C34.9851 22.9057 36.5754 22.578 37.8357 21.7439C37.0414 23.5826 35.0164 24.6369 33.0047 24.1471C30.993 23.6574 29.6792 21.7904 29.8189 19.7922C30.5549 21.1124 31.8165 22.1344 33.4008 22.5201Z" fill="#434D70"/>
<path d="M45.5959 25.4889C47.1802 25.8745 48.7704 25.5469 50.0307 24.7128C49.2364 26.5514 47.2114 27.6057 45.1998 27.116C43.1881 26.6262 41.8743 24.7592 42.0139 22.7611C42.7499 24.0812 44.0117 25.1032 45.5959 25.4889Z" fill="#434D70"/>
<path d="M37.4385 33.35C34.7703 32.7005 32.0918 33.2524 29.9693 34.6573C31.307 31.5606 34.7177 29.785 38.1056 30.6098C41.4936 31.4346 43.7066 34.5792 43.4712 37.9443C42.2319 35.721 40.1068 33.9997 37.4385 33.35Z" fill="#434D70"/>
<path d="M30.8848 55.9728C28.1182 55.8413 25.4793 55.2208 23.0535 54.1948C18.1278 52.1135 14.0789 48.365 11.6126 43.6561C11.6126 43.6561 11.6118 43.6561 11.6118 43.6552C10.8138 41.8152 10.1435 39.8334 9.63465 37.7409C9.32199 36.4557 9.13144 35.3818 9.04788 34.4852C9.04698 34.4749 9.04599 34.4636 9.0451 34.4533C9.00844 34.0412 8.99442 33.6666 9.00287 33.3278C9.00197 33.324 9.00197 33.3202 9.00287 33.3165C9.14842 27.3553 16.0352 32.1741 22.4593 30.6101C30.0512 28.7616 34.1208 18.6989 37.1267 31.0485C39.8472 42.2216 37.0628 52.7087 30.8848 55.9728Z" fill="#F43380"/>
<path d="M23.0535 54.1948C18.1277 52.1135 14.0778 48.364 11.6117 43.6551C10.8137 41.8151 10.1434 39.8333 9.63457 37.7408C9.32192 36.4556 9.13136 35.3817 9.0478 34.4851C9.0478 34.4786 9.04691 34.472 9.04592 34.4655C9.00836 34.0487 8.99426 33.6703 9.0027 33.3277C9.07592 30.1237 11.0896 30.0222 13.9313 30.378C13.6496 31.3816 13.812 33.2526 14.609 36.5298C16.4999 44.2963 19.7199 50.7607 23.0535 54.1948Z" fill="#E02D77"/>
<path d="M18.3734 40.3573C19.9577 39.9717 21.5479 40.2994 22.8083 41.1335C22.014 39.2948 19.989 38.2405 17.9773 38.7303C15.9656 39.22 14.6518 41.087 14.7914 43.0852C15.5274 41.765 16.7891 40.7429 18.3734 40.3573Z" fill="#434D70"/>
<path d="M30.5684 37.3885C32.1527 37.0029 33.743 37.3306 35.0033 38.1647C34.209 36.326 32.184 35.2717 30.1723 35.7614C28.1606 36.2512 26.8468 38.1182 26.9865 40.1164C27.7225 38.7962 28.9842 37.7741 30.5684 37.3885Z" fill="#434D70"/>
<path d="M26.6123 48.5539C23.9442 49.2035 21.2657 48.6516 19.1431 47.2466C20.4809 50.3434 23.8915 52.1189 27.2794 51.2942C30.6674 50.4694 32.8804 47.3248 32.645 43.9597C31.4058 46.183 29.2806 47.9044 26.6123 48.5539Z" fill="#434D70"/>
</svg>
