<svg width="65" height="65" viewBox="0 0 65 65" fill="none" xmlns="http://www.w3.org/2000/svg">
<rect width="65" height="65" rx="6" fill="#22BCE0"/>
<path d="M32.5 57C46.031 57 57 46.031 57 32.5C57 18.969 46.031 8 32.5 8C18.969 8 8 18.969 8 32.5C8 46.031 18.969 57 32.5 57Z" fill="#6052A3"/>
<path d="M45.2553 32.5C44.5847 49.418 20.4142 49.4164 19.7447 32.4999C19.6244 23.9028 28.4859 17.5703 36.5694 20.408C41.6483 22.0733 45.3014 27.0541 45.2553 32.5Z" fill="#EA792E"/>
<path d="M45.1003 30.5812C45.1003 36.286 40.4759 40.9114 34.7701 40.9114C21.068 40.3669 21.0706 20.7932 34.7702 20.251C35.3835 20.251 35.9855 20.3046 36.5693 20.4079C41.0183 21.9069 44.4183 25.8184 45.1003 30.5812V30.5812Z" fill="#F39E22"/>
<path d="M41.5124 34.4141C40.4552 34.4141 39.5983 33.5572 39.5983 32.5C39.5983 28.5861 36.4141 25.4017 32.5 25.4017C31.4429 25.4017 30.5859 24.5448 30.5859 23.4877C30.5859 22.4305 31.4429 21.5736 32.5 21.5736C38.5248 21.5736 43.4264 26.4752 43.4264 32.5C43.4264 33.5572 42.5695 34.4141 41.5124 34.4141Z" fill="#F9C744"/>
<path d="M32.5 43.4264C26.4752 43.4264 21.5736 38.5248 21.5736 32.5C21.5736 31.4429 22.4305 30.5859 23.4876 30.5859C24.5448 30.5859 25.4017 31.4429 25.4017 32.5C25.4017 36.414 28.5859 39.5983 32.5 39.5983C35.0356 39.697 35.0413 43.3251 32.5 43.4264Z" fill="#DD5E26"/>
<path d="M34.5558 32.5C34.5558 31.3646 33.6354 30.4442 32.5 30.4442C29.773 30.5525 29.7738 34.448 32.5 34.5558C33.6354 34.5558 34.5558 33.6354 34.5558 32.5Z" fill="#DD5E26"/>
<path d="M33.8933 32.1687C33.8933 31.6102 33.4406 31.1574 32.882 31.1574C31.5406 31.2107 31.5409 33.127 32.882 33.1801C33.4406 33.18 33.8933 32.7272 33.8933 32.1687V32.1687Z" fill="#F9C744"/>
<path d="M40.67 25.4832C40.67 23.753 39.2673 22.3504 37.5371 22.3504C33.3814 22.5154 33.3827 28.4518 37.5371 28.6161C39.2673 28.6162 40.67 27.2136 40.67 25.4832V25.4832Z" fill="#FBD9A3"/>
<path d="M50.9889 32.4897C50.9702 36.2875 50.9067 39.9082 50.1649 43.0481C49.626 45.2327 48.6909 47.0646 46.8087 48.1767C44.2868 49.6845 40.2427 49.4264 37.0919 49.4883C36.7215 49.4883 36.4208 49.1885 36.4208 48.8172C36.4208 48.4468 36.7214 48.1461 37.0919 48.1461C37.5008 48.1461 39.8085 48.1426 40.1879 48.1345C43.1351 48.0271 45.8832 47.9128 47.5594 45.7314C49.1679 43.471 49.3766 40.1048 49.5645 36.769C49.6208 35.4994 49.6468 34.0795 49.6468 32.4896C49.6468 32.1191 49.9466 31.8185 50.3179 31.8185C50.6883 31.8187 50.9889 32.1193 50.9889 32.4897V32.4897Z" fill="#C1B7D3"/>
<path d="M50.9889 31.2844V33.514C50.9889 33.7788 50.9352 34.0311 50.8368 34.261C50.5469 34.9455 49.8678 35.4259 49.0769 35.4259C48.0202 35.4259 47.164 34.5697 47.164 33.514V31.2844C47.1595 30.2295 48.0333 29.3661 49.0769 29.3724C50.1326 29.3724 50.9889 30.2286 50.9889 31.2844Z" fill="#9F90AE"/>
<path d="M50.9889 31.2836V33.5132C50.9889 33.778 50.9352 34.0304 50.8368 34.2603C49.6006 35.0396 47.9099 34.0983 47.9317 32.6256V30.396C47.9317 30.1312 47.9854 29.8788 48.0829 29.6489C49.3197 28.8718 51.0104 29.811 50.9889 31.2836V31.2836Z" fill="#EBD9EA"/>
<path d="M50.4868 31.2254C50.4868 30.6584 50.0272 30.1989 49.4603 30.1989C48.0986 30.2529 48.099 32.198 49.4603 32.2519C50.0271 32.2519 50.4868 31.7923 50.4868 31.2254Z" fill="white"/>
<path d="M50.8286 38.2355C50.5663 41.4489 50.2868 44.2134 48.6358 46.5339C47.1195 48.5045 45.2312 49.0591 42.5804 49.3486C41.7044 49.0918 40.8956 48.6767 40.1879 48.1344C42.7256 48.0377 44.4463 47.974 46.2656 46.924C49.1583 45.1047 49.3368 40.4508 49.5644 36.769C50.0476 37.1994 50.4735 37.6924 50.8286 38.2355V38.2355Z" fill="#EBD9EA"/>
<path d="M50.1649 43.0481C49.6252 45.232 48.6916 47.0652 46.8089 48.1766C46.0797 48.1676 45.4014 47.9439 44.836 47.5655C47.5951 46.6807 48.4747 44.7743 49.0814 41.6747C49.5457 42.0353 49.9206 42.506 50.1649 43.0481V43.0481Z" fill="white"/>
<path d="M34.5788 45.2553H30.4211C28.2846 45.2553 26.5526 46.9874 26.5526 49.1239C26.5526 49.919 27.1972 50.5635 27.9923 50.5635H37.0077C37.8028 50.5635 38.4474 49.919 38.4474 49.1239C38.4474 46.9874 36.7153 45.2553 34.5788 45.2553Z" fill="#9F90AE"/>
<path d="M34.9718 46.0738H31.3535C29.9367 46.0738 28.7881 47.2223 28.7881 48.6391C28.7881 49.1663 29.2156 49.5937 29.7428 49.5937H36.5826C37.1098 49.5937 37.5372 49.1663 37.5372 48.6391C37.5371 47.2223 36.3886 46.0738 34.9718 46.0738V46.0738Z" fill="#C1B7D3"/>
<path d="M34.9932 48.3748H32.3932C31.7577 48.3748 31.2426 47.8597 31.2426 47.2243C31.2426 46.5888 31.7578 46.0738 32.3932 46.0738H34.9932C36.5191 46.1352 36.52 48.3131 34.9932 48.3748Z" fill="#EBD9EA"/>
<path d="M23.1171 47.3447C22.9804 47.3447 22.8424 47.3058 22.7202 47.2244C19.634 45.1711 17.2223 42.127 15.9293 38.653C15.7911 38.2815 15.9801 37.8683 16.3516 37.7299C16.7231 37.5918 17.1364 37.7807 17.2748 38.1522C18.4629 41.3448 20.6791 44.1423 23.5154 46.0293C24.1053 46.4187 23.8161 47.3505 23.1171 47.3447Z" fill="#9175A7"/>
<path d="M20.692 50.9962C20.5553 50.9962 20.4173 50.9572 20.2951 50.8759C16.4435 48.3133 13.4336 44.5142 11.82 40.1787C11.6818 39.8072 11.8708 39.394 12.2423 39.2556C12.6139 39.1176 13.0272 39.3064 13.1655 39.6779C14.6743 43.732 17.4888 47.2844 21.0903 49.6807C21.6799 50.0695 21.3914 51.0021 20.692 50.9962Z" fill="#9175A7"/>
<path d="M48.3978 27.3159C48.1065 27.3159 47.8326 27.1373 47.725 26.8482C46.5374 23.657 44.321 20.8601 41.484 18.9726C41.1541 18.7531 41.0644 18.3075 41.284 17.9775C41.5035 17.6475 41.9492 17.558 42.2791 17.7775C45.3661 19.8313 47.778 22.8748 49.0704 26.3475C49.2509 26.8041 48.8862 27.3246 48.3978 27.3159V27.3159Z" fill="#9175A7"/>
<path d="M52.5074 25.7901C52.2161 25.7901 51.9422 25.6116 51.8346 25.3225C50.3259 21.2687 47.5115 17.7165 43.9098 15.3203C43.5798 15.1008 43.4902 14.6552 43.7098 14.3252C43.9293 13.9951 44.3749 13.9057 44.7049 14.1252C48.5567 16.6876 51.5664 20.4866 53.18 24.8218C53.3604 25.2783 52.9958 25.7989 52.5074 25.7901V25.7901Z" fill="#9175A7"/>
</svg>
