<svg width="65" height="65" viewBox="0 0 65 65" fill="none" xmlns="http://www.w3.org/2000/svg">
<rect width="65" height="65" rx="6" fill="#F39E22"/>
<path d="M32.5 65C50.4493 65 65 50.4493 65 32.5C65 14.5507 50.4493 0 32.5 0C14.5507 0 0 14.5507 0 32.5C0 50.4493 14.5507 65 32.5 65Z" fill="#F39E22"/>
<path d="M32.5 54.3546C44.5699 54.3546 54.3546 44.5699 54.3546 32.5C54.3546 20.43 44.5699 10.6454 32.5 10.6454C20.43 10.6454 10.6454 20.43 10.6454 32.5C10.6454 44.5699 20.43 54.3546 32.5 54.3546Z" fill="#F9C744"/>
<path d="M17.3565 16.4826L20.5873 21.6179L21.445 22.9814C21.7603 23.4815 21.0926 24.0137 20.6744 23.5963L17.9463 20.871C17.6918 20.6162 17.2589 20.7095 17.1317 21.0467L16.4652 22.8123C16.3378 23.1495 15.9038 23.2424 15.6485 22.9859L10.5832 17.8857C10.4459 17.7483 10.402 17.5425 10.4704 17.3612L11.2838 15.2064C11.4112 14.8692 11.8441 14.7758 12.0985 15.0307L15.1535 18.0824C15.4084 18.3361 15.8413 18.2426 15.9682 17.9067L16.4718 16.5726C16.6171 16.1883 17.1379 16.1364 17.3565 16.4826V16.4826Z" fill="#EBD9EA"/>
<path d="M17.3565 16.4826L20.5873 21.618C20.4097 21.7885 20.1147 21.8386 19.8901 21.6143L17.162 18.889C16.9075 18.6342 16.4746 18.7275 16.3474 19.0647L15.6809 20.8304C15.5535 21.1675 15.1195 21.2605 14.8642 21.0039L10.6841 16.7957L11.284 15.2065C11.4113 14.8693 11.8442 14.7758 12.0986 15.0308L15.1536 18.0825C15.4085 18.3361 15.8415 18.2427 15.9683 17.9068L16.4719 16.5726C16.6171 16.1883 17.1379 16.1364 17.3565 16.4826V16.4826Z" fill="white"/>
<path d="M26.1888 13.8921L24.842 19.8079L24.4844 21.3785C24.3537 21.955 23.5054 21.8593 23.5047 21.2685L23.5028 17.4123C23.5031 17.0521 23.131 16.812 22.8025 16.9604L21.0828 17.7376C20.7544 17.8861 20.3818 17.6448 20.3827 17.2829L20.4073 10.0948C20.4074 9.90058 20.5218 9.72411 20.6984 9.64426L22.7972 8.69579C23.1256 8.54738 23.4977 8.78745 23.4975 9.14762L23.4998 13.4657C23.5007 13.8253 23.8729 14.0654 24.2 13.9175L25.4995 13.3302C25.8741 13.1612 26.279 13.4927 26.1888 13.8921Z" fill="#EBD9EA"/>
<path d="M26.1888 13.8921L24.842 19.8079C24.596 19.8028 24.3519 19.6296 24.3516 19.3122L24.3497 15.456C24.35 15.0959 23.9779 14.8558 23.6494 15.0042L21.9297 15.7814C21.6013 15.9298 21.2287 15.6886 21.2296 15.3267L21.2495 9.3953L22.7975 8.69579C23.1259 8.54738 23.498 8.78745 23.4977 9.14762L23.5 13.4657C23.5009 13.8253 23.8731 14.0654 24.2003 13.9175L25.4998 13.3302C25.874 13.1612 26.279 13.4927 26.1888 13.8921V13.8921Z" fill="white"/>
<path d="M40.0504 16.8635C37.875 16.8635 36.1115 18.627 36.1115 20.8024C36.1115 22.9779 37.875 24.7414 40.0504 24.7414C42.2259 24.7414 43.9894 22.9779 43.9894 20.8024C43.9894 18.6271 42.2259 16.8635 40.0504 16.8635ZM40.0504 23.1209C38.77 23.1209 37.732 22.0829 37.732 20.8024C37.732 19.522 38.77 18.484 40.0504 18.484C41.3309 18.484 42.3688 19.522 42.3688 20.8024C42.3687 22.0829 41.3307 23.1209 40.0504 23.1209Z" fill="#3E4E60"/>
<path d="M26.9925 20.8025L13.1951 34.5999C12.182 35.613 12.182 37.2555 13.1951 38.2686L15.5137 40.5872C16.5267 41.6002 18.1693 41.6002 19.1824 40.5872L26.475 33.2945C26.6391 33.4879 26.8099 33.6776 26.9925 33.8603C30.5984 37.4661 36.4445 37.4661 40.0504 33.8603C43.6562 30.2544 43.6562 24.4083 40.0504 20.8025C36.4445 17.1967 30.5984 17.1967 26.9925 20.8025V20.8025Z" fill="#3F5D77"/>
<path d="M33.6266 34.1019C37.4239 34.1019 40.5022 31.0236 40.5022 27.2262C40.5022 23.4289 37.4239 20.3506 33.6266 20.3506C29.8293 20.3506 26.7509 23.4289 26.7509 27.2262C26.7509 31.0236 29.8293 34.1019 33.6266 34.1019Z" fill="#3E4E60"/>
<path d="M28.0442 28.0574C28.8449 27.2567 28.8449 25.9585 28.0442 25.1577L25.3407 22.4542L22.441 25.3539L25.1445 28.0574C25.9452 28.8581 27.2435 28.8581 28.0442 28.0574V28.0574Z" fill="#334353"/>
<path d="M15.1983 36.2654L13.1951 38.2686L15.525 40.5985L17.5282 38.5953C18.1716 37.9519 18.1716 36.9087 17.5282 36.2654C16.8848 35.622 15.8417 35.622 15.1983 36.2654V36.2654Z" fill="#334353"/>
<path d="M22.0708 29.3931L16.404 35.0599C15.8974 35.5664 15.0762 35.5664 14.5696 35.0599C14.0631 34.5534 14.0631 33.7321 14.5696 33.2255L20.2364 27.5587C20.743 27.0522 21.5642 27.0522 22.0708 27.5587C22.5773 28.0652 22.5773 28.8865 22.0708 29.3931V29.3931Z" fill="#3F6C8E"/>
<path d="M39.7385 56.3486C35.6749 56.3486 32.4585 54.2698 30.7331 50.439L30.7213 50.4101C29.7404 47.787 30.275 45.4115 32.355 43.148C34.1329 41.2135 36.8344 39.5752 39.4471 37.9908C43.6076 35.4678 47.5372 33.0847 47.7701 29.772C47.943 27.313 46.0482 24.4996 41.9777 21.1709C41.7742 21.0045 41.7442 20.7046 41.9107 20.501C42.077 20.2975 42.3768 20.2674 42.5805 20.4338C46.9078 23.9725 48.9159 27.0489 48.7199 29.8388C48.4526 33.6432 44.1254 36.2672 39.9409 38.8048C34.6882 41.9902 29.7267 44.9993 31.6077 50.0622C33.4487 54.1348 37.1682 56.0116 41.8144 55.2124C48.3879 54.0814 55.9232 47.5296 56.6347 38.9168C57.3898 29.7738 54.5897 24.8745 52.1077 22.3746C49.4199 19.6674 46.2897 18.871 44.4233 19.0113C44.1647 19.0322 43.9326 18.8346 43.9128 18.5725C43.893 18.3103 44.0897 18.0818 44.3518 18.062C46.418 17.9059 49.8669 18.7664 52.7833 21.7038C55.4064 24.3459 58.3686 29.4904 57.5835 38.9951C57.2413 43.1397 55.3262 47.2112 52.1913 50.4594C49.2986 53.4569 45.5752 55.5313 41.9759 56.1506C41.2059 56.2834 40.4588 56.3486 39.7385 56.3486V56.3486Z" fill="white"/>
</svg>
