<svg width="32" height="32" viewBox="0 0 32 32" fill="none" xmlns="http://www.w3.org/2000/svg">
<path d="M30.9999 15.1667C31.0056 17.3665 30.4961 19.5365 29.513 21.5C28.3473 23.8529 26.5552 25.832 24.3375 27.2155C22.1198 28.599 19.564 29.3323 16.9565 29.3333C14.7758 29.3391 12.6247 28.8251 10.6782 27.8333L1.26086 31L4.39999 21.5C3.41683 19.5365 2.90735 17.3665 2.91304 15.1667C2.91404 12.5363 3.641 9.95812 5.01248 7.72095C6.38396 5.48379 8.3458 3.67599 10.6782 2.50005C12.6247 1.50827 14.7758 0.994312 16.9565 1.00005H17.7826C21.2263 1.1917 24.4789 2.65798 26.9177 5.11814C29.3564 7.5783 30.81 10.8595 30.9999 14.3334V15.1667Z" stroke="#F9560F" stroke-width="2" stroke-linecap="round" stroke-linejoin="round"/>
</svg>
