<svg width="17" height="14" viewBox="0 0 17 14" fill="none" xmlns="http://www.w3.org/2000/svg">
<path d="M16.5087 3.72311C16.7056 3.656 16.837 3.4772 16.8367 3.2768C16.8365 3.0764 16.7046 2.89791 16.5076 2.83124L8.58249 0.149403C8.47631 0.113448 8.36046 0.113448 8.25428 0.149403L0.329172 2.83124C0.132129 2.89788 0.000263468 3.0764 3.94184e-07 3.2768C-0.00026268 3.4772 0.131176 3.656 0.328054 3.72311L3.46748 4.79356V7.87961C3.46748 8.38894 4.02148 8.81968 5.11409 9.1598C6.06645 9.45627 7.23996 9.61955 8.4184 9.61955C9.59684 9.61955 10.7703 9.45627 11.7227 9.1598C12.8153 8.81968 13.3693 8.38897 13.3693 7.87961V4.79356L14.6655 4.3516V8.62785C14.0891 8.82334 13.6749 9.35096 13.6749 9.96992C13.6749 10.5889 14.0891 11.1165 14.6655 11.312V13.1187C14.6655 13.38 14.8864 13.5918 15.1588 13.5918C15.4312 13.5918 15.652 13.38 15.652 13.1187V11.312C16.2285 11.1165 16.6427 10.5889 16.6427 9.96992C16.6427 9.35099 16.2285 8.82334 15.652 8.62785V4.0152L16.5087 3.72311ZM15.1587 10.4469C14.8845 10.4469 14.6614 10.2329 14.6614 9.96989C14.6614 9.70685 14.8845 9.49286 15.1587 9.49286C15.433 9.49286 15.6561 9.70685 15.6561 9.96989C15.6561 10.2329 15.433 10.4469 15.1587 10.4469ZM8.41837 1.0972L14.8659 3.27907L8.41837 5.47747L1.97079 3.27904L8.41837 1.0972ZM12.3828 7.8083C12.2882 7.8997 11.9498 8.11862 11.1859 8.32763C10.371 8.55058 9.38812 8.67336 8.41837 8.67336C7.44861 8.67336 6.46577 8.55058 5.65083 8.32763C4.88696 8.11862 4.54852 7.89973 4.45397 7.8083V5.12993L8.25313 6.42532C8.30656 6.44355 8.36246 6.45267 8.41833 6.45267C8.47424 6.45267 8.53011 6.44355 8.58355 6.42532L12.3827 5.12993V7.8083H12.3828Z" fill="#7F8699"/>
</svg>
