<svg width="12" height="14" viewBox="0 0 12 14" fill="none" xmlns="http://www.w3.org/2000/svg">
<path d="M10.693 5.84652C10.693 9.61603 5.84652 12.847 5.84652 12.847C5.84652 12.847 1 9.61603 1 5.84652C1 4.56114 1.51061 3.32841 2.41951 2.41951C3.32841 1.51061 4.56114 1 5.84652 1C7.1319 1 8.36463 1.51061 9.27352 2.41951C10.1824 3.32841 10.693 4.56114 10.693 5.84652Z" stroke="#7F8699" stroke-linecap="round" stroke-linejoin="round"/>
<path d="M5.84652 7.46203C6.73874 7.46203 7.46203 6.73874 7.46203 5.84652C7.46203 4.9543 6.73874 4.23102 5.84652 4.23102C4.9543 4.23102 4.23102 4.9543 4.23102 5.84652C4.23102 6.73874 4.9543 7.46203 5.84652 7.46203Z" stroke="#7F8699" stroke-linecap="round" stroke-linejoin="round"/>
</svg>
