<svg width="17" height="15" viewBox="0 0 17 15" fill="none" xmlns="http://www.w3.org/2000/svg">
<path d="M11.9091 13.9999V12.6231C11.9091 11.8928 11.6218 11.1924 11.1103 10.676C10.5988 10.1596 9.90515 9.86951 9.18183 9.86951H3.72728C3.00396 9.86951 2.31026 10.1596 1.7988 10.676C1.28734 11.1924 1 11.8928 1 12.6231V13.9999" stroke="#7F8699" stroke-width="1.5" stroke-linecap="round" stroke-linejoin="round"/>
<path d="M6.45457 7.1159C7.9608 7.1159 9.18185 5.88306 9.18185 4.36227C9.18185 2.84148 7.9608 1.60864 6.45457 1.60864C4.94834 1.60864 3.72729 2.84148 3.72729 4.36227C3.72729 5.88306 4.94834 7.1159 6.45457 7.1159Z" stroke="#7F8699" stroke-width="1.5" stroke-linecap="round" stroke-linejoin="round"/>
<path d="M16 13.9999V12.6231C15.9996 12.013 15.7985 11.4203 15.4283 10.9381C15.058 10.4559 14.5397 10.1115 13.9546 9.95898" stroke="#7F8699" stroke-width="1.5" stroke-linecap="round" stroke-linejoin="round"/>
<path d="M11.2273 1.69818C11.8139 1.84984 12.3339 2.19432 12.7052 2.67731C13.0766 3.1603 13.2781 3.75433 13.2781 4.36576C13.2781 4.97718 13.0766 5.57121 12.7052 6.0542C12.3339 6.5372 11.8139 6.88167 11.2273 7.03333" stroke="#7F8699" stroke-width="1.5" stroke-linecap="round" stroke-linejoin="round"/>
</svg>
