<svg width="18" height="18" viewBox="0 0 18 18" fill="none" xmlns="http://www.w3.org/2000/svg">
<path d="M15.2494 17.125H15.1432C2.86192 16.4188 1.11817 6.05625 0.874422 2.89375C0.854782 2.64786 0.883853 2.40052 0.959969 2.16588C1.03609 1.93125 1.15775 1.71394 1.318 1.52641C1.47824 1.33888 1.67391 1.1848 1.8938 1.07302C2.11369 0.961244 2.35348 0.893951 2.59942 0.875001H6.04317C6.29352 0.874758 6.53817 0.949694 6.74544 1.0901C6.95271 1.23051 7.11304 1.42992 7.20567 1.6625L8.15567 4C8.24714 4.22722 8.26984 4.4763 8.22095 4.71631C8.17206 4.95631 8.05373 5.17667 7.88067 5.35L6.54942 6.69375C6.75737 7.87547 7.32329 8.96479 8.17061 9.81435C9.01793 10.6639 10.1058 11.2327 11.2869 11.4437L12.6432 10.1C12.8191 9.92885 13.0415 9.81328 13.2827 9.76771C13.5239 9.72214 13.7732 9.74859 13.9994 9.84375L16.3557 10.7875C16.5847 10.8831 16.7802 11.0446 16.9171 11.2517C17.054 11.4587 17.1262 11.7018 17.1244 11.95V15.25C17.1244 15.7473 16.9269 16.2242 16.5752 16.5758C16.2236 16.9275 15.7467 17.125 15.2494 17.125ZM2.74942 2.125C2.58366 2.125 2.42469 2.19085 2.30748 2.30806C2.19027 2.42527 2.12442 2.58424 2.12442 2.75V2.8C2.41192 6.5 4.25567 15.25 15.2119 15.875C15.294 15.8801 15.3763 15.8689 15.4541 15.8421C15.5319 15.8153 15.6036 15.7734 15.6652 15.7188C15.7267 15.6642 15.7769 15.598 15.8128 15.524C15.8487 15.45 15.8696 15.3696 15.8744 15.2875V11.95L13.5182 11.0062L11.7244 12.7875L11.4244 12.75C5.98692 12.0687 5.24942 6.63125 5.24942 6.575L5.21192 6.275L6.98692 4.48125L6.04942 2.125H2.74942Z" fill="#F9560F"/>
</svg>
