<svg width="17" height="15" viewBox="0 0 17 15" fill="none" xmlns="http://www.w3.org/2000/svg">
<path d="M11.9091 13.9999V12.6231C11.9091 11.8928 11.6218 11.1924 11.1103 10.676C10.5988 10.1596 9.90515 9.86951 9.18183 9.86951H3.72728C3.00396 9.86951 2.31026 10.1596 1.7988 10.676C1.28734 11.1924 1 11.8928 1 12.6231V13.9999" stroke="white" stroke-width="1.5" stroke-linecap="round" stroke-linejoin="round"/>
<path d="M6.45457 7.11593C7.9608 7.11593 9.18185 5.88309 9.18185 4.3623C9.18185 2.84151 7.9608 1.60867 6.45457 1.60867C4.94834 1.60867 3.72729 2.84151 3.72729 4.3623C3.72729 5.88309 4.94834 7.11593 6.45457 7.11593Z" stroke="white" stroke-width="1.5" stroke-linecap="round" stroke-linejoin="round"/>
<path d="M16 14V12.6232C15.9996 12.0131 15.7985 11.4204 15.4283 10.9382C15.058 10.456 14.5397 10.1116 13.9546 9.95905" stroke="white" stroke-width="1.5" stroke-linecap="round" stroke-linejoin="round"/>
<path d="M11.2273 1.69821C11.8139 1.84987 12.3339 2.19435 12.7052 2.67734C13.0766 3.16033 13.2781 3.75436 13.2781 4.36579C13.2781 4.97721 13.0766 5.57124 12.7052 6.05423C12.3339 6.53723 11.8139 6.88171 11.2273 7.03336" stroke="white" stroke-width="1.5" stroke-linecap="round" stroke-linejoin="round"/>
</svg>
