<svg width="23" height="22" viewBox="0 0 23 22" fill="none" xmlns="http://www.w3.org/2000/svg">
<path d="M21.5905 16.0818V19.0818C21.5916 19.3603 21.5346 19.6359 21.423 19.8911C21.3114 20.1463 21.1478 20.3754 20.9426 20.5636C20.7374 20.7519 20.4951 20.8953 20.2313 20.9845C19.9674 21.0737 19.6879 21.1068 19.4105 21.0818C16.3333 20.7474 13.3775 19.6959 10.7805 18.0118C8.36434 16.4764 6.31585 14.428 4.78051 12.0118C3.09049 9.40298 2.03875 6.43277 1.71051 3.34178C1.68552 3.06525 1.71838 2.78654 1.80701 2.5234C1.89564 2.26027 2.03808 2.01847 2.22528 1.8134C2.41247 1.60833 2.64031 1.44449 2.8943 1.3323C3.14829 1.22011 3.42285 1.16204 3.70051 1.16178H6.70051C7.18582 1.157 7.6563 1.32886 8.02427 1.64531C8.39224 1.96177 8.63259 2.40123 8.70051 2.88178C8.82713 3.84185 9.06196 4.78451 9.40051 5.69178C9.53505 6.0497 9.56417 6.43869 9.48442 6.81266C9.40466 7.18662 9.21937 7.52989 8.95051 7.80178L7.68051 9.07178C9.10407 11.5753 11.177 13.6482 13.6805 15.0718L14.9505 13.8018C15.2224 13.5329 15.5657 13.3476 15.9396 13.2679C16.3136 13.1881 16.7026 13.2172 17.0605 13.3518C17.9678 13.6903 18.9104 13.9252 19.8705 14.0518C20.3563 14.1203 20.7999 14.365 21.117 14.7393C21.4342 15.1136 21.6027 15.5914 21.5905 16.0818Z" stroke="#F9560F" stroke-width="1.5" stroke-linecap="round" stroke-linejoin="round"/>
</svg>
