<svg width="12" height="14" viewBox="0 0 12 14" fill="none" xmlns="http://www.w3.org/2000/svg">
<path d="M10.693 5.84652C10.693 9.61603 5.84652 12.847 5.84652 12.847C5.84652 12.847 1 9.61603 1 5.84652C1 4.56114 1.51061 3.32841 2.41951 2.41951C3.32841 1.51061 4.56114 1 5.84652 1C7.1319 1 8.36463 1.51061 9.27352 2.41951C10.1824 3.32841 10.693 4.56114 10.693 5.84652Z" stroke="#F9560F" stroke-linecap="round" stroke-linejoin="round"/>
<path d="M5.84598 7.46197C6.73819 7.46197 7.46148 6.73868 7.46148 5.84646C7.46148 4.95424 6.73819 4.23096 5.84598 4.23096C4.95376 4.23096 4.23047 4.95424 4.23047 5.84646C4.23047 6.73868 4.95376 7.46197 5.84598 7.46197Z" stroke="#F9560F" stroke-linecap="round" stroke-linejoin="round"/>
</svg>
