<svg width="33" height="27" viewBox="0 0 33 27" fill="none" xmlns="http://www.w3.org/2000/svg">
<path d="M32 23.2222C32 23.9589 31.7031 24.6655 31.1746 25.1864C30.6461 25.7073 29.9292 26 29.1818 26H3.81818C3.07075 26 2.35394 25.7073 1.82543 25.1864C1.29691 24.6655 1 23.9589 1 23.2222V7.94444C1 7.20773 1.29691 6.50119 1.82543 5.98026C2.35394 5.45932 3.07075 5.16667 3.81818 5.16667H9.45455L12.2727 1H20.7273L23.5455 5.16667H29.1818C29.9292 5.16667 30.6461 5.45932 31.1746 5.98026C31.7031 6.50119 32 7.20773 32 7.94444V23.2222Z" stroke="#7F8699" stroke-width="1.5" stroke-linecap="round" stroke-linejoin="round"/>
<path d="M16.5001 20.4444C19.613 20.4444 22.1365 17.9571 22.1365 14.8889C22.1365 11.8206 19.613 9.33333 16.5001 9.33333C13.3873 9.33333 10.8638 11.8206 10.8638 14.8889C10.8638 17.9571 13.3873 20.4444 16.5001 20.4444Z" stroke="#7F8699" stroke-width="1.5" stroke-linecap="round" stroke-linejoin="round"/>
</svg>
