<svg width="30" height="30" viewBox="0 0 30 30" fill="none" xmlns="http://www.w3.org/2000/svg">
<path d="M28.344 5.30167e-08H1.65459C0.740662 0.000457817 -0.000228829 0.741806 5.30167e-08 1.65596V28.3454C0.000457817 29.2593 0.741806 30.0002 1.65596 30H28.344C29.2584 30.0002 29.9998 29.2591 30 28.3447C30 28.3445 30 28.3443 30 28.344V1.65459C29.9995 0.740662 29.2582 -0.000228829 28.344 5.30167e-08Z" fill="url(#paint0_linear_104_867)"/>
<path d="M20.5 4H9.5C6.46243 4 4 6.46243 4 9.5V20.5C4 23.5376 6.46243 26 9.5 26H20.5C23.5376 26 26 23.5376 26 20.5V9.5C26 6.46243 23.5376 4 20.5 4Z" stroke="white" stroke-width="2" stroke-linecap="round" stroke-linejoin="round"/>
<path d="M19.3999 14.307C19.5356 15.2224 19.3793 16.1574 18.953 16.9789C18.5268 17.8004 17.8523 18.4665 17.0257 18.8826C16.199 19.2987 15.2622 19.4435 14.3484 19.2965C13.4347 19.1495 12.5906 18.7181 11.9362 18.0636C11.2818 17.4092 10.8504 16.5651 10.7033 15.6514C10.5563 14.7377 10.7011 13.8008 11.1172 12.9742C11.5333 12.1475 12.1995 11.4731 13.021 11.0468C13.8424 10.6206 14.7774 10.4642 15.6929 10.6C16.6267 10.7384 17.4912 11.1736 18.1587 11.8411C18.8263 12.5086 19.2614 13.3731 19.3999 14.307Z" stroke="white" stroke-width="2" stroke-linecap="round" stroke-linejoin="round"/>
<path d="M21.0498 8.95001H21.0612" stroke="white" stroke-width="2" stroke-linecap="round" stroke-linejoin="round"/>
<defs>
<linearGradient id="paint0_linear_104_867" x1="0" y1="30" x2="30" y2="0" gradientUnits="userSpaceOnUse">
<stop stop-color="#FED953"/>
<stop offset="1" stop-color="#C937A7"/>
</linearGradient>
</defs>
</svg>
