<svg width="17" height="18" viewBox="0 0 17 18" fill="none" xmlns="http://www.w3.org/2000/svg">
<path d="M13.3751 11.5C12.9072 11.5023 12.4459 11.6097 12.0251 11.8141C11.6043 12.0186 11.2348 12.3149 10.9438 12.6812L6.37505 9.82499C6.54156 9.28759 6.54156 8.71239 6.37505 8.17499L10.9438 5.31874C11.4075 5.89294 12.0595 6.28447 12.7843 6.42399C13.509 6.56351 14.2598 6.44201 14.9035 6.08101C15.5473 5.72 16.0425 5.1428 16.3014 4.45165C16.5603 3.76049 16.5662 3 16.3181 2.30489C16.0701 1.60977 15.5839 1.0249 14.9459 0.653884C14.3079 0.282866 13.5591 0.149647 12.8323 0.277825C12.1054 0.406004 11.4474 0.787308 10.9748 1.35419C10.5021 1.92107 10.2454 2.63694 10.2501 3.37499C10.253 3.65448 10.2951 3.93217 10.3751 4.19999L5.8063 7.05624C5.40296 6.54848 4.85164 6.17877 4.22877 5.99836C3.60591 5.81795 2.94234 5.83578 2.33006 6.04937C1.71778 6.26297 1.18711 6.66174 0.811608 7.19043C0.436107 7.71911 0.234375 8.35152 0.234375 8.99999C0.234375 9.64846 0.436107 10.2809 0.811608 10.8096C1.18711 11.3382 1.71778 11.737 2.33006 11.9506C2.94234 12.1642 3.60591 12.182 4.22877 12.0016C4.85164 11.8212 5.40296 11.4515 5.8063 10.9437L10.3751 13.8C10.2951 14.0678 10.253 14.3455 10.2501 14.625C10.2501 15.2431 10.4333 15.8472 10.7767 16.3611C11.1201 16.875 11.6081 17.2756 12.1792 17.5121C12.7502 17.7486 13.3785 17.8105 13.9847 17.6899C14.5909 17.5694 15.1477 17.2717 15.5848 16.8347C16.0218 16.3977 16.3194 15.8408 16.44 15.2346C16.5606 14.6285 16.4987 14.0001 16.2622 13.4291C16.0257 12.8581 15.6251 12.37 15.1112 12.0266C14.5973 11.6833 13.9931 11.5 13.3751 11.5ZM13.3751 1.49999C13.7459 1.49999 14.1084 1.60996 14.4167 1.81598C14.7251 2.02201 14.9654 2.31485 15.1073 2.65746C15.2492 3.00007 15.2864 3.37707 15.214 3.74078C15.1417 4.1045 14.9631 4.43859 14.7009 4.70082C14.4387 4.96304 14.1046 5.14161 13.7408 5.21396C13.3771 5.28631 13.0001 5.24918 12.6575 5.10726C12.3149 4.96535 12.0221 4.72503 11.816 4.41668C11.61 4.10834 11.5001 3.74583 11.5001 3.37499C11.5001 2.87771 11.6976 2.4008 12.0492 2.04916C12.4009 1.69753 12.8778 1.49999 13.3751 1.49999ZM3.37505 10.875C3.00421 10.875 2.6417 10.765 2.33336 10.559C2.02502 10.353 1.78469 10.0601 1.64278 9.71752C1.50087 9.37491 1.46373 8.99791 1.53608 8.6342C1.60843 8.27048 1.78701 7.93639 2.04923 7.67416C2.31145 7.41194 2.64555 7.23336 3.00926 7.16102C3.37297 7.08867 3.74997 7.1258 4.09259 7.26772C4.4352 7.40963 4.72803 7.64995 4.93406 7.9583C5.14009 8.26664 5.25005 8.62915 5.25005 8.99999C5.25005 9.49727 5.05251 9.97418 4.70088 10.3258C4.34925 10.6774 3.87233 10.875 3.37505 10.875ZM13.3751 16.5C13.0042 16.5 12.6417 16.39 12.3334 16.184C12.025 15.978 11.7847 15.6851 11.6428 15.3425C11.5009 14.9999 11.4637 14.6229 11.5361 14.2592C11.6084 13.8955 11.787 13.5614 12.0492 13.2992C12.3115 13.0369 12.6455 12.8584 13.0093 12.786C13.373 12.7137 13.75 12.7508 14.0926 12.8927C14.4352 13.0346 14.728 13.275 14.9341 13.5833C15.1401 13.8916 15.2501 14.2541 15.2501 14.625C15.2501 15.1223 15.0525 15.5992 14.7009 15.9508C14.3492 16.3024 13.8723 16.5 13.3751 16.5Z" fill="#7F8699"/>
</svg>
