<svg width="14" height="14" viewBox="0 0 14 14" fill="none" xmlns="http://www.w3.org/2000/svg">
<path d="M5.00065 7.66665H6.33398V8.99998C6.33398 9.17678 6.40425 9.34638 6.52925 9.47138C6.65425 9.59638 6.82385 9.66665 7.00065 9.66665C7.17745 9.66665 7.34705 9.59638 7.47205 9.47138C7.59705 9.34638 7.66732 9.17678 7.66732 8.99998V7.66665H9.00065C9.17745 7.66665 9.34705 7.59638 9.47205 7.47138C9.59705 7.34638 9.66732 7.17678 9.66732 6.99998C9.66732 6.82318 9.59705 6.65358 9.47205 6.52858C9.34705 6.40358 9.17745 6.33331 9.00065 6.33331H7.66732V4.99998C7.66732 4.82317 7.59705 4.6536 7.47205 4.52857C7.34705 4.40355 7.17745 4.33331 7.00065 4.33331C6.82385 4.33331 6.65425 4.40355 6.52925 4.52857C6.40425 4.6536 6.33398 4.82317 6.33398 4.99998V6.33331H5.00065C4.82384 6.33331 4.65427 6.40358 4.52924 6.52858C4.40422 6.65358 4.33398 6.82318 4.33398 6.99998C4.33398 7.17678 4.40422 7.34638 4.52924 7.47138C4.65427 7.59638 4.82384 7.66665 5.00065 7.66665ZM13.0007 0.333313H1.00065C0.823838 0.333313 0.654271 0.403553 0.529244 0.528573C0.404224 0.6536 0.333984 0.823166 0.333984 0.99998V13C0.333984 13.1768 0.404224 13.3464 0.529244 13.4714C0.654271 13.5964 0.823838 13.6666 1.00065 13.6666H13.0007C13.1775 13.6666 13.3471 13.5964 13.4721 13.4714C13.5971 13.3464 13.6673 13.1768 13.6673 13V0.99998C13.6673 0.823166 13.5971 0.6536 13.4721 0.528573C13.3471 0.403553 13.1775 0.333313 13.0007 0.333313ZM12.334 12.3333H1.66732V1.66665H12.334V12.3333Z" fill="#7F8699"/>
</svg>
